{
.appVersion = "1312";
DisplayStrings = (
Z
);
classes = (
{
code = "Euro bar cent colon comma degree divide dollar eight equal five four greater less minus multiply nine numbersign one paragraph percent period periodcentered plus plusminus quotedbl quotesingle section semicolon seven six slash sterling three two underscore yen zero";
name = tnum1;
},
{
code = "Euro.tnum bar.tnum cent.tnum colon.tnum comma.tnum degree.tnum divide.tnum dollar.tnum eight.tnum equal.tnum five.tnum four.tnum greater.tnum less.tnum minus.tnum multiply.tnum nine.tnum numbersign.tnum one.tnum paragraph.tnum percent.tnum period.tnum periodcentered.tnum plus.tnum plusminus.tnum quotedbl.tnum quotesingle.tnum section.tnum semicolon.tnum seven.tnum six.tnum slash.tnum sterling.tnum three.tnum two.tnum underscore.tnum yen.tnum zero.tnum";
name = tnum2;
}
);
copyright = "Copyright 2018 The Libre Caslon Text Project Authors (https://github.com/thundernixon/Libre-Caslon)";
customParameters = (
{
name = macintoshFONDFamilyID;
value = 128;
},
{
name = macintoshFONDName;
value = "Libre Caslon Text";
},
{
name = openTypeHeadFlags;
value = (
);
},
{
name = description;
value = "Libre Caslon in Text is optimized for web body text";
},
{
name = openTypeNameSampleText;
value = "";
},
{
name = openTypeNameUniqueID;
value = "PabloImpallari,RodrigoFuenzalida: Libre Caslon Text Italic: 2012";
},
{
name = openTypeOS2FamilyClass;
value = (
0,
0
);
},
{
name = openTypeOS2Panose;
value = (
2,
2,
6,
2,
6,
3,
0,
0,
0,
4
);
},
{
name = openTypeOS2Selection;
value = (
);
},
{
name = openTypeOS2StrikeoutPosition;
value = 250;
},
{
name = openTypeOS2StrikeoutSize;
value = 50;
},
{
name = openTypeOS2SubscriptXOffset;
value = 0;
},
{
name = openTypeOS2SubscriptXSize;
value = 700;
},
{
name = openTypeOS2SubscriptYOffset;
value = 140;
},
{
name = openTypeOS2SubscriptYSize;
value = 650;
},
{
name = openTypeOS2SuperscriptXOffset;
value = 0;
},
{
name = openTypeOS2SuperscriptXSize;
value = 700;
},
{

glyphs = (
{
glyphname = A;
layers = (
{
anchors = (
{
name = bottom;
position = "{804, 0}";
},
{
name = topcap;
position = "{1075, 1427}";
}
);
background = {
paths = (
{
closed = 1;
nodes = (
"966 1211 LINE",
"130 239 LINE SMOOTH",
"13 102 OFFCURVE",
"-42 71 OFFCURVE",
"-196 48 CURVE",
"-219 0 LINE",
"277 0 LINE",
"299 48 LINE",
"195 62 OFFCURVE",
"152 83 OFFCURVE",
"152 121 CURVE SMOOTH",
"152 149 OFFCURVE",
"169 173 OFFCURVE",
"222 235 CURVE SMOOTH",
"939 1068 LINE"
);
},
{
closed = 1;
nodes = (
"863 555 LINE",
"469 555 LINE",
"415 491 LINE",
"854 491 LINE"
);
},
{
closed = 1;
nodes = (
"795 181 LINE SMOOTH",
"780 81 OFFCURVE",
"734 50 OFFCURVE",
"594 48 CURVE",
"569 0 LINE",
"1088 0 LINE",
"1113 48 LINE",
"986 57 OFFCURVE",
"958 80 OFFCURVE",
"968 158 CURVE SMOOTH",
"1125 1363 LINE",
"949 1323 LINE",
"925 1117 LINE"
);
}
);
};
layerId = master01;
paths = (
{
closed = 1;
nodes = (
"966 1211 LINE",
"130 239 LINE SMOOTH",
"13 102 OFFCURVE",
"-46 62 OFFCURVE",
"-200 39 CURVE",
"-219 0 LINE",
"277 0 LINE",
"295 39 LINE",
"191 53 OFFCURVE",
"152 83 OFFCURVE",
"152 121 CURVE SMOOTH",
"152 149 OFFCURVE",
"169 173 OFFCURVE",
"222 235 CURVE SMOOTH",
"939 1068 LINE"
);
},
{
closed = 1;
nodes = (
"863 555 LINE",
"469 555 LINE",
"415 491 LINE",
"854 491 LINE"
);
},
{
closed = 1;
nodes = (
"795 181 LINE SMOOTH",
"780 81 OFFCURVE",
"729 41 OFFCURVE",
"589 39 CURVE",
"569 0 LINE",
"1088 0 LINE",
"1108 39 LINE",
"981 48 OFFCURVE",
"958 80 OFFCURVE",
"968 158 CURVE SMOOTH",
"1125 1363 LINE",
"949 1323 LINE",
"925 1117 LINE"
);
}
);
width = 1301;
},
{
anchors = (
{
name = bottom;
position = "{769, 0}";
},
{
name = topcap;
position = "{1040, 1427}";
}
);
associatedMasterId = master01;
layerId = "CA5349ED-4193-4C38-9110-5E52926B6C4B";
name = "Jan 9 19, 13:25";
paths = (
{
closed = 1;
nodes = (
"229 0 LINE",
"251 48 LINE",
"149 62 OFFCURVE",
"106 82 OFFCURVE",
"104 118 CURVE SMOOTH",
"104 149 OFFCURVE",
"120 174 OFFCURVE",
"174 235 CURVE SMOOTH",
"396 491 LINE",
"803 491 LINE",
"760 181 LINE SMOOTH",
"744 74 OFFCURVE",
"689 50 OFFCURVE",
"559 48 CURVE",
"534 0 LINE",
"1063 0 LINE",
"1088 48 LINE",
"981 55 OFFCURVE",
"943 68 OFFCURVE",
"941 129 CURVE SMOOTH",
"941 138 OFFCURVE",
"941 147 OFFCURVE",
"943 158 CURVE SMOOTH",
"1100 1363 LINE",
"914 1323 LINE",
"896 1164 LINE",
"100 239 LINE SMOOTH",
"-11 111 OFFCURVE",
"-62 72 OFFCURVE",
"-226 48 CURVE",
"-249 0 LINE"
);
},
{
closed = 1;
nodes = (
"884 1056 LINE",
"812 555 LINE",
"450 555 LINE"
);
}
);
width = 1285;
},
{
anchors = (
{
name = bottom;
position = "{867, 0}";
},
{
name = topcap;
position = "{1018, 1427}";
}
);
background = {
paths = (
{
closed = 1;
nodes = (
"859 1118 LINE",
"111 254 LINE SMOOTH",
"-6 119 OFFCURVE",
"-33 91 OFFCURVE",
"-206 63 CURVE",
"-232 0 LINE",
"317 0 LINE",
"343 63 LINE",
"236 80 OFFCURVE",
"185 102 OFFCURVE",
"185 143 CURVE SMOOTH",
"185 170 OFFCURVE",
"206 204 OFFCURVE",
"246 251 CURVE SMOOTH",
"902 1008 LINE"
);
},
{
closed = 1;
nodes = (
"888 479 LINE",
"334 479 LINE",
"294 382 LINE",
"848 382 LINE"
);
},
{
closed = 1;
nodes = (
"728 196 LINE SMOOTH",
"714 82 OFFCURVE",
"672 68 OFFCURVE",
"521 63 CURVE",
"495 0 LINE",
"1137 0 LINE",
"1163 63 LINE",
"1041 72 OFFCURVE",
"1012 90 OFFCURVE",
"1021 168 CURVE SMOOTH",
"1163 1357 LINE",
"860 1260 LINE",
"829 1000 LINE"
);
},
{
closed = 1;
nodes = (
"858 1118 LINE",
"124 254 LINE SMOOTH",
"-1 107 OFFCURVE",
"-33 89 OFFCURVE",
"-195 59 CURVE",
"-219 0 LINE",
"317 0 LINE",
"341 59 LINE",
"228 82 OFFCURVE",
"185 105 OFFCURVE",
"185 143 CURVE SMOOTH",
"185 168 OFFCURVE",
"203 201 OFFCURVE",
"246 251 CURVE SMOOTH",
"902 1016 LINE"
);
},
{
closed = 1;
nodes = (
"888 479 LINE",
"334 479 LINE",
"294 382 LINE",
"848 382 LINE"
);
},
{
closed = 1;
nodes = (
"732 196 LINE SMOOTH",
"719 89 OFFCURVE",
"687 69 OFFCURVE",
"523 59 CURVE",
"499 0 LINE",
"1132 0 LINE",
"1156 59 LINE",
"1033 72 OFFCURVE",
"1007 92 OFFCURVE",
"1016 168 CURVE SMOOTH",
"1158 1357 LINE",
"859 1260 LINE",
"828 1000 LINE"
);
}
);
};
layerId = "D3934E74-9B53-4E98-B19F-CD3DFEE08352";
paths = (
{
closed = 1;
nodes = (
"882 1146 LINE",
"124 254 LINE SMOOTH",
"-1 106 OFFCURVE",
"-33 89 OFFCURVE",
"-195 59 CURVE",
"-219 0 LINE",
"317 0 LINE",
"341 59 LINE",
"228 82 OFFCURVE",
"185 105 OFFCURVE",
"185 143 CURVE SMOOTH",
"185 168 OFFCURVE",
"203 201 OFFCURVE",
"246 251 CURVE SMOOTH",
"902 1016 LINE"
);
},
{
closed = 1;
nodes = (
"888 475 LINE",
"334 475 LINE",
"294 385 LINE",
"848 385 LINE"
);
},
{
closed = 1;
nodes = (
"752 196 LINE SMOOTH",
"739 89 OFFCURVE",
"707 69 OFFCURVE",
"543 59 CURVE",
"519 0 LINE",
"1117 0 LINE",
"1141 59 LINE",
"1018 72 OFFCURVE",
"992 92 OFFCURVE",
"1001 168 CURVE SMOOTH",
"1143 1357 LINE",
"879 1260 LINE",
"848 1000 LINE"
);
}
);
width = 1316;
},
{
anchors = (
{
name = bottom;
position = "{769, 0}";
},
{
name = topcap;
position = "{1040, 1427}";
}
);
associatedMasterId = "D3934E74-9B53-4E98-B19F-CD3DFEE08352";
layerId = "682F6276-851F-41F1-906A-C63B3B00156A";
name = "Jan 9 19, 13:25";
paths = (
{
closed = 1;
nodes = (
"229 0 LINE",
"251 48 LINE",
"149 62 OFFCURVE",
"106 82 OFFCURVE",
"104 118 CURVE SMOOTH",
"104 149 OFFCURVE",
"120 174 OFFCURVE",
"174 235 CURVE SMOOTH",
"396 491 LINE",
"803 491 LINE",
"760 181 LINE SMOOTH",
"744 74 OFFCURVE",
"689 50 OFFCURVE",
"559 48 CURVE",
"534 0 LINE",
"1063 0 LINE",
"1088 48 LINE",
"981 55 OFFCURVE",
"943 68 OFFCURVE",
"941 129 CURVE SMOOTH",
"941 138 OFFCURVE",
"941 147 OFFCURVE",
"943 158 CURVE SMOOTH",
"1100 1363 LINE",
"914 1323 LINE",
"896 1164 LINE",
"100 239 LINE SMOOTH",
"-11 111 OFFCURVE",
"-62 72 OFFCURVE",
"-226 48 CURVE",
"-249 0 LINE"
);
},
{
closed = 1;
nodes = (
"884 1056 LINE",
"812 555 LINE",
"450 555 LINE"
);
}
);
width = 1285;
}
);
leftKerningGroup = A;
rightKerningGroup = A;
unicode = 0041;
},
{
glyphname = Aringacute;
layers = (
{
components = (
{
name = A;
},
{
name = ring.cap;
transform = "{1, 0, 0, 1, 930, 0}";
}
);
layerId = master01;
paths = (
{
closed = 1;
nodes = (
"1266 1506 OFFCURVE",
"1295 1529 OFFCURVE",
"1295 1567 CURVE SMOOTH",
"1295 1605 OFFCURVE",
"1270 1626 OFFCURVE",
"1219 1626 CURVE SMOOTH",
"1203 1626 OFFCURVE",
"1189 1622 OFFCURVE",
"1173 1617 CURVE",
"1176 1506 LINE"
);
},
{
closed = 1;
nodes = (
"988 1572 LINE",
"880 1536 LINE",
"887 1495 LINE",
"983 1492 LINE"
);
}
);
width = 1301;
},
{
components = (
{
name = A;
},
{
name = ring.cap;
transform = "{1, 0, 0, 1, 400, 0}";
}
);
layerId = "D3934E74-9B53-4E98-B19F-CD3DFEE08352";
paths = (
{
closed = 1;
nodes = (
"1264 1495 OFFCURVE",
"1298 1523 OFFCURVE",
"1298 1569 CURVE SMOOTH",
"1298 1614 OFFCURVE",
"1268 1639 OFFCURVE",
"1207 1639 CURVE SMOOTH",
"1188 1639 OFFCURVE",
"1171 1635 OFFCURVE",
"1152 1629 CURVE",
"1156 1495 LINE SMOOTH"
);
},
{
closed = 1;
nodes = (
"930 1575 LINE",
"801 1531 LINE",
"809 1482 LINE",
"924 1479 LINE"
);
}
);
width = 1316;
}
);
leftKerningGroup = A;
leftMetricsKey = A;
rightKerningGroup = A;
rightMetricsKey = A;
unicode = 01FA;
},
{
glyphname = AE;
layers = (
{
background = {
paths = (
{
closed = 1;
nodes = (
"1065 1207 LINE",
"1104 1207 LINE",
"638 81 LINE",
"480 48 LINE",
"459 0 LINE",
"1506 0 LINE",
"1662 396 LINE",
"1613 396 LINE",
"1547 287 OFFCURVE",
"1470 177 OFFCURVE",
"1377 68 CURVE",
"822 68 LINE",
"1066 663 LINE",
"1365 663 LINE",
"1362 595 OFFCURVE",
"1355 526 OFFCURVE",
"1335 457 CURVE",
"1385 457 LINE",
"1579 928 LINE",
"1530 928 LINE",
"1491 863 OFFCURVE",
"1443 798 OFFCURVE",
"1385 732 CURVE",
"1097 732 LINE",
"1310 1255 LINE",
"1699 1255 LINE",
"1748 1169 OFFCURVE",
"1778 1067 OFFCURVE",
"1798 945 CURVE",
"1844 945 LINE",
"1830 1323 LINE",
"924 1323 LINE",
"906 1284 LINE",
"1065 1247 LINE"
);
},
{
closed = 1;
nodes = (
"850 555 LINE",
"489 555 LINE",
"433 487 LINE",
"824 487 LINE"
);
},
{
closed = 1;
nodes = (
"1069 1284 LINE",
"126 239 LINE SMOOTH",
"11 111 OFFCURVE",
"-36 72 OFFCURVE",
"-196 48 CURVE",
"-219 0 LINE",
"266 0 LINE",
"288 48 LINE",
"189 62 OFFCURVE",
"146 82 OFFCURVE",
"146 120 CURVE SMOOTH",
"146 147 OFFCURVE",
"164 176 OFFCURVE",
"220 235 CURVE SMOOTH",
"1141 1255 LINE"
);
}
);
};
layerId = master01;
paths = (
{
closed = 1;
nodes = (
"1065 1207 LINE",
"1104 1207 LINE",
"634 72 LINE",
"476 39 LINE",
"459 0 LINE",
"1506 0 LINE",
"1662 396 LINE",
"1613 396 LINE",
"1547 287 OFFCURVE",
"1470 177 OFFCURVE",
"1377 68 CURVE",
"822 68 LINE",
"1066 663 LINE",
"1365 663 LINE",
"1362 595 OFFCURVE",
"1355 526 OFFCURVE",
"1335 457 CURVE",
"1385 457 LINE",
"1579 928 LINE",
"1530 928 LINE",
"1491 863 OFFCURVE",
"1443 798 OFFCURVE",
"1385 732 CURVE",
"1097 732 LINE",
"1310 1255 LINE",
"1699 1255 LINE",
"1748 1169 OFFCURVE",
"1778 1067 OFFCURVE",
"1798 945 CURVE",
"1844 945 LINE",
"1830 1323 LINE",
"924 1323 LINE",
"906 1284 LINE",
"1065 1247 LINE"
);
},
{
closed = 1;
nodes = (
"850 555 LINE",
"489 555 LINE",
"433 487 LINE",
"824 487 LINE"
);
},
{
closed = 1;
nodes = (
"1069 1284 LINE",
"126 239 LINE SMOOTH",
"11 111 OFFCURVE",
"-40 63 OFFCURVE",
"-200 39 CURVE",
"-219 0 LINE",
"266 0 LINE",
"284 39 LINE",
"185 53 OFFCURVE",
"146 82 OFFCURVE",
"146 120 CURVE SMOOTH",
"146 147 OFFCURVE",
"164 176 OFFCURVE",
"220 235 CURVE SMOOTH",
"1141 1255 LINE"
);
}
);
width = 1785;
},
{
background = {
paths = (
{
closed = 1;
nodes = (
"1051 1206 LINE",
"1088 1206 LINE",
"624 92 LINE",
"469 59 LINE",
"444 0 LINE",
"1552 0 LINE",
"1712 402 LINE",
"1652 402 LINE",
"1584 296 OFFCURVE",
"1505 199 OFFCURVE",
"1401 94 CURVE",
"920 94 LINE",
"1152 653 LINE",
"1338 653 LINE",
"1356 590 OFFCURVE",
"1361 523 OFFCURVE",
"1353 459 CURVE",
"1425 459 LINE",
"1625 940 LINE",
"1553 940 LINE",
"1519 886 OFFCURVE",
"1461 822 OFFCURVE",
"1377 746 CURVE",
"1191 746 LINE",
"1392 1229 LINE",
"1697 1229 LINE",
"1750 1155 OFFCURVE",
"1794 1064 OFFCURVE",
"1832 945 CURVE",
"1892 945 LINE",
"1877 1323 LINE",
"906 1323 LINE",
"881 1264 LINE",
"1051 1237 LINE"
);
},
{
closed = 1;
nodes = (
"889 475 LINE",
"335 475 LINE",
"295 385 LINE",
"849 385 LINE"
);
},
{
closed = 1;
nodes = (
"1029 1298 LINE",
"124 254 LINE SMOOTH",
"-5 106 OFFCURVE",
"-33 89 OFFCURVE",
"-195 59 CURVE",
"-219 0 LINE",
"318 0 LINE",
"342 59 LINE",
"229 82 OFFCURVE",
"186 105 OFFCURVE",
"186 143 CURVE SMOOTH",
"186 168 OFFCURVE",
"204 201 OFFCURVE",
"247 251 CURVE SMOOTH",
"1127 1258 LINE"
);
}
);
};
layerId = "D3934E74-9B53-4E98-B19F-CD3DFEE08352";
paths = (
{
closed = 1;
nodes = (
"1051 1214 LINE",
"1101 1214 LINE",
"634 92 LINE",
"479 59 LINE",
"454 0 LINE",
"1550 0 LINE",
"1710 402 LINE",
"1650 402 LINE",
"1582 296 OFFCURVE",
"1503 199 OFFCURVE",
"1399 90 CURVE",
"906 90 LINE",
"1141 655 LINE",
"1336 655 LINE",
"1354 590 OFFCURVE",
"1359 523 OFFCURVE",
"1351 459 CURVE",
"1423 459 LINE",
"1623 940 LINE",
"1551 940 LINE",
"1517 886 OFFCURVE",
"1459 822 OFFCURVE",
"1375 745 CURVE",
"1179 745 LINE",
"1382 1233 LINE",
"1695 1233 LINE",
"1748 1155 OFFCURVE",
"1792 1064 OFFCURVE",
"1830 945 CURVE",
"1890 945 LINE",
"1875 1323 LINE",
"876 1323 LINE",
"851 1264 LINE",
"1051 1237 LINE"
);
},
{
closed = 1;
nodes = (
"889 475 LINE",
"335 475 LINE",
"295 385 LINE",
"849 385 LINE"
);
},
{
closed = 1;
nodes = (
"1029 1298 LINE",
"124 254 LINE SMOOTH",
"-5 106 OFFCURVE",
"-33 89 OFFCURVE",
"-195 59 CURVE",
"-219 0 LINE",
"318 0 LINE",
"342 59 LINE",
"229 82 OFFCURVE",
"186 105 OFFCURVE",
"186 143 CURVE SMOOTH",
"186 168 OFFCURVE",
"204 201 OFFCURVE",
"247 251 CURVE SMOOTH",
"1125 1258 LINE"
);
}
);
width = 1819;
}
);
leftMetricsKey = A;
rightKerningGroup = E;
rightMetricsKey = E;
unicode = 00C6;
},
{
glyphname = B;
layers = (
{
background = {
paths = (
{
closed = 1;
nodes = (
"508 0 LINE SMOOTH",
"841 0 OFFCURVE",
"1062 160 OFFCURVE",
"1062 402 CURVE SMOOTH",
"1062 547 OFFCURVE",
"985 648 OFFCURVE",
"848 683 CURVE",
"848 689 LINE",
"1075 724 OFFCURVE",
"1243 880 OFFCURVE",
"1243 1054 CURVE SMOOTH",
"1243 1221 OFFCURVE",
"1087 1323 OFFCURVE",
"843 1323 CURVE SMOOTH",
"431 1323 LINE",
"411 1275 LINE",
"546 1242 LINE",
"61 81 LINE",
"-91 48 LINE",
"-109 0 LINE"
);
},
{
closed = 1;
nodes = (
"320 65 OFFCURVE",
"284 82 OFFCURVE",
"284 127 CURVE SMOOTH",
"284 149 OFFCURVE",
"293 183 OFFCURVE",
"313 232 CURVE SMOOTH",
"492 669 LINE",
"616 669 LINE SMOOTH",
"791 669 OFFCURVE",
"877 595 OFFCURVE",
"877 432 CURVE SMOOTH",
"877 196 OFFCURVE",
"718 65 OFFCURVE",
"417 65 CURVE SMOOTH"
);
},
{
closed = 1;
nodes = (
"738 1253 LINE",
"843 1253 LINE SMOOTH",
"989 1253 OFFCURVE",
"1064 1189 OFFCURVE",
"1064 1052 CURVE SMOOTH",
"1064 855 OFFCURVE",
"924 737 OFFCURVE",
"682 737 CURVE SMOOTH",
"521 737 LINE"
);
}
);
};
guideLines = (
{
position = "{1541, 1251}";
}
);
layerId = master01;
paths = (
{
closed = 1;
nodes = (
"508 0 LINE SMOOTH",
"841 0 OFFCURVE",
"1062 160 OFFCURVE",
"1062 402 CURVE SMOOTH",
"1062 547 OFFCURVE",
"985 648 OFFCURVE",
"848 683 CURVE",
"848 689 LINE",
"1075 724 OFFCURVE",
"1243 880 OFFCURVE",
"1243 1054 CURVE SMOOTH",
"1243 1221 OFFCURVE",
"1087 1323 OFFCURVE",
"843 1323 CURVE SMOOTH",
"431 1323 LINE",
"415 1284 LINE",
"550 1251 LINE",
"57 72 LINE",
"-95 39 LINE",
"-109 0 LINE"
);
},
{
closed = 1;
nodes = (
"320 65 OFFCURVE",
"284 82 OFFCURVE",
"284 127 CURVE SMOOTH",
"284 149 OFFCURVE",
"293 183 OFFCURVE",
"313 232 CURVE SMOOTH",
"492 669 LINE",
"616 669 LINE SMOOTH",
"791 669 OFFCURVE",
"877 595 OFFCURVE",
"877 432 CURVE SMOOTH",
"877 196 OFFCURVE",
"718 65 OFFCURVE",
"417 65 CURVE SMOOTH"
);
},
{
closed = 1;
nodes = (
"738 1253 LINE",
"843 1253 LINE SMOOTH",
"989 1253 OFFCURVE",
"1064 1189 OFFCURVE",
"1064 1052 CURVE SMOOTH",
"1064 855 OFFCURVE",
"924 737 OFFCURVE",
"682 737 CURVE SMOOTH",
"521 737 LINE"
);
}
);
width = 1195;
},
{
background = {
paths = (
{
closed = 1;
nodes = (
"1140 -18 OFFCURVE",
"1560 440 OFFCURVE",
"1560 890 CURVE SMOOTH",
"1560 1169 OFFCURVE",
"1387 1341 OFFCURVE",
"1082 1341 CURVE SMOOTH",
"579 1341 OFFCURVE",
"156 888 OFFCURVE",
"156 435 CURVE SMOOTH",
"156 159 OFFCURVE",
"322 -18 OFFCURVE",
"628 -18 CURVE SMOOTH"
);
},
{
closed = 1;
nodes = (
"523 76 OFFCURVE",
"453 174 OFFCURVE",
"453 366 CURVE SMOOTH",
"453 797 OFFCURVE",
"749 1247 OFFCURVE",
"1054 1247 CURVE SMOOTH",
"1192 1247 OFFCURVE",
"1263 1151 OFFCURVE",
"1263 960 CURVE SMOOTH",
"1263 524 OFFCURVE",
"969 76 OFFCURVE",
"664 76 CURVE SMOOTH"
);
}
);
};
guideLines = (
{
position = "{736, 703}";
}
);
layerId = "D3934E74-9B53-4E98-B19F-CD3DFEE08352";
paths = (
{
closed = 1;
nodes = (
"521 0 LINE SMOOTH",
"884 0 OFFCURVE",
"1126 177 OFFCURVE",
"1126 412 CURVE SMOOTH",
"1126 562 OFFCURVE",
"1040 662 OFFCURVE",
"844 687 CURVE",
"844 698 LINE",
"1168 743 OFFCURVE",
"1326 874 OFFCURVE",
"1326 1053 CURVE SMOOTH",
"1326 1227 OFFCURVE",
"1174 1323 OFFCURVE",
"859 1323 CURVE SMOOTH",
"421 1323 LINE",
"396 1264 LINE",
"540 1230 LINE",
"67 92 LINE",
"-88 59 LINE",
"-113 0 LINE"
);
},
{
closed = 1;
nodes = (
"416 90 OFFCURVE",
"380 109 OFFCURVE",
"380 148 CURVE SMOOTH",
"380 158 OFFCURVE",
"383 173 OFFCURVE",
"391 193 CURVE SMOOTH",
"586 659 LINE",
"639 659 LINE SMOOTH",
"781 659 OFFCURVE",
"848 592 OFFCURVE",
"847 450 CURVE SMOOTH",
"846 236 OFFCURVE",
"701 90 OFFCURVE",
"490 90 CURVE SMOOTH"
);
},
{
closed = 1;
nodes = (
"824 1233 LINE",
"834 1233 LINE SMOOTH",
"975 1233 OFFCURVE",
"1047 1167 OFFCURVE",
"1047 1036 CURVE SMOOTH",
"1047 862 OFFCURVE",
"917 749 OFFCURVE",
"713 749 CURVE SMOOTH",
"623 749 LINE"
);
}
);
width = 1241;
}
);
leftKerningGroup = I;
leftMetricsKey = I;
rightKerningGroup = B;
unicode = 0042;
},
{
glyphname = C;
layers = (
{
anchors = (
{
name = bottom;
position = "{537, 0}";
},
{
name = topcap;
position = "{1150, 1427}";
}
);
guideLines = (
{
angle = 68;
position = "{1272, 772}";
}
);
layerId = master01;
paths = (
{
closed = 1;
nodes = (
"682 -18 OFFCURVE",
"800 25 OFFCURVE",
"936 133 CURVE",
"943 133 LINE",
"929 0 LINE",
"976 0 LINE",
"1166 504 LINE",
"1117 504 LINE",
"999 230 OFFCURVE",
"795 63 OFFCURVE",
"574 63 CURVE SMOOTH",
"400 63 OFFCURVE",
"312 168 OFFCURVE",
"312 376 CURVE SMOOTH",
"312 820 OFFCURVE",
"698 1265 OFFCURVE",
"1084 1265 CURVE SMOOTH",
"1218 1265 OFFCURVE",
"1280 1212 OFFCURVE",
"1280 1090 CURVE SMOOTH",
"1280 1045 OFFCURVE",
"1272 992 OFFCURVE",
"1254 928 CURVE",
"1304 928 LINE",
"1471 1323 LINE",
"1433 1323 LINE",
"1371 1267 LINE",
"1309 1313 OFFCURVE",
"1211 1341 OFFCURVE",
"1101 1341 CURVE SMOOTH",
"613 1341 OFFCURVE",
"123 853 OFFCURVE",
"123 366 CURVE SMOOTH",
"123 111 OFFCURVE",
"257 -18 OFFCURVE",
"527 -18 CURVE SMOOTH"
);
}
);
width = 1275;
},
{
anchors = (
{
name = bottom;
position = "{521, 0}";
},
{
name = topcap;
position = "{1134, 1427}";
}
);
background = {
paths = (
{
closed = 1;
nodes = (
"746 -18 OFFCURVE",
"888 33 OFFCURVE",
"1012 112 CURVE",
"1016 112 LINE",
"1018 0 LINE",
"1078 0 LINE",
"1286 531 LINE",
"1226 531 LINE",
"1071 241 OFFCURVE",
"838 76 OFFCURVE",
"653 76 CURVE SMOOTH",
"506 76 OFFCURVE",
"431 173 OFFCURVE",
"431 386 CURVE SMOOTH",
"431 847 OFFCURVE",
"730 1247 OFFCURVE",
"1090 1247 CURVE SMOOTH",
"1268 1247 OFFCURVE",
"1371 1149 OFFCURVE",
"1371 978 CURVE SMOOTH",
"1371 949 OFFCURVE",
"1369 925 OFFCURVE",
"1364 902 CURVE",
"1424 902 LINE",
"1596 1323 LINE",
"1536 1323 LINE",
"1431 1213 LINE",
"1338 1311 OFFCURVE",
"1225 1341 OFFCURVE",
"1086 1341 CURVE SMOOTH",
"577 1341 OFFCURVE",
"133 927 OFFCURVE",
"133 435 CURVE SMOOTH",
"133 147 OFFCURVE",
"295 -18 OFFCURVE",
"585 -18 CURVE SMOOTH"
);
}
);
};
layerId = "D3934E74-9B53-4E98-B19F-CD3DFEE08352";
paths = (
{
closed = 1;
nodes = (
"746 -18 OFFCURVE",
"888 33 OFFCURVE",
"1012 112 CURVE",
"1016 112 LINE",
"1018 0 LINE",
"1078 0 LINE",
"1286 531 LINE",
"1226 531 LINE",
"1071 241 OFFCURVE",
"838 76 OFFCURVE",
"653 76 CURVE SMOOTH",
"506 76 OFFCURVE",
"431 162 OFFCURVE",
"431 375 CURVE SMOOTH",
"431 837 OFFCURVE",
"757 1249 OFFCURVE",
"1096 1249 CURVE SMOOTH",
"1265 1249 OFFCURVE",
"1351 1150 OFFCURVE",
"1351 978 CURVE SMOOTH",
"1351 949 OFFCURVE",
"1349 925 OFFCURVE",
"1344 902 CURVE",
"1404 902 LINE",
"1576 1323 LINE",
"1516 1323 LINE",
"1443 1246 LINE",
"1356 1309 OFFCURVE",
"1227 1341 OFFCURVE",
"1092 1341 CURVE SMOOTH",
"604 1341 OFFCURVE",
"133 916 OFFCURVE",
"133 424 CURVE SMOOTH",
"133 136 OFFCURVE",
"295 -18 OFFCURVE",
"585 -18 CURVE SMOOTH"
);
}
);
width = 1367;
}
);
leftKerningGroup = C;
leftMetricsKey = O;
rightKerningGroup = C;
unicode = 0043;
},
{
glyphname = D;
layers = (
{
anchors = (
{
name = bottom;
position = "{441, 0}";
},
{
name = topcap;
position = "{991, 1427}";
}
);
layerId = master01;
paths = (
{
closed = 1;
nodes = (
"419 0 LINE SMOOTH",
"960 0 OFFCURVE",
"1346 405 OFFCURVE",
"1346 838 CURVE SMOOTH",
"1346 1162 OFFCURVE",
"1127 1323 OFFCURVE",
"787 1323 CURVE SMOOTH",
"433 1323 LINE",
"415 1284 LINE",
"550 1251 LINE",
"62 72 LINE",
"-97 39 LINE",
"-114 0 LINE"
);
},
{
closed = 1;
nodes = (
"321 72 OFFCURVE",
"288 90 OFFCURVE",
"288 138 CURVE SMOOTH",
"288 158 OFFCURVE",
"295 186 OFFCURVE",
"311 222 CURVE SMOOTH",
"738 1255 LINE",
"785 1255 LINE SMOOTH",
"1016 1255 OFFCURVE",
"1156 1140 OFFCURVE",
"1156 877 CURVE SMOOTH",
"1156 448 OFFCURVE",
"800 72 OFFCURVE",
"413 72 CURVE SMOOTH"
);
}
);
width = 1344;
},
{
anchors = (
{
name = bottom;
position = "{518, 0}";
},
{
name = topcap;
position = "{1068, 1427}";
}
);
layerId = "D3934E74-9B53-4E98-B19F-CD3DFEE08352";
paths = (
{
closed = 1;
nodes = (
"515 0 LINE",
"1095 0 OFFCURVE",
"1519 355 OFFCURVE",
"1519 811 CURVE SMOOTH",
"1519 1145 OFFCURVE",
"1300 1323 OFFCURVE",
"897 1323 CURVE SMOOTH",
"421 1323 LINE",
"396 1264 LINE",
"540 1230 LINE",
"67 92 LINE",
"-88 59 LINE",
"-113 0 LINE"
);
},
{
closed = 1;
nodes = (
"424 93 OFFCURVE",
"392 114 OFFCURVE",
"392 153 CURVE SMOOTH",
"392 165 OFFCURVE",
"395 180 OFFCURVE",
"402 196 CURVE SMOOTH",
"832 1228 LINE",
"907 1228 LINE SMOOTH",
"1103 1228 OFFCURVE",
"1222 1110 OFFCURVE",
"1222 863 CURVE SMOOTH",
"1222 453 OFFCURVE",
"899 93 OFFCURVE",
"487 93 CURVE SMOOTH"
);
}
);
width = 1510;
}
);
leftKerningGroup = I;
leftMetricsKey = I;
rightKerningGroup = D;
rightMetricsKey = O;
unicode = 0044;
},
{
glyphname = Eth;
layers = (
{
components = (
{
name = D;
transform = "{1, 0, 0, 1, 1, 0}";
}
);
layerId = master01;
paths = (
{
closed = 1;
nodes = (
"712 646 LINE",
"744 722 LINE",
"131 722 LINE",
"100 646 LINE"
);
}
);
width = 1345;
},
{
background = {
paths = (
{
closed = 1;
nodes = (
"747 646 LINE",
"779 722 LINE",
"166 722 LINE",
"135 646 LINE"
);
}
);
};
components = (
{
name = D;
transform = "{1, 0, 0, 1, 1, 0}";
}
);
layerId = "D3934E74-9B53-4E98-B19F-CD3DFEE08352";
paths = (
{
closed = 1;
nodes = (
"759 626 LINE",
"807 742 LINE",
"154 742 LINE",
"107 626 LINE"
);
}
);
width = 1511;
}
);
leftKerningGroup = I;
rightKerningGroup = D;
rightMetricsKey = D;
unicode = 00D0;
},
{
glyphname = Dcroat;
layers = (
{
background = {
components = (
{
name = D;
transform = "{1, 0, 0, 1, 5, 0}";
}
);
paths = (
{
closed = 1;
nodes = (
"746 646 LINE",
"778 722 LINE",
"165 722 LINE",
"134 646 LINE"
);
}
);
};
components = (
{
name = Eth;
}
);
layerId = master01;
width = 1345;
},
{
background = {
components = (
{
name = D;
}
);
paths = (
{
closed = 1;
nodes = (
"758 626 LINE",
"806 742 LINE",
"153 742 LINE",
"106 626 LINE"
);
}
);
};
components = (
{
name = Eth;
}
);
layerId = "D3934E74-9B53-4E98-B19F-CD3DFEE08352";
width = 1511;
}
);
leftKerningGroup = I;
leftMetricsKey = D;
rightKerningGroup = D;
rightMetricsKey = D;
unicode = 0110;
},
{
glyphname = E;
layers = (
{
anchors = (
{
name = bottom;
position = "{417, 0}";
},
{
name = topcap;
position = "{962, 1427}";
}
);
layerId = master01;
paths = (
{
closed = 1;
nodes = (
"933 0 LINE",
"1089 396 LINE",
"1039 396 LINE",
"974 287 OFFCURVE",
"897 177 OFFCURVE",
"804 68 CURVE",
"249 68 LINE",
"493 663 LINE",
"792 663 LINE",
"788 595 OFFCURVE",
"781 526 OFFCURVE",
"763 457 CURVE",
"813 457 LINE",
"1007 928 LINE",
"957 928 LINE",
"917 863 OFFCURVE",
"869 798 OFFCURVE",
"813 732 CURVE",
"524 732 LINE",
"737 1255 LINE",
"1125 1255 LINE",
"1175 1169 OFFCURVE",
"1204 1067 OFFCURVE",
"1225 945 CURVE",
"1272 945 LINE",
"1258 1323 LINE",
"433 1323 LINE",
"415 1284 LINE",
"550 1251 LINE",
"62 72 LINE",
"-97 39 LINE",
"-114 0 LINE"
);
}
);
width = 1212;
},
{
anchors = (
{
name = bottom;
position = "{526, 0}";
},
{
name = topcap;
position = "{971, 1427}";
}
);
background = {
paths = (
{
closed = 1;
nodes = (
"1002 0 LINE",
"1162 402 LINE",
"1102 402 LINE",
"1034 296 OFFCURVE",
"955 199 OFFCURVE",
"851 90 CURVE",
"358 90 LINE",
"592 654 LINE",
"788 654 LINE",
"806 590 OFFCURVE",
"811 523 OFFCURVE",
"803 459 CURVE",
"875 459 LINE",
"1075 940 LINE",
"1003 940 LINE",
"969 886 OFFCURVE",
"911 822 OFFCURVE",
"827 744 CURVE",
"630 744 LINE",
"834 1233 LINE",
"1147 1233 LINE",
"1200 1155 OFFCURVE",
"1244 1064 OFFCURVE",
"1282 945 CURVE",
"1342 945 LINE",
"1327 1323 LINE",
"421 1323 LINE",
"396 1264 LINE",
"540 1230 LINE",
"66 92 LINE",
"-89 59 LINE",
"-114 0 LINE"
);
}
);
};
guideLines = (
{
position = "{1084, 699}";
}
);
layerId = "D3934E74-9B53-4E98-B19F-CD3DFEE08352";
paths = (
{
closed = 1;
nodes = (
"1002 0 LINE",
"1162 402 LINE",
"1102 402 LINE",
"1036 299 OFFCURVE",
"958 202 OFFCURVE",
"851 90 CURVE",
"358 90 LINE",
"592 654 LINE",
"800 654 LINE",
"806 588 OFFCURVE",
"803 501 OFFCURVE",
"796 443 CURVE",
"868 443 LINE",
"1061 906 LINE",
"989 906 LINE",
"955 863 OFFCURVE",
"895 799 OFFCURVE",
"829 744 CURVE",
"630 744 LINE",
"834 1233 LINE",
"1147 1233 LINE",
"1202 1152 OFFCURVE",
"1245 1060 OFFCURVE",
"1282 945 CURVE",
"1342 945 LINE",
"1327 1323 LINE",
"421 1323 LINE",
"396 1264 LINE",
"540 1230 LINE",
"66 92 LINE",
"-89 59 LINE",
"-114 0 LINE"
);
}
);
width = 1271;
}
);
leftKerningGroup = I;
leftMetricsKey = I;
rightKerningGroup = E;
unicode = 0045;
},
{
glyphname = F;
layers = (
{
layerId = master01;
paths = (
{
closed = 1;
nodes = (
"433 0 LINE",
"450 39 LINE",
"249 68 LINE",
"484 643 LINE",
"783 643 LINE",
"780 574 OFFCURVE",
"773 505 OFFCURVE",
"754 437 CURVE",
"804 437 LINE",
"998 907 LINE",
"948 907 LINE",
"909 842 OFFCURVE",
"860 777 OFFCURVE",
"804 712 CURVE",
"515 712 LINE",
"737 1255 LINE",
"1139 1255 LINE",
"1179 1169 OFFCURVE",
"1208 1067 OFFCURVE",
"1225 945 CURVE",
"1272 945 LINE",
"1272 1323 LINE",
"433 1323 LINE",
"415 1284 LINE",
"550 1251 LINE",
"62 72 LINE",
"-97 39 LINE",
"-114 0 LINE"
);
}
);
width = 1073;
},
{
background = {
paths = (
{
closed = 1;
nodes = (
"519 0 LINE",
"544 59 LINE",
"359 92 LINE",
"586 639 LINE",
"782 639 LINE",
"800 576 OFFCURVE",
"805 509 OFFCURVE",
"797 445 CURVE",
"869 445 LINE",
"1069 926 LINE",
"997 926 LINE",
"963 872 OFFCURVE",
"905 808 OFFCURVE",
"821 732 CURVE",
"625 732 LINE",
"832 1229 LINE",
"1147 1229 LINE",
"1200 1155 OFFCURVE",
"1244 1064 OFFCURVE",
"1282 945 CURVE",
"1342 945 LINE",
"1327 1323 LINE",
"421 1323 LINE",
"396 1264 LINE",
"540 1230 LINE",
"66 92 LINE",
"-89 59 LINE",
"-114 0 LINE"
);
}
);
};
layerId = "D3934E74-9B53-4E98-B19F-CD3DFEE08352";
paths = (
{
closed = 1;
nodes = (
"519 0 LINE",
"544 59 LINE",
"359 92 LINE",
"586 640 LINE",
"782 640 LINE",
"800 576 OFFCURVE",
"805 509 OFFCURVE",
"797 445 CURVE",
"869 445 LINE",
"1069 926 LINE",
"997 926 LINE",
"963 872 OFFCURVE",
"905 808 OFFCURVE",
"821 730 CURVE",
"624 730 LINE",
"834 1233 LINE",
"1147 1233 LINE",
"1200 1155 OFFCURVE",
"1244 1064 OFFCURVE",
"1282 945 CURVE",
"1342 945 LINE",
"1327 1323 LINE",
"421 1323 LINE",
"396 1264 LINE",
"540 1230 LINE",
"66 92 LINE",
"-89 59 LINE",
"-114 0 LINE"
);
}
);
width = 1163;
}
);
leftKerningGroup = I;
leftMetricsKey = I;
rightKerningGroup = F;
unicode = 0046;
},
{
glyphname = G;
layers = (
{
anchors = (
{
name = bottom;
position = "{549, 0}";
},
{
name = topcap;
position = "{1151, 1427}";
}
);
background = {
paths = (
{
closed = 1;
nodes = (
"959 -18 OFFCURVE",
"1384 445 OFFCURVE",
"1384 913 CURVE SMOOTH",
"1384 1185 OFFCURVE",
"1239 1341 OFFCURVE",
"988 1341 CURVE SMOOTH",
"562 1341 OFFCURVE",
"136 873 OFFCURVE",
"136 405 CURVE SMOOTH",
"136 138 OFFCURVE",
"280 -18 OFFCURVE",
"529 -18 CURVE SMOOTH"
);
},
{
closed = 1;
nodes = (
"405 63 OFFCURVE",
"335 160 OFFCURVE",
"335 361 CURVE SMOOTH",
"335 803 OFFCURVE",
"663 1265 OFFCURVE",
"978 1265 CURVE SMOOTH",
"1122 1265 OFFCURVE",
"1193 1169 OFFCURVE",
"1193 971 CURVE SMOOTH",
"1193 524 OFFCURVE",
"870 63 OFFCURVE",
"555 63 CURVE SMOOTH"
);
}
);
};
guideLines = (
{
angle = 68;
position = "{1288, 750}";
}
);
layerId = master01;
paths = (
{
closed = 1;
nodes = (
"719 -18 OFFCURVE",
"882 24 OFFCURVE",
"1022 102 CURVE",
"1224 591 LINE",
"1389 624 LINE",
"1407 663 LINE",
"918 663 LINE",
"901 624 LINE",
"1043 591 LINE",
"912 273 LINE SMOOTH",
"850 124 OFFCURVE",
"760 59 OFFCURVE",
"614 59 CURVE SMOOTH",
"425 59 OFFCURVE",
"332 172 OFFCURVE",
"332 400 CURVE SMOOTH",
"332 848 OFFCURVE",
"688 1265 OFFCURVE",
"1068 1265 CURVE SMOOTH",
"1217 1265 OFFCURVE",
"1289 1201 OFFCURVE",
"1289 1067 CURVE SMOOTH",
"1289 1022 OFFCURVE",
"1281 973 OFFCURVE",
"1266 911 CURVE",
"1317 911 LINE",
"1486 1323 LINE",
"1445 1323 LINE",
"1357 1246 LINE",
"1281 1312 OFFCURVE",
"1195 1341 OFFCURVE",
"1075 1341 CURVE SMOOTH",
"606 1341 OFFCURVE",
"138 875 OFFCURVE",
"138 407 CURVE SMOOTH",
"138 138 OFFCURVE",
"298 -18 OFFCURVE",
"577 -18 CURVE SMOOTH"
);
}
);
width = 1371;
},
{
anchors = (
{
name = bottom;
position = "{609, 0}";
},
{
name = topcap;
position = "{1199, 1427}";
}
);
layerId = "D3934E74-9B53-4E98-B19F-CD3DFEE08352";
paths = (
{
closed = 1;
nodes = (
"824 -18 OFFCURVE",
"1054 44 OFFCURVE",
"1208 140 CURVE",
"1381 570 LINE",
"1536 604 LINE",
"1561 663 LINE",
"971 663 LINE",
"946 604 LINE",
"1090 570 LINE",
"972 276 LINE SMOOTH",
"923 154 OFFCURVE",
"803 76 OFFCURVE",
"663 76 CURVE SMOOTH",
"512 76 OFFCURVE",
"436 173 OFFCURVE",
"436 366 CURVE SMOOTH",
"436 840 OFFCURVE",
"750 1247 OFFCURVE",
"1115 1247 CURVE SMOOTH",
"1298 1247 OFFCURVE",
"1406 1144 OFFCURVE",
"1406 978 CURVE SMOOTH",
"1406 954 OFFCURVE",
"1404 929 OFFCURVE",
"1399 902 CURVE",
"1457 902 LINE",
"1632 1323 LINE",
"1571 1323 LINE",
"1456 1233 LINE",
"1356 1309 OFFCURVE",
"1254 1341 OFFCURVE",
"1111 1341 CURVE SMOOTH",
"597 1341 OFFCURVE",
"141 922 OFFCURVE",
"141 455 CURVE SMOOTH",
"141 144 OFFCURVE",
"303 -18 OFFCURVE",
"624 -18 CURVE SMOOTH"
);
}
);
width = 1515;
}
);
leftKerningGroup = C;
leftMetricsKey = O;
rightKerningGroup = G;
unicode = 0047;
},
{
glyphname = H;
layers = (
{
anchors = (
{
name = bottom;
position = "{537, 0}";
},
{
name = topcap;
position = "{1135, 1427}";
}
);
layerId = master01;
paths = (
{
closed = 1;
nodes = (
"1734 1323 LINE",
"1236 1323 LINE",
"1218 1284 LINE",
"1361 1251 LINE",
"1145 730 LINE",
"532 730 LINE",
"749 1251 LINE",
"914 1284 LINE",
"931 1323 LINE",
"433 1323 LINE",
"415 1284 LINE",
"558 1251 LINE",
"71 72 LINE",
"-96 39 LINE",
"-114 0 LINE",
"383 0 LINE",
"401 39 LINE",
"259 72 LINE",
"503 662 LINE",
"1115 662 LINE",
"871 72 LINE",
"704 39 LINE",
"687 0 LINE",
"1186 0 LINE",
"1202 39 LINE",
"1062 72 LINE",
"1552 1251 LINE",
"1719 1284 LINE"
);
}
);
width = 1445;
},
{
anchors = (
{
name = bottom;
position = "{588, 0}";
},
{
name = topcap;
position = "{1151, 1427}";
}
);
layerId = "D3934E74-9B53-4E98-B19F-CD3DFEE08352";
paths = (
{
closed = 1;
nodes = (
"1817 1323 LINE",
"1226 1323 LINE",
"1201 1264 LINE",
"1345 1230 LINE",
"1142 741 LINE",
"629 741 LINE",
"834 1230 LINE",
"989 1264 LINE",
"1014 1323 LINE",
"421 1323 LINE",
"396 1264 LINE",
"540 1230 LINE",
"68 92 LINE",
"-87 59 LINE",
"-112 0 LINE",
"481 0 LINE",
"506 59 LINE",
"361 92 LINE",
"592 651 LINE",
"1105 651 LINE",
"873 92 LINE",
"718 59 LINE",
"693 0 LINE",
"1285 0 LINE",
"1310 59 LINE",
"1165 92 LINE",
"1637 1230 LINE",
"1792 1264 LINE"
);
}
);
width = 1505;
}
);
leftKerningGroup = I;
leftMetricsKey = I;
rightKerningGroup = I;
rightMetricsKey = I;
unicode = 0048;
},
{
glyphname = Hbar;
layers = (
{
components = (
{
name = H;
}
);
layerId = master01;
paths = (
{
closed = 1;
nodes = (
"1578 945 LINE",
"1611 1021 LINE",
"309 1021 LINE",
"278 945 LINE"
);
}
);
width = 1446;
},
{
background = {
paths = (
{
closed = 1;
nodes = (
"1586 945 LINE",
"1619 1021 LINE",
"318 1021 LINE",
"287 945 LINE"
);
}
);
};
components = (
{
name = H;
}
);
layerId = "D3934E74-9B53-4E98-B19F-CD3DFEE08352";
paths = (
{
closed = 1;
nodes = (
"1648 925 LINE",
"1697 1041 LINE",
"306 1041 LINE",
"259 925 LINE"
);
}
);
width = 1535;
}
);
leftKerningGroup = I;
leftMetricsKey = H;
rightKerningGroup = I;
rightMetricsKey = H;
unicode = 0126;
},
{
glyphname = I;
layers = (
{
anchors = (
{
name = bottom;
position = "{139, 0}";
},
{
name = topcap;
position = "{752, 1427}";
}
);
layerId = master01;
paths = (
{
closed = 1;
nodes = (
"383 0 LINE",
"401 39 LINE",
"259 72 LINE",
"749 1251 LINE",
"914 1284 LINE",
"931 1323 LINE",
"433 1323 LINE",
"415 1284 LINE",
"558 1251 LINE",
"71 72 LINE",
"-96 39 LINE",
"-114 0 LINE"
);
}
);
width = 644;
},
{
anchors = (
{
name = bottom;
position = "{187, 0}";
},
{
name = topcap;
position = "{760, 1427}";
}
);
layerId = "D3934E74-9B53-4E98-B19F-CD3DFEE08352";
paths = (
{
closed = 1;
nodes = (
"480 0 LINE",
"505 59 LINE",
"360 93 LINE",
"833 1230 LINE",
"988 1263 LINE",
"1013 1323 LINE",
"421 1323 LINE",
"396 1264 LINE",
"540 1230 LINE",
"68 93 LINE",
"-87 60 LINE",
"-112 0 LINE"
);
}
);
width = 700;
}
);
leftKerningGroup = I;
rightKerningGroup = I;
unicode = 0049;
},
{
glyphname = J;
layers = (
{
anchors = (
{
name = topcap;
position = "{739, 1427}";
}
);
background = {
paths = (
{
closed = 1;
nodes = (
"-320 -402 OFFCURVE",
"-279 -361 OFFCURVE",
"-279 -311 CURVE SMOOTH",
"-279 -261 OFFCURVE",
"-320 -220 OFFCURVE",
"-370 -220 CURVE SMOOTH",
"-420 -220 OFFCURVE",
"-461 -261 OFFCURVE",
"-461 -311 CURVE SMOOTH",
"-461 -361 OFFCURVE",
"-420 -402 OFFCURVE",
"-370 -402 CURVE SMOOTH"
);
}
);
};
layerId = master01;
paths = (
{
closed = 1;
nodes = (
"-65 -440 OFFCURVE",
"114 -290 OFFCURVE",
"214 -47 CURVE SMOOTH",
"754 1251 LINE",
"919 1284 LINE",
"937 1323 LINE",
"438 1323 LINE",
"421 1284 LINE",
"564 1251 LINE",
"22 -47 LINE SMOOTH",
"-83 -296 OFFCURVE",
"-129 -371 OFFCURVE",
"-203 -371 CURVE SMOOTH",
"-316 -371 OFFCURVE",
"-248 -219 OFFCURVE",
"-370 -219 CURVE SMOOTH",
"-415 -219 OFFCURVE",
"-458 -249 OFFCURVE",
"-458 -305 CURVE SMOOTH",
"-458 -378 OFFCURVE",
"-379 -440 OFFCURVE",
"-253 -440 CURVE SMOOTH"
);
}
);
width = 666;
},
{
anchors = (
{
name = topcap;
position = "{777, 1427}";
}
);
background = {
paths = (
{
closed = 1;
nodes = (
"-373 -365 OFFCURVE",
"-321 -313 OFFCURVE",
"-321 -249 CURVE SMOOTH",
"-321 -186 OFFCURVE",
"-373 -134 OFFCURVE",
"-437 -134 CURVE SMOOTH",
"-500 -134 OFFCURVE",
"-552 -186 OFFCURVE",
"-552 -249 CURVE SMOOTH",
"-552 -313 OFFCURVE",
"-500 -365 OFFCURVE",
"-437 -365 CURVE SMOOTH"
);
}
);
};
layerId = "D3934E74-9B53-4E98-B19F-CD3DFEE08352";
paths = (
{
closed = 1;
nodes = (
"0 -440 OFFCURVE",
"225 -252 OFFCURVE",
"352 54 CURVE SMOOTH",
"840 1227 LINE",
"997 1260 LINE",
"1023 1323 LINE",
"442 1323 LINE",
"416 1260 LINE",
"547 1226 LINE",
"31 -15 LINE SMOOTH",
"-74 -268 OFFCURVE",
"-131 -347 OFFCURVE",
"-209 -347 CURVE SMOOTH",
"-335 -347 OFFCURVE",
"-275 -133 OFFCURVE",
"-428 -133 CURVE SMOOTH",
"-503 -133 OFFCURVE",
"-553 -183 OFFCURVE",
"-553 -250 CURVE SMOOTH",
"-553 -362 OFFCURVE",
"-415 -440 OFFCURVE",
"-252 -440 CURVE SMOOTH"
);
}
);
width = 742;
}
);
leftKerningGroup = J;
rightKerningGroup = J;
unicode = 004A;
},
{
glyphname = K;
layers = (
{
anchors = (
{
name = bottom;
position = "{484, 0}";
}
);
layerId = master01;
paths = (
{
closed = 1;
nodes = (
"738 1253 LINE",
"878 1284 LINE",
"895 1323 LINE",
"431 1323 LINE",
"415 1284 LINE",
"549 1251 LINE",
"58 72 LINE",
"-94 39 LINE",
"-109 0 LINE",
"435 0 LINE",
"451 39 LINE",
"247 72 LINE"
);
},
{
closed = 1;
nodes = (
"572 689 LINE",
"815 0 LINE",
"1117 0 LINE",
"1129 39 LINE",
"977 72 LINE",
"702 802 LINE"
);
},
{
closed = 1;
nodes = (
"386 511 LINE",
"1239 1185 LINE SMOOTH",
"1314 1244 OFFCURVE",
"1367 1269 OFFCURVE",
"1467 1275 CURVE",
"1492 1323 LINE",
"1024 1323 LINE",
"1009 1284 LINE",
"1092 1280 OFFCURVE",
"1128 1255 OFFCURVE",
"1128 1221 CURVE SMOOTH",
"1128 1196 OFFCURVE",
"1103 1167 OFFCURVE",
"1051 1126 CURVE SMOOTH",
"451 651 LINE"
);
}
);
width = 1276;
},
{
anchors = (
{
name = bottom;
position = "{675, 0}";
}
);
layerId = "D3934E74-9B53-4E98-B19F-CD3DFEE08352";
paths = (
{
closed = 1;
nodes = (
"813 1230 LINE",
"968 1264 LINE",
"993 1323 LINE",
"421 1323 LINE",
"396 1264 LINE",
"540 1230 LINE",
"66 92 LINE",
"-89 59 LINE",
"-114 0 LINE",
"500 0 LINE",
"525 59 LINE",
"339 92 LINE"
);
},
{
closed = 1;
nodes = (
"661 664 LINE",
"837 0 LINE",
"1217 0 LINE",
"1242 59 LINE",
"1096 92 LINE",
"860 835 LINE"
);
},
{
closed = 1;
nodes = (
"502 524 LINE",
"1357 1153 LINE SMOOTH",
"1478 1236 OFFCURVE",
"1517 1251 OFFCURVE",
"1652 1264 CURVE",
"1676 1323 LINE",
"1155 1323 LINE",
"1131 1264 LINE",
"1205 1259 OFFCURVE",
"1244 1243 OFFCURVE",
"1244 1218 CURVE SMOOTH",
"1244 1201 OFFCURVE",
"1228 1181 OFFCURVE",
"1196 1158 CURVE SMOOTH",
"545 676 LINE"
);
}
);
width = 1367;
}
);
leftKerningGroup = I;
leftMetricsKey = I;
rightKerningGroup = K;
unicode = 004B;
},
{
glyphname = L;
layers = (
{
anchors = (
{
name = bottom;
position = "{458, 0}";
},
{
name = middle;
position = "{830, 650}";
},
{
name = topcap;
position = "{702, 1427}";
}
);
layerId = master01;
paths = (
{
closed = 1;
nodes = (
"933 0 LINE",
"1098 416 LINE",
"1039 416 LINE",
"974 308 OFFCURVE",
"888 177 OFFCURVE",
"795 68 CURVE",
"249 68 LINE",
"733 1246 LINE",
"907 1284 LINE",
"924 1323 LINE",
"433 1323 LINE",
"415 1284 LINE",
"550 1251 LINE",
"62 72 LINE",
"-97 39 LINE",
"-114 0 LINE"
);
}
);
width = 1142;
},
{
anchors = (
{
name = bottom;
position = "{507, 0}";
},
{
name = middle;
position = "{917, 650}";
},
{
name = topcap;
position = "{729, 1427}";
}
);
background = {
paths = (
{
closed = 1;
nodes = (
"982 0 LINE",
"1148 416 LINE",
"1088 416 LINE",
"1014 296 OFFCURVE",
"935 199 OFFCURVE",
"831 94 CURVE",
"359 94 LINE",
"833 1230 LINE",
"988 1264 LINE",
"1013 1323 LINE",
"421 1323 LINE",
"396 1264 LINE",
"540 1230 LINE",
"66 92 LINE",
"-89 59 LINE",
"-114 0 LINE"
);
}
);
};
layerId = "D3934E74-9B53-4E98-B19F-CD3DFEE08352";
paths = (
{
closed = 1;
nodes = (
"982 0 LINE",
"1148 416 LINE",
"1088 416 LINE",
"1014 296 OFFCURVE",
"935 199 OFFCURVE",
"831 90 CURVE",
"357 90 LINE",
"833 1230 LINE",
"988 1264 LINE",
"1013 1323 LINE",
"421 1323 LINE",
"396 1264 LINE",
"540 1230 LINE",
"66 92 LINE",
"-89 59 LINE",
"-114 0 LINE"
);
}
);
width = 1181;
}
);
leftKerningGroup = I;
leftMetricsKey = I;
rightKerningGroup = L;
unicode = 004C;
},
{
glyphname = Lslash;
layers = (
{
background = {
paths = (
{
closed = 1;
nodes = (
"758 792 LINE",
"762 877 LINE",
"81 554 LINE",
"81 471 LINE"
);
}
);
};
components = (
{
name = L;
transform = "{1, 0, 0, 1, 11, 0}";
}
);
layerId = master01;
paths = (
{
closed = 1;
nodes = (
"395 620 LINE",
"456 610 LINE",
"778 762 LINE",
"782 847 LINE",
"466 697 LINE",
"406 708 LINE",
"81 554 LINE",
"81 471 LINE"
);
}
);
width = 1153;
},
{
background = {
paths = (
{
closed = 1;
nodes = (
"434 607 LINE",
"538 657 LINE",
"898 832 LINE",
"902 957 LINE",
"534 778 LINE",
"436 731 LINE",
"71 554 LINE",
"71 431 LINE"
);
}
);
};
components = (
{
name = L;
transform = "{1, 0, 0, 1, 27, 0}";
}
);
layerId = "D3934E74-9B53-4E98-B19F-CD3DFEE08352";
paths = (
{
closed = 1;
nodes = (
"434 607 LINE",
"568 617 LINE",
"928 792 LINE",
"932 917 LINE",
"564 738 LINE",
"436 731 LINE",
"71 554 LINE",
"71 431 LINE"
);
}
);
width = 1208;
}
);
leftKerningGroup = I;
rightKerningGroup = L;
rightMetricsKey = L;
unicode = 0141;
},
{
glyphname = M;
layers = (
{
background = {
paths = (
{
closed = 1;
nodes = (
"620 -18 LINE",
"1579 1221 LINE",
"1586 1221 LINE",
"1107 72 LINE",
"940 39 LINE",
"923 0 LINE",
"1410 0 LINE",
"1428 39 LINE",
"1287 72 LINE",
"1776 1251 LINE",
"1943 1284 LINE",
"1959 1323 LINE",
"1569 1323 LINE",
"750 264 LINE",
"744 264 LINE",
"884 1323 LINE",
"480 1323 LINE",
"464 1284 LINE",
"618 1251 LINE",
"15 72 LINE",
"-151 39 LINE",
"-169 0 LINE",
"222 0 LINE",
"238 39 LINE",
"98 72 LINE",
"672 1186 LINE",
"679 1186 LINE",
"529 -18 LINE"
);
}
);
};
layerId = master01;
paths = (
{
closed = 1;
nodes = (
"611 -18 LINE",
"1569 1221 LINE",
"1576 1221 LINE",
"1097 72 LINE",
"930 39 LINE",
"913 0 LINE",
"1400 0 LINE",
"1418 39 LINE",
"1277 72 LINE",
"1766 1251 LINE",
"1933 1284 LINE",
"1949 1323 LINE",
"1559 1323 LINE",
"740 264 LINE",
"734 264 LINE",
"874 1323 LINE",
"480 1323 LINE",
"464 1284 LINE",
"618 1251 LINE",
"15 72 LINE",
"-151 39 LINE",
"-169 0 LINE",
"222 0 LINE",
"238 39 LINE",
"98 72 LINE",
"672 1186 LINE",
"679 1186 LINE",
"529 -18 LINE"
);
}
);
width = 1671;
},
{
background = {
paths = (
{
closed = 1;
nodes = (
"1595 1323 LINE",
"849 422 LINE",
"843 422 LINE",
"900 1323 LINE",
"439 1323 LINE",
"414 1264 LINE",
"558 1230 LINE",
"-15 92 LINE",
"-169 59 LINE",
"-194 0 LINE",
"211 0 LINE",
"236 59 LINE",
"91 92 LINE",
"582 1067 LINE",
"589 1067 LINE",
"519 -18 LINE",
"607 -18 LINE",
"1510 1067 LINE",
"1517 1067 LINE",
"1109 92 LINE",
"955 59 LINE",
"930 0 LINE",
"1525 0 LINE",
"1550 59 LINE",
"1405 92 LINE",
"1869 1230 LINE",
"2024 1264 LINE",
"2049 1323 LINE"
);
}
);
};
guideLines = (
{
position = "{1123, 1067}";
}
);
layerId = "D3934E74-9B53-4E98-B19F-CD3DFEE08352";
paths = (
{
closed = 1;
nodes = (
"617 -18 LINE",
"1510 1067 LINE",
"1517 1067 LINE",
"1123 92 LINE",
"969 59 LINE",
"944 0 LINE",
"1513 0 LINE",
"1538 59 LINE",
"1393 92 LINE",
"1854 1230 LINE",
"2003 1264 LINE",
"2028 1323 LINE",
"1598 1323 LINE",
"849 413 LINE",
"833 413 LINE",
"876 1323 LINE",
"464 1323 LINE",
"439 1264 LINE",
"583 1230 LINE",
"10 92 LINE",
"-144 59 LINE",
"-169 0 LINE",
"236 0 LINE",
"261 59 LINE",
"116 92 LINE",
"607 1067 LINE",
"614 1067 LINE",
"561 -18 LINE"
);
}
);
width = 1773;
}
);
leftKerningGroup = M;
rightKerningGroup = I;
unicode = 004D;
userData = {
com.typemytype.robofont.guides = (
{
angle = 0;
isGlobal = 0;
magnetic = 5;
x = 0;
y = 23;
},
{
angle = 0;
isGlobal = 0;
magnetic = 5;
x = 0;
y = 728;
}
);
};
},
{
glyphname = N;
layers = (
{
anchors = (
{
name = bottom;
position = "{515, -18}";
},
{
name = topcap;
position = "{1128, 1427}";
}
);
background = {
paths = (
{
closed = 1;
nodes = (
"961 -18 LINE",
"1488 1251 LINE",
"1653 1284 LINE",
"1670 1323 LINE",
"1278 1323 LINE",
"1262 1284 LINE",
"1404 1251 LINE",
"1007 294 LINE",
"1000 294 LINE",
"770 1323 LINE",
"433 1323 LINE",
"415 1284 LINE",
"558 1251 LINE",
"70 72 LINE",
"-96 39 LINE",
"-114 0 LINE",
"277 0 LINE",
"293 39 LINE",
"153 72 LINE",
"615 1186 LINE",
"621 1186 LINE",
"900 -18 LINE"
);
}
);
};
layerId = master01;
paths = (
{
closed = 1;
nodes = (
"961 -18 LINE",
"1488 1251 LINE",
"1653 1284 LINE",
"1670 1323 LINE",
"1278 1323 LINE",
"1262 1284 LINE",
"1404 1251 LINE",
"1011 305 LINE",
"1004 305 LINE",
"770 1323 LINE",
"433 1323 LINE",
"415 1284 LINE",
"558 1251 LINE",
"70 72 LINE",
"-96 39 LINE",
"-114 0 LINE",
"277 0 LINE",
"293 39 LINE",
"153 72 LINE",
"611 1175 LINE",
"617 1175 LINE",
"900 -18 LINE"
);
}
);
width = 1389;
},
{
anchors = (
{
name = bottom;
position = "{553, -18}";
},
{
name = topcap;
position = "{1166, 1427}";
}
);
layerId = "D3934E74-9B53-4E98-B19F-CD3DFEE08352";
paths = (
{
closed = 1;
nodes = (
"983 -18 LINE",
"1510 1230 LINE",
"1665 1264 LINE",
"1690 1323 LINE",
"1283 1323 LINE",
"1258 1264 LINE",
"1402 1230 LINE",
"1057 401 LINE",
"1049 401 LINE",
"761 1323 LINE",
"421 1323 LINE",
"396 1264 LINE",
"540 1230 LINE",
"73 92 LINE",
"-81 59 LINE",
"-106 0 LINE",
"295 0 LINE",
"320 59 LINE",
"175 92 LINE",
"571 1042 LINE",
"576 1042 LINE",
"908 -18 LINE"
);
}
);
width = 1379;
}
);
leftKerningGroup = N;
leftMetricsKey = I;
rightKerningGroup = N;
unicode = 004E;
},
{
glyphname = Eng;
layers = (
{
components = (
{
name = N;
}
);
layerId = master01;
paths = (
{
closed = 1;
nodes = (
"678 -440 OFFCURVE",
"846 -292 OFFCURVE",
"948 -49 CURVE SMOOTH",
"961 -18 LINE",
"895 220 LINE",
"784 -47 LINE SMOOTH",
"678 -302 OFFCURVE",
"620 -371 OFFCURVE",
"541 -371 CURVE SMOOTH",
"438 -371 OFFCURVE",
"486 -219 OFFCURVE",
"374 -219 CURVE SMOOTH",
"329 -219 OFFCURVE",
"286 -249 OFFCURVE",
"286 -305 CURVE SMOOTH",
"286 -378 OFFCURVE",
"366 -440 OFFCURVE",
"492 -440 CURVE SMOOTH"
);
}
);
width = 1389;
},
{
background = {
paths = (
{
closed = 1;
nodes = (
"600 -440 OFFCURVE",
"778 -292 OFFCURVE",
"880 -49 CURVE SMOOTH",
"893 -18 LINE",
"817 220 LINE",
"706 -47 LINE SMOOTH",
"600 -302 OFFCURVE",
"542 -371 OFFCURVE",
"463 -371 CURVE SMOOTH",
"360 -371 OFFCURVE",
"408 -219 OFFCURVE",
"296 -219 CURVE SMOOTH",
"251 -219 OFFCURVE",
"208 -249 OFFCURVE",
"208 -305 CURVE SMOOTH",
"208 -378 OFFCURVE",
"288 -440 OFFCURVE",
"414 -440 CURVE SMOOTH"
);
}
);
};
components = (
{
name = N;
}
);
layerId = "D3934E74-9B53-4E98-B19F-CD3DFEE08352";
paths = (
{
closed = 1;
nodes = (
"680 -440 OFFCURVE",
"858 -316 OFFCURVE",
"983 -18 CURVE SMOOTH",
"1007 39 LINE",
"888 300 LINE",
"789 43 LINE SMOOTH",
"662 -288 OFFCURVE",
"586 -360 OFFCURVE",
"524 -360 CURVE SMOOTH",
"427 -360 OFFCURVE",
"494 -180 OFFCURVE",
"356 -180 CURVE SMOOTH",
"290 -180 OFFCURVE",
"253 -222 OFFCURVE",
"253 -274 CURVE SMOOTH",
"253 -375 OFFCURVE",
"388 -440 OFFCURVE",
"507 -440 CURVE SMOOTH"
);
}
);
width = 1379;
}
);
leftKerningGroup = N;
leftMetricsKey = N;
rightKerningGroup = N;
rightMetricsKey = N;
unicode = 014A;
},
{
glyphname = O;
layers = (
{
anchors = (
{
name = bottom;
position = "{506, 0}";
},
{
name = topcap;
position = "{1096, 1427}";
}
);
background = {
paths = (
{
closed = 1;
nodes = (
"1702 1323 LINE",
"1204 1323 LINE",
"1186 1284 LINE",
"1329 1251 LINE",
"1113 730 LINE",
"500 730 LINE",
"717 1251 LINE",
"882 1284 LINE",
"899 1323 LINE",
"401 1323 LINE",
"383 1284 LINE",
"526 1251 LINE",
"39 72 LINE",
"-128 39 LINE",
"-146 0 LINE",
"351 0 LINE",
"369 39 LINE",
"227 72 LINE",
"471 662 LINE",
"1083 662 LINE",
"839 72 LINE",
"672 39 LINE",
"655 0 LINE",
"1154 0 LINE",
"1170 39 LINE",
"1030 72 LINE",
"1520 1251 LINE",
"1687 1284 LINE"
);
}
);
};
guideLines = (
{
angle = 68;
position = "{786, 680}";
},
{
position = "{1216, 1265}";
}
);
layerId = master01;
paths = (
{
closed = 1;
nodes = (
"967 -18 OFFCURVE",
"1392 445 OFFCURVE",
"1392 913 CURVE SMOOTH",
"1392 1185 OFFCURVE",
"1247 1341 OFFCURVE",
"996 1341 CURVE SMOOTH",
"570 1341 OFFCURVE",
"144 873 OFFCURVE",
"144 405 CURVE SMOOTH",
"144 138 OFFCURVE",
"288 -18 OFFCURVE",
"537 -18 CURVE SMOOTH"
);
},
{
closed = 1;
nodes = (
"413 63 OFFCURVE",
"343 160 OFFCURVE",
"343 361 CURVE SMOOTH",
"343 803 OFFCURVE",
"671 1265 OFFCURVE",
"986 1265 CURVE SMOOTH",
"1130 1265 OFFCURVE",
"1201 1169 OFFCURVE",
"1201 971 CURVE SMOOTH",
"1201 524 OFFCURVE",
"878 63 OFFCURVE",
"563 63 CURVE SMOOTH"
);
}
);
width = 1366;
},
{
anchors = (
{
name = bottom;
position = "{567, 0}";
},
{
name = topcap;
position = "{1145, 1427}";
}
);
background = {
paths = (
{
closed = 1;
nodes = (
"1120 -18 OFFCURVE",
"1540 440 OFFCURVE",
"1540 890 CURVE SMOOTH",
"1540 1169 OFFCURVE",
"1367 1341 OFFCURVE",
"1062 1341 CURVE SMOOTH",
"559 1341 OFFCURVE",
"136 888 OFFCURVE",
"136 435 CURVE SMOOTH",
"136 159 OFFCURVE",
"302 -18 OFFCURVE",
"608 -18 CURVE SMOOTH"
);
},
{
closed = 1;
nodes = (
"503 76 OFFCURVE",
"433 174 OFFCURVE",
"433 366 CURVE SMOOTH",
"433 797 OFFCURVE",
"729 1247 OFFCURVE",
"1034 1247 CURVE SMOOTH",
"1172 1247 OFFCURVE",
"1243 1151 OFFCURVE",
"1243 960 CURVE SMOOTH",
"1243 524 OFFCURVE",
"949 76 OFFCURVE",
"644 76 CURVE SMOOTH"
);
}
);
};
layerId = "D3934E74-9B53-4E98-B19F-CD3DFEE08352";
paths = (
{
closed = 1;
nodes = (
"1120 -18 OFFCURVE",
"1540 440 OFFCURVE",
"1540 890 CURVE SMOOTH",
"1540 1169 OFFCURVE",
"1367 1341 OFFCURVE",
"1062 1341 CURVE SMOOTH",
"559 1341 OFFCURVE",
"136 888 OFFCURVE",
"136 435 CURVE SMOOTH",
"136 159 OFFCURVE",
"302 -18 OFFCURVE",
"608 -18 CURVE SMOOTH"
);
},
{
closed = 1;
nodes = (
"503 76 OFFCURVE",
"433 174 OFFCURVE",
"433 366 CURVE SMOOTH",
"433 797 OFFCURVE",
"729 1247 OFFCURVE",
"1034 1247 CURVE SMOOTH",
"1172 1247 OFFCURVE",
"1243 1151 OFFCURVE",
"1243 960 CURVE SMOOTH",
"1243 524 OFFCURVE",
"949 76 OFFCURVE",
"644 76 CURVE SMOOTH"
);
}
);
width = 1504;
}
);
leftKerningGroup = O;
rightKerningGroup = O;
unicode = 004F;
},
{
glyphname = Oslash;
layers = (
{
components = (
{
name = O;
}
);
layerId = master01;
paths = (
{
closed = 1;
nodes = (
"181 -256 LINE",
"1449 1528 LINE",
"1354 1528 LINE",
"90 -256 LINE"
);
}
);
width = 1366;
},
{
background = {
paths = (
{
closed = 1;
nodes = (
"181 -256 LINE",
"1449 1528 LINE",
"1354 1528 LINE",
"90 -256 LINE"
);
}
);
};
components = (
{
name = O;
}
);
layerId = "D3934E74-9B53-4E98-B19F-CD3DFEE08352";
paths = (
{
closed = 1;
nodes = (
"241 -256 LINE",
"1509 1528 LINE",
"1384 1528 LINE",
"120 -256 LINE"
);
}
);
width = 1504;
}
);
leftKerningGroup = O;
leftMetricsKey = O;
rightKerningGroup = O;
rightMetricsKey = O;
unicode = 00D8;
},
{
glyphname = Oslashacute;
layers = (
{
components = (
{
name = O;
}
);
layerId = master01;
paths = (
{
closed = 1;
nodes = (
"181 -256 LINE",
"1449 1528 LINE",
"1354 1528 LINE",
"90 -256 LINE"
);
},
{
closed = 1;
nodes = (
"1165 1479 LINE SMOOTH",
"1255 1504 OFFCURVE",
"1282 1536 OFFCURVE",
"1282 1576 CURVE SMOOTH",
"1282 1619 OFFCURVE",
"1246 1650 OFFCURVE",
"1208 1650 CURVE SMOOTH",
"1181 1650 OFFCURVE",
"1159 1641 OFFCURVE",
"1133 1622 CURVE SMOOTH",
"885 1438 LINE",
"904 1402 LINE"
);
}
);
width = 1366;
},
{
components = (
{
name = O;
}
);
layerId = "D3934E74-9B53-4E98-B19F-CD3DFEE08352";
paths = (
{
closed = 1;
nodes = (
"241 -256 LINE",
"1509 1528 LINE",
"1384 1528 LINE",
"120 -256 LINE"
);
},
{
closed = 1;
nodes = (
"1208 1469 LINE SMOOTH",
"1256 1478 OFFCURVE",
"1287 1516 OFFCURVE",
"1287 1566 CURVE SMOOTH",
"1287 1625 OFFCURVE",
"1243 1671 OFFCURVE",
"1184 1671 CURVE SMOOTH",
"1148 1671 OFFCURVE",
"1114 1653 OFFCURVE",
"1077 1624 CURVE SMOOTH",
"863 1454 LINE",
"897 1409 LINE"
);
}
);
width = 1504;
}
);
leftKerningGroup = O;
leftMetricsKey = O;
rightKerningGroup = O;
rightMetricsKey = O;
unicode = 01FE;
},
{
glyphname = OE;
layers = (
{
layerId = master01;
paths = (
{
closed = 1;
nodes = (
"622 -18 OFFCURVE",
"677 -12 OFFCURVE",
"734 0 CURVE",
"1650 0 LINE",
"1806 396 LINE",
"1756 396 LINE",
"1686 278 OFFCURVE",
"1607 170 OFFCURVE",
"1521 68 CURVE",
"966 68 LINE",
"1209 663 LINE",
"1509 663 LINE",
"1505 577 OFFCURVE",
"1496 514 OFFCURVE",
"1480 457 CURVE",
"1530 457 LINE",
"1724 928 LINE",
"1674 928 LINE",
"1634 863 OFFCURVE",
"1586 798 OFFCURVE",
"1530 732 CURVE",
"1241 732 LINE",
"1454 1255 LINE",
"1842 1255 LINE",
"1887 1174 OFFCURVE",
"1918 1078 OFFCURVE",
"1942 945 CURVE",
"1989 945 LINE",
"1975 1323 LINE",
"1225 1323 LINE",
"1181 1334 OFFCURVE",
"1132 1341 OFFCURVE",
"1074 1341 CURVE SMOOTH",
"596 1341 OFFCURVE",
"142 887 OFFCURVE",
"142 409 CURVE SMOOTH",
"142 140 OFFCURVE",
"299 -18 OFFCURVE",
"569 -18 CURVE SMOOTH"
);
},
{
closed = 1;
nodes = (
"422 63 OFFCURVE",
"342 161 OFFCURVE",
"342 364 CURVE SMOOTH",
"342 803 OFFCURVE",
"689 1265 OFFCURVE",
"1019 1265 CURVE SMOOTH",
"1117 1265 OFFCURVE",
"1184 1232 OFFCURVE",
"1227 1165 CURVE",
"763 111 LINE",
"713 79 OFFCURVE",
"657 63 OFFCURVE",
"591 63 CURVE SMOOTH"
);
}
);
width = 1929;
},
{
background = {
paths = (
{
closed = 1;
nodes = (
"1705 0 LINE",
"1865 402 LINE",
"1805 402 LINE",
"1739 299 OFFCURVE",
"1661 202 OFFCURVE",
"1554 90 CURVE",
"1061 90 LINE",
"1295 654 LINE",
"1503 654 LINE",
"1509 588 OFFCURVE",
"1506 501 OFFCURVE",
"1499 443 CURVE",
"1571 443 LINE",
"1764 906 LINE",
"1692 906 LINE",
"1658 863 OFFCURVE",
"1598 799 OFFCURVE",
"1532 744 CURVE",
"1333 744 LINE",
"1537 1233 LINE",
"1850 1233 LINE",
"1905 1152 OFFCURVE",
"1948 1060 OFFCURVE",
"1985 945 CURVE",
"2045 945 LINE",
"2030 1323 LINE",
"1124 1323 LINE",
"1099 1264 LINE",
"1243 1230 LINE",
"769 92 LINE",
"614 59 LINE",
"589 0 LINE"
);
}
);
};
layerId = "D3934E74-9B53-4E98-B19F-CD3DFEE08352";
paths = (
{
closed = 1;
nodes = (
"671 -18 OFFCURVE",
"730 -12 OFFCURVE",
"787 0 CURVE",
"1705 0 LINE",
"1865 402 LINE",
"1805 402 LINE",
"1737 296 OFFCURVE",
"1658 199 OFFCURVE",
"1554 90 CURVE",
"1081 90 LINE",
"1316 655 LINE",
"1502 655 LINE",
"1509 588 OFFCURVE",
"1507 499 OFFCURVE",
"1499 443 CURVE",
"1571 443 LINE",
"1764 906 LINE",
"1692 906 LINE",
"1658 863 OFFCURVE",
"1598 799 OFFCURVE",
"1530 744 CURVE",
"1353 744 LINE",
"1557 1233 LINE",
"1850 1233 LINE",
"1903 1155 OFFCURVE",
"1947 1064 OFFCURVE",
"1985 945 CURVE",
"2045 945 LINE",
"2030 1323 LINE",
"1224 1323 LINE",
"1176 1335 OFFCURVE",
"1123 1341 OFFCURVE",
"1065 1341 CURVE SMOOTH",
"562 1341 OFFCURVE",
"140 888 OFFCURVE",
"140 455 CURVE SMOOTH",
"140 159 OFFCURVE",
"305 -18 OFFCURVE",
"611 -18 CURVE SMOOTH"
);
},
{
closed = 1;
nodes = (
"505 76 OFFCURVE",
"433 174 OFFCURVE",
"433 366 CURVE SMOOTH",
"433 797 OFFCURVE",
"732 1247 OFFCURVE",
"1037 1247 CURVE SMOOTH",
"1126 1247 OFFCURVE",
"1188 1207 OFFCURVE",
"1220 1127 CURVE",
"822 169 LINE",
"774 110 OFFCURVE",
"705 76 OFFCURVE",
"631 76 CURVE SMOOTH"
);
}
);
width = 1974;
}
);
leftKerningGroup = O;
leftMetricsKey = O;
rightKerningGroup = E;
rightMetricsKey = E;
unicode = 0152;
},
{
glyphname = P;
layers = (
{
layerId = master01;
paths = (
{
closed = 1;
nodes = (
"435 0 LINE",
"451 39 LINE",
"247 72 LINE",
"456 586 LINE",
"625 586 LINE SMOOTH",
"993 586 OFFCURVE",
"1238 760 OFFCURVE",
"1238 1021 CURVE SMOOTH",
"1238 1212 OFFCURVE",
"1093 1323 OFFCURVE",
"843 1323 CURVE SMOOTH",
"431 1323 LINE",
"415 1284 LINE",
"549 1251 LINE",
"58 72 LINE",
"-94 39 LINE",
"-109 0 LINE"
);
},
{
closed = 1;
nodes = (
"738 1253 LINE",
"843 1253 LINE SMOOTH",
"984 1253 OFFCURVE",
"1060 1179 OFFCURVE",
"1060 1045 CURVE SMOOTH",
"1060 834 OFFCURVE",
"876 662 OFFCURVE",
"649 662 CURVE SMOOTH",
"489 662 LINE"
);
}
);
width = 1125;
},
{
background = {
paths = (
{
closed = 1;
nodes = (
"1240 -18 OFFCURVE",
"1660 440 OFFCURVE",
"1660 890 CURVE SMOOTH",
"1660 1169 OFFCURVE",
"1487 1341 OFFCURVE",
"1182 1341 CURVE SMOOTH",
"679 1341 OFFCURVE",
"256 888 OFFCURVE",
"256 435 CURVE SMOOTH",
"256 159 OFFCURVE",
"422 -18 OFFCURVE",
"728 -18 CURVE SMOOTH"
);
},
{
closed = 1;
nodes = (
"623 76 OFFCURVE",
"553 174 OFFCURVE",
"553 366 CURVE SMOOTH",
"553 797 OFFCURVE",
"849 1247 OFFCURVE",
"1154 1247 CURVE SMOOTH",
"1292 1247 OFFCURVE",
"1363 1151 OFFCURVE",
"1363 960 CURVE SMOOTH",
"1363 524 OFFCURVE",
"1069 76 OFFCURVE",
"764 76 CURVE SMOOTH"
);
}
);
};
layerId = "D3934E74-9B53-4E98-B19F-CD3DFEE08352";
paths = (
{
closed = 1;
nodes = (
"510 0 LINE",
"535 59 LINE",
"350 92 LINE",
"555 587 LINE",
"712 587 LINE SMOOTH",
"1104 587 OFFCURVE",
"1316 776 OFFCURVE",
"1316 1019 CURVE SMOOTH",
"1316 1210 OFFCURVE",
"1196 1323 OFFCURVE",
"888 1323 CURVE SMOOTH",
"421 1323 LINE",
"396 1264 LINE",
"540 1230 LINE",
"68 92 LINE",
"-87 59 LINE",
"-112 0 LINE"
);
},
{
closed = 1;
nodes = (
"823 1233 LINE",
"853 1233 LINE SMOOTH",
"972 1233 OFFCURVE",
"1036 1159 OFFCURVE",
"1036 1027 CURVE SMOOTH",
"1036 838 OFFCURVE",
"892 677 OFFCURVE",
"696 677 CURVE SMOOTH",
"592 677 LINE"
);
}
);
width = 1194;
}
);
leftKerningGroup = I;
leftMetricsKey = I;
rightKerningGroup = P;
unicode = 0050;
},
{
glyphname = Thorn;
layers = (
{
layerId = master01;
paths = (
{
closed = 1;
nodes = (
"498 0 LINE",
"515 39 LINE",
"311 72 LINE",
"402 287 LINE",
"571 287 LINE SMOOTH",
"938 287 OFFCURVE",
"1184 461 OFFCURVE",
"1184 722 CURVE SMOOTH",
"1184 913 OFFCURVE",
"1038 1024 OFFCURVE",
"789 1024 CURVE SMOOTH",
"713 1024 LINE",
"809 1251 LINE",
"960 1284 LINE",
"976 1323 LINE",
"433 1323 LINE",
"415 1284 LINE",
"621 1251 LINE",
"122 72 LINE",
"-30 39 LINE",
"-44 0 LINE"
);
},
{
closed = 1;
nodes = (
"684 954 LINE",
"789 954 LINE SMOOTH",
"930 954 OFFCURVE",
"1005 880 OFFCURVE",
"1005 746 CURVE SMOOTH",
"1005 534 OFFCURVE",
"822 362 OFFCURVE",
"594 362 CURVE SMOOTH",
"435 362 LINE"
);
}
);
width = 1205;
},
{
background = {
paths = (
{
closed = 1;
nodes = (
"551 0 LINE",
"576 59 LINE",
"391 92 LINE",
"468 277 LINE",
"679 277 LINE SMOOTH",
"1055 277 OFFCURVE",
"1308 455 OFFCURVE",
"1308 719 CURVE SMOOTH",
"1308 926 OFFCURVE",
"1154 1033 OFFCURVE",
"855 1033 CURVE SMOOTH",
"781 1033 LINE",
"863 1230 LINE",
"1018 1264 LINE",
"1043 1323 LINE",
"411 1323 LINE",
"386 1264 LINE",
"571 1230 LINE",
"99 92 LINE",
"-56 59 LINE",
"-81 0 LINE"
);
},
{
closed = 1;
nodes = (
"743 940 LINE",
"820 940 LINE SMOOTH",
"941 940 OFFCURVE",
"1003 867 OFFCURVE",
"1003 730 CURVE SMOOTH",
"1003 525 OFFCURVE",
"856 371 OFFCURVE",
"663 371 CURVE SMOOTH",
"507 371 LINE"
);
}
);
};
layerId = "D3934E74-9B53-4E98-B19F-CD3DFEE08352";
paths = (
{
closed = 1;
nodes = (
"551 0 LINE",
"576 59 LINE",
"391 92 LINE",
"468 277 LINE",
"679 277 LINE SMOOTH",
"1055 277 OFFCURVE",
"1283 455 OFFCURVE",
"1283 719 CURVE SMOOTH",
"1283 926 OFFCURVE",
"1154 1033 OFFCURVE",
"855 1033 CURVE SMOOTH",
"781 1033 LINE",
"863 1230 LINE",
"1018 1264 LINE",
"1043 1323 LINE",
"421 1323 LINE",
"396 1264 LINE",
"581 1230 LINE",
"109 92 LINE",
"-46 59 LINE",
"-71 0 LINE"
);
},
{
closed = 1;
nodes = (
"744 943 LINE",
"820 943 LINE SMOOTH",
"941 943 OFFCURVE",
"1003 867 OFFCURVE",
"1003 730 CURVE SMOOTH",
"1003 525 OFFCURVE",
"856 367 OFFCURVE",
"663 367 CURVE SMOOTH",
"505 367 LINE"
);
}
);
width = 1298;
}
);
leftKerningGroup = Thorn;
leftMetricsKey = I;
rightKerningGroup = Thorn;
unicode = 00DE;
},
{
glyphname = Q;
layers = (
{
layerId = master01;
paths = (
{
closed = 1;
nodes = (
"798 -391 OFFCURVE",
"924 -188 OFFCURVE",
"945 -108 CURVE",
"886 -108 LINE",
"840 -172 OFFCURVE",
"723 -219 OFFCURVE",
"572 -219 CURVE SMOOTH",
"470 -219 OFFCURVE",
"404 -197 OFFCURVE",
"339 -149 CURVE",
"743 14 LINE SMOOTH",
"1085 151 OFFCURVE",
"1392 514 OFFCURVE",
"1392 911 CURVE SMOOTH",
"1392 1185 OFFCURVE",
"1247 1341 OFFCURVE",
"999 1341 CURVE SMOOTH",
"570 1341 OFFCURVE",
"144 873 OFFCURVE",
"144 407 CURVE SMOOTH",
"144 156 OFFCURVE",
"267 11 OFFCURVE",
"477 -14 CURVE",
"477 -21 LINE",
"149 -154 LINE SMOOTH",
"72 -185 OFFCURVE",
"34 -222 OFFCURVE",
"34 -273 CURVE SMOOTH",
"34 -310 OFFCURVE",
"52 -346 OFFCURVE",
"99 -346 CURVE SMOOTH",
"138 -346 OFFCURVE",
"167 -318 OFFCURVE",
"167 -285 CURVE SMOOTH",
"167 -270 OFFCURVE",
"160 -254 OFFCURVE",
"160 -240 CURVE SMOOTH",
"160 -226 OFFCURVE",
"167 -217 OFFCURVE",
"199 -217 CURVE SMOOTH",
"341 -217 OFFCURVE",
"361 -391 OFFCURVE",
"572 -391 CURVE SMOOTH"
);
},
{
closed = 1;
nodes = (
"413 63 OFFCURVE",
"343 161 OFFCURVE",
"343 364 CURVE SMOOTH",
"343 803 OFFCURVE",
"671 1265 OFFCURVE",
"988 1265 CURVE SMOOTH",
"1132 1265 OFFCURVE",
"1201 1169 OFFCURVE",
"1201 966 CURVE SMOOTH",
"1201 524 OFFCURVE",
"877 63 OFFCURVE",
"560 63 CURVE SMOOTH"
);
}
);
width = 1365;
},
{
background = {
paths = (
{
closed = 0;
nodes = (
"727 -391 LINE SMOOTH",
"953 -391 OFFCURVE",
"1079 -188 OFFCURVE",
"1100 -108 CURVE",
"1041 -108 LINE",
"995 -172 OFFCURVE",
"878 -219 OFFCURVE",
"727 -219 CURVE SMOOTH"
);
}
);
};
layerId = "D3934E74-9B53-4E98-B19F-CD3DFEE08352";
paths = (
{
closed = 1;
nodes = (
"877 -404 OFFCURVE",
"1035 -286 OFFCURVE",
"1110 -108 CURVE",
"1040 -108 LINE",
"985 -170 OFFCURVE",
"883 -209 OFFCURVE",
"773 -209 CURVE SMOOTH",
"662 -209 OFFCURVE",
"544 -175 OFFCURVE",
"483 -126 CURVE",
"868 21 LINE SMOOTH",
"1268 174 OFFCURVE",
"1544 528 OFFCURVE",
"1544 890 CURVE SMOOTH",
"1544 1174 OFFCURVE",
"1367 1341 OFFCURVE",
"1067 1341 CURVE SMOOTH",
"590 1341 OFFCURVE",
"141 912 OFFCURVE",
"141 455 CURVE SMOOTH",
"141 193 OFFCURVE",
"269 32 OFFCURVE",
"515 -15 CURVE",
"515 -22 LINE",
"260 -121 LINE SMOOTH",
"100 -183 OFFCURVE",
"61 -215 OFFCURVE",
"61 -283 CURVE SMOOTH",
"61 -349 OFFCURVE",
"99 -385 OFFCURVE",
"159 -385 CURVE SMOOTH",
"220 -385 OFFCURVE",
"267 -347 OFFCURVE",
"267 -300 CURVE SMOOTH",
"267 -280 OFFCURVE",
"258 -258 OFFCURVE",
"258 -238 CURVE SMOOTH",
"258 -218 OFFCURVE",
"268 -206 OFFCURVE",
"293 -206 CURVE SMOOTH",
"398 -206 OFFCURVE",
"505 -404 OFFCURVE",
"717 -404 CURVE SMOOTH"
);
},
{
closed = 1;
nodes = (
"507 76 OFFCURVE",
"435 174 OFFCURVE",
"435 366 CURVE SMOOTH",
"435 804 OFFCURVE",
"739 1247 OFFCURVE",
"1039 1247 CURVE SMOOTH",
"1178 1247 OFFCURVE",
"1248 1150 OFFCURVE",
"1248 960 CURVE SMOOTH",
"1248 517 OFFCURVE",
"949 76 OFFCURVE",
"649 76 CURVE SMOOTH"
);
}
);
width = 1506;
}
);
leftKerningGroup = O;
leftMetricsKey = O;
rightKerningGroup = O;
rightMetricsKey = O;
unicode = 0051;
},
{
glyphname = R;
layers = (
{
anchors = (
{
name = bottom;
position = "{572, -18}";
},
{
name = topcap;
position = "{883, 1427}";
}
);
layerId = master01;
paths = (
{
closed = 1;
nodes = (
"435 0 LINE",
"451 39 LINE",
"247 72 LINE",
"465 608 LINE",
"598 608 LINE",
"799 0 LINE",
"1134 0 LINE",
"1146 39 LINE",
"961 72 LINE",
"764 617 LINE",
"1055 658 OFFCURVE",
"1233 818 OFFCURVE",
"1233 1043 CURVE SMOOTH",
"1233 1224 OFFCURVE",
"1109 1323 OFFCURVE",
"843 1323 CURVE SMOOTH",
"431 1323 LINE",
"415 1284 LINE",
"549 1251 LINE",
"58 72 LINE",
"-94 39 LINE",
"-109 0 LINE"
);
},
{
closed = 1;
nodes = (
"738 1253 LINE",
"843 1253 LINE SMOOTH",
"984 1253 OFFCURVE",
"1060 1179 OFFCURVE",
"1060 1045 CURVE SMOOTH",
"1060 849 OFFCURVE",
"876 684 OFFCURVE",
"657 684 CURVE SMOOTH",
"498 684 LINE"
);
}
);
width = 1233;
},
{
anchors = (
{
name = bottom;
position = "{643, -18}";
},
{
name = topcap;
position = "{949, 1427}";
}
);
background = {
paths = (
{
closed = 1;
nodes = (
"500 0 LINE",
"525 59 LINE",
"340 92 LINE",
"541 577 LINE",
"642 577 LINE",
"808 0 LINE",
"1214 0 LINE",
"1239 59 LINE",
"1054 92 LINE",
"903 604 LINE",
"1165 662 OFFCURVE",
"1311 814 OFFCURVE",
"1311 1016 CURVE SMOOTH",
"1311 1224 OFFCURVE",
"1160 1323 OFFCURVE",
"868 1323 CURVE SMOOTH",
"411 1323 LINE",
"386 1264 LINE",
"530 1230 LINE",
"58 92 LINE",
"-97 59 LINE",
"-122 0 LINE"
);
},
{
closed = 1;
nodes = (
"813 1233 LINE",
"843 1233 LINE SMOOTH",
"963 1233 OFFCURVE",
"1026 1157 OFFCURVE",
"1026 1027 CURVE SMOOTH",
"1026 828 OFFCURVE",
"878 668 OFFCURVE",
"682 668 CURVE SMOOTH",
"579 668 LINE"
);
}
);
};
layerId = "D3934E74-9B53-4E98-B19F-CD3DFEE08352";
paths = (
{
closed = 1;
nodes = (
"500 0 LINE",
"525 59 LINE",
"340 92 LINE",
"541 577 LINE",
"642 577 LINE",
"808 0 LINE",
"1214 0 LINE",
"1239 59 LINE",
"1054 92 LINE",
"903 604 LINE",
"1165 662 OFFCURVE",
"1311 814 OFFCURVE",
"1311 1016 CURVE SMOOTH",
"1311 1224 OFFCURVE",
"1160 1323 OFFCURVE",
"868 1323 CURVE SMOOTH",
"421 1323 LINE",
"396 1264 LINE",
"540 1230 LINE",
"68 92 LINE",
"-87 59 LINE",
"-112 0 LINE"
);
},
{
closed = 1;
nodes = (
"813 1233 LINE",
"843 1233 LINE SMOOTH",
"963 1233 OFFCURVE",
"1026 1157 OFFCURVE",
"1026 1027 CURVE SMOOTH",
"1026 828 OFFCURVE",
"878 668 OFFCURVE",
"682 668 CURVE SMOOTH",
"579 668 LINE"
);
}
);
width = 1304;
}
);
leftKerningGroup = I;
leftMetricsKey = I;
rightKerningGroup = R;
unicode = 0052;
},
{
glyphname = S;
layers = (
{
anchors = (
{
name = bottom;
position = "{310, 0}";
},
{
name = topcap;
position = "{817, 1427}";
}
);
guideLines = (
{
angle = 68;
position = "{258, 835}";
}
);
layerId = master01;
paths = (
{
closed = 1;
nodes = (
"625 -18 OFFCURVE",
"829 151 OFFCURVE",
"829 376 CURVE SMOOTH",
"829 491 OFFCURVE",
"786 572 OFFCURVE",
"631 753 CURVE SMOOTH",
"530 871 OFFCURVE",
"500 936 OFFCURVE",
"500 1015 CURVE SMOOTH",
"500 1167 OFFCURVE",
"590 1271 OFFCURVE",
"753 1271 CURVE SMOOTH",
"889 1271 OFFCURVE",
"963 1208 OFFCURVE",
"963 1095 CURVE SMOOTH",
"963 1054 OFFCURVE",
"953 988 OFFCURVE",
"941 945 CURVE",
"993 945 LINE",
"1140 1323 LINE",
"1085 1323 LINE",
"1006 1234 LINE",
"939 1308 OFFCURVE",
"858 1341 OFFCURVE",
"747 1341 CURVE SMOOTH",
"496 1341 OFFCURVE",
"319 1178 OFFCURVE",
"319 949 CURVE SMOOTH",
"319 790 OFFCURVE",
"405 697 OFFCURVE",
"488 607 CURVE SMOOTH",
"567 522 OFFCURVE",
"643 439 OFFCURVE",
"643 305 CURVE SMOOTH",
"643 147 OFFCURVE",
"537 52 OFFCURVE",
"362 52 CURVE SMOOTH",
"204 52 OFFCURVE",
"126 129 OFFCURVE",
"126 283 CURVE SMOOTH",
"126 332 OFFCURVE",
"133 387 OFFCURVE",
"148 448 CURVE",
"98 448 LINE",
"-83 0 LINE",
"-31 0 LINE",
"57 124 LINE",
"105 31 OFFCURVE",
"206 -18 OFFCURVE",
"351 -18 CURVE SMOOTH"
);
}
);
width = 972;
},
{
anchors = (
{
name = bottom;
position = "{402, 0}";
},
{
name = topcap;
position = "{889, 1427}";
}
);
background = {
paths = (
{
closed = 0;
nodes = (
"415 -18 LINE SMOOTH",
"280 -18 OFFCURVE",
"177 16 OFFCURVE",
"90 89 CURVE",
"-21 0 LINE",
"-81 0 LINE",
"89 421 LINE",
"159 421 LINE",
"123 198 OFFCURVE",
"196 76 OFFCURVE",
"368 76 CURVE SMOOTH"
);
}
);
};
layerId = "D3934E74-9B53-4E98-B19F-CD3DFEE08352";
paths = (
{
closed = 1;
nodes = (
"732 -16 OFFCURVE",
"977 163 OFFCURVE",
"977 402 CURVE SMOOTH",
"977 520 OFFCURVE",
"917 617 OFFCURVE",
"761 750 CURVE SMOOTH",
"635 858 OFFCURVE",
"583 923 OFFCURVE",
"583 1022 CURVE SMOOTH",
"583 1156 OFFCURVE",
"677 1247 OFFCURVE",
"819 1247 CURVE SMOOTH",
"958 1247 OFFCURVE",
"1032 1162 OFFCURVE",
"1032 1004 CURVE SMOOTH",
"1032 973 OFFCURVE",
"1029 939 OFFCURVE",
"1023 902 CURVE",
"1093 902 LINE",
"1263 1323 LINE",
"1203 1323 LINE",
"1092 1234 LINE",
"1005 1307 OFFCURVE",
"902 1341 OFFCURVE",
"771 1341 CURVE SMOOTH",
"493 1341 OFFCURVE",
"315 1192 OFFCURVE",
"315 967 CURVE SMOOTH",
"315 837 OFFCURVE",
"371 739 OFFCURVE",
"518 609 CURVE SMOOTH",
"654 489 OFFCURVE",
"696 425 OFFCURVE",
"696 336 CURVE SMOOTH",
"696 181 OFFCURVE",
"569 79 OFFCURVE",
"385 79 CURVE SMOOTH",
"226 79 OFFCURVE",
"153 150 OFFCURVE",
"153 305 CURVE SMOOTH",
"153 344 OFFCURVE",
"158 389 OFFCURVE",
"167 440 CURVE",
"97 440 LINE",
"-80 0 LINE",
"-20 0 LINE",
"91 89 LINE",
"177 15 OFFCURVE",
"272 -16 OFFCURVE",
"407 -16 CURVE SMOOTH"
);
}
);
width = 1097;
}
);
leftKerningGroup = S;
rightKerningGroup = S;
unicode = 0053;
},
{
glyphname = uni1E9E;
layers = (
{
layerId = master01;
paths = (
{
closed = 1;
nodes = (
"776 625 LINE",
"799 630 OFFCURVE",
"823 633 OFFCURVE",
"850 633 CURVE SMOOTH",
"989 633 OFFCURVE",
"1068 554 OFFCURVE",
"1068 416 CURVE SMOOTH",
"1068 223 OFFCURVE",
"923 59 OFFCURVE",
"765 59 CURVE SMOOTH",
"605 59 OFFCURVE",
"653 226 OFFCURVE",
"537 226 CURVE SMOOTH",
"481 226 OFFCURVE",
"447 189 OFFCURVE",
"447 136 CURVE SMOOTH",
"447 43 OFFCURVE",
"550 -18 OFFCURVE",
"701 -18 CURVE SMOOTH",
"1009 -18 OFFCURVE",
"1267 226 OFFCURVE",
"1267 481 CURVE SMOOTH",
"1267 674 OFFCURVE",
"1114 772 OFFCURVE",
"934 792 CURVE",
"912 761 LINE",
"1393 1232 LINE",
"1428 1323 LINE",
"1022 1323 LINE SMOOTH",
"651 1323 OFFCURVE",
"524 1190 OFFCURVE",
"362 795 CURVE SMOOTH",
"66 72 LINE",
"-101 39 LINE",
"-119 0 LINE",
"224 0 LINE",
"555 789 LINE SMOOTH",
"709 1155 OFFCURVE",
"838 1248 OFFCURVE",
"1030 1248 CURVE SMOOTH",
"1337 1248 LINE",
"1317 1269 LINE",
"787 741 LINE",
"814 783 LINE",
"754 640 LINE"
);
}
);
width = 1370;
},
{
background = {
paths = (
{
closed = 1;
nodes = (
"1817 1323 LINE",
"1226 1323 LINE",
"1201 1264 LINE",
"1345 1230 LINE",
"1142 741 LINE",
"629 741 LINE",
"834 1230 LINE",
"989 1264 LINE",
"1014 1323 LINE",
"421 1323 LINE",
"396 1264 LINE",
"540 1230 LINE",
"68 92 LINE",
"-87 59 LINE",
"-112 0 LINE",
"481 0 LINE",
"506 59 LINE",
"361 92 LINE",
"592 651 LINE",
"1105 651 LINE",
"873 92 LINE",
"718 59 LINE",
"693 0 LINE",
"1285 0 LINE",
"1310 59 LINE",
"1165 92 LINE",
"1637 1230 LINE",
"1792 1264 LINE"
);
}
);
};
layerId = "D3934E74-9B53-4E98-B19F-CD3DFEE08352";
paths = (
{
closed = 1;
nodes = (
"847 604 LINE",
"867 607 OFFCURVE",
"886 609 OFFCURVE",
"906 609 CURVE SMOOTH",
"1030 609 OFFCURVE",
"1107 534 OFFCURVE",
"1107 401 CURVE SMOOTH",
"1107 231 OFFCURVE",
"983 77 OFFCURVE",
"824 77 CURVE SMOOTH",
"659 77 OFFCURVE",
"734 250 OFFCURVE",
"600 250 CURVE SMOOTH",
"536 250 OFFCURVE",
"493 211 OFFCURVE",
"493 153 CURVE SMOOTH",
"493 47 OFFCURVE",
"636 -18 OFFCURVE",
"792 -18 CURVE SMOOTH",
"1102 -18 OFFCURVE",
"1376 236 OFFCURVE",
"1376 492 CURVE SMOOTH",
"1376 675 OFFCURVE",
"1238 795 OFFCURVE",
"1012 800 CURVE",
"991 755 LINE",
"1458 1232 LINE",
"1493 1323 LINE",
"1072 1323 LINE SMOOTH",
"701 1323 OFFCURVE",
"494 1187 OFFCURVE",
"334 792 CURVE SMOOTH",
"51 93 LINE",
"-104 60 LINE",
"-129 0 LINE",
"305 0 LINE",
"624 789 LINE SMOOTH",
"772 1156 OFFCURVE",
"929 1228 OFFCURVE",
"1121 1228 CURVE SMOOTH",
"1352 1228 LINE",
"1351 1269 LINE",
"838 744 LINE",
"897 851 LINE",
"812 634 LINE"
);
}
);
width = 1468;
}
);
leftKerningGroup = uni1E9E;
leftMetricsKey = H;
rightKerningGroup = uni1E9E;
unicode = 1E9E;
},
{
glyphname = Schwa;
layers = (
{
background = {
paths = (
{
closed = 1;
nodes = (
"791 -18 OFFCURVE",
"1216 445 OFFCURVE",
"1216 913 CURVE SMOOTH",
"1216 1185 OFFCURVE",
"1071 1341 OFFCURVE",
"820 1341 CURVE SMOOTH",
"394 1341 OFFCURVE",
"-32 873 OFFCURVE",
"-32 405 CURVE SMOOTH",
"-32 138 OFFCURVE",
"112 -18 OFFCURVE",
"361 -18 CURVE SMOOTH"
);
},
{
closed = 1;
nodes = (
"237 63 OFFCURVE",
"167 160 OFFCURVE",
"167 361 CURVE SMOOTH",
"167 803 OFFCURVE",
"495 1265 OFFCURVE",
"810 1265 CURVE SMOOTH",
"954 1265 OFFCURVE",
"1025 1169 OFFCURVE",
"1025 971 CURVE SMOOTH",
"1025 524 OFFCURVE",
"702 63 OFFCURVE",
"387 63 CURVE SMOOTH"
);
}
);
};
layerId = master01;
paths = (
{
closed = 1;
nodes = (
"667 -18 OFFCURVE",
"1214 552 OFFCURVE",
"1214 1007 CURVE SMOOTH",
"1214 1217 OFFCURVE",
"1107 1339 OFFCURVE",
"903 1339 CURVE SMOOTH",
"691 1339 OFFCURVE",
"480 1210 OFFCURVE",
"279 957 CURVE",
"342 920 LINE",
"503 1135 OFFCURVE",
"686 1255 OFFCURVE",
"865 1255 CURVE SMOOTH",
"992 1255 OFFCURVE",
"1044 1194 OFFCURVE",
"1044 1076 CURVE SMOOTH",
"1044 975 OFFCURVE",
"1002 813 OFFCURVE",
"937 651 CURVE",
"378 565 OFFCURVE",
"-5 361 OFFCURVE",
"-5 151 CURVE SMOOTH",
"-5 47 OFFCURVE",
"86 -18 OFFCURVE",
"233 -18 CURVE SMOOTH"
);
},
{
closed = 1;
nodes = (
"244 70 OFFCURVE",
"219 93 OFFCURVE",
"219 143 CURVE SMOOTH",
"219 310 OFFCURVE",
"531 507 OFFCURVE",
"882 570 CURVE",
"803 425 LINE SMOOTH",
"698 233 OFFCURVE",
"477 70 OFFCURVE",
"306 70 CURVE SMOOTH"
);
}
);
width = 1136;
},
{
layerId = "D3934E74-9B53-4E98-B19F-CD3DFEE08352";
paths = (
{
closed = 1;
nodes = (
"808 -18 OFFCURVE",
"1293 550 OFFCURVE",
"1293 991 CURVE SMOOTH",
"1293 1213 OFFCURVE",
"1160 1343 OFFCURVE",
"924 1343 CURVE SMOOTH",
"681 1343 OFFCURVE",
"475 1210 OFFCURVE",
"278 962 CURVE",
"359 912 LINE",
"522 1110 OFFCURVE",
"714 1249 OFFCURVE",
"872 1249 CURVE SMOOTH",
"973 1249 OFFCURVE",
"1021 1190 OFFCURVE",
"1021 1069 CURVE SMOOTH",
"1021 944 OFFCURVE",
"999 818 OFFCURVE",
"960 700 CURVE",
"401 613 OFFCURVE",
"-40 412 OFFCURVE",
"-40 177 CURVE SMOOTH",
"-40 65 OFFCURVE",
"61 -18 OFFCURVE",
"270 -18 CURVE SMOOTH"
);
},
{
closed = 1;
nodes = (
"288 76 OFFCURVE",
"238 120 OFFCURVE",
"238 187 CURVE SMOOTH",
"238 344 OFFCURVE",
"512 510 OFFCURVE",
"924 602 CURVE",
"923 599 LINE",
"799 302 OFFCURVE",
"575 76 OFFCURVE",
"376 76 CURVE SMOOTH"
);
}
);
width = 1210;
}
);
leftKerningGroup = Schwa;
rightKerningGroup = O;
rightMetricsKey = O;
unicode = 018F;
},
{
glyphname = T;
layers = (
{
anchors = (
{
name = bottom;
position = "{431, 0}";
},
{
name = topcap;
position = "{1013, 1427}";
}
);
layerId = master01;
paths = (
{
closed = 1;
nodes = (
"698 0 LINE",
"715 39 LINE",
"540 72 LINE",
"1029 1255 LINE",
"1336 1255 LINE",
"1361 1181 OFFCURVE",
"1368 1100 OFFCURVE",
"1368 1022 CURVE SMOOTH",
"1368 997 OFFCURVE",
"1368 970 OFFCURVE",
"1366 945 CURVE",
"1407 945 LINE",
"1500 1323 LINE",
"425 1323 LINE",
"204 945 LINE",
"246 945 LINE",
"319 1043 OFFCURVE",
"423 1156 OFFCURVE",
"536 1255 CURVE",
"842 1255 LINE",
"353 72 LINE",
"168 39 LINE",
"151 0 LINE"
);
}
);
width = 1213;
},
{
anchors = (
{
name = bottom;
position = "{531, 0}";
},
{
name = topcap;
position = "{1093, 1427}";
}
);
layerId = "D3934E74-9B53-4E98-B19F-CD3DFEE08352";
paths = (
{
closed = 1;
nodes = (
"802 0 LINE",
"827 59 LINE",
"663 92 LINE",
"1136 1229 LINE",
"1401 1229 LINE",
"1430 1150 OFFCURVE",
"1447 1058 OFFCURVE",
"1453 972 CURVE SMOOTH",
"1454 959 OFFCURVE",
"1455 943 OFFCURVE",
"1455 928 CURVE",
"1515 928 LINE",
"1612 1323 LINE",
"438 1323 LINE",
"207 928 LINE",
"267 928 LINE",
"351 1022 OFFCURVE",
"468 1135 OFFCURVE",
"581 1229 CURVE",
"844 1229 LINE",
"371 92 LINE",
"196 59 LINE",
"171 0 LINE"
);
}
);
width = 1348;
}
);
leftKerningGroup = T;
rightKerningGroup = T;
unicode = 0054;
},
{
glyphname = Tbar;
layers = (
{
components = (
{
name = T;
}
);
layerId = master01;
paths = (
{
closed = 1;
nodes = (
"1175 722 LINE",
"1208 798 LINE",
"302 798 LINE",
"271 722 LINE"
);
}
);
width = 1213;
},
{
background = {
paths = (
{
closed = 1;
nodes = (
"1201 722 LINE",
"1234 798 LINE",
"328 798 LINE",
"297 722 LINE"
);
}
);
};
components = (
{
name = T;
}
);
layerId = "D3934E74-9B53-4E98-B19F-CD3DFEE08352";
paths = (
{
closed = 1;
nodes = (
"1243 702 LINE",
"1292 818 LINE",
"346 818 LINE",
"299 702 LINE"
);
}
);
width = 1348;
}
);
leftKerningGroup = T;
leftMetricsKey = T;
rightKerningGroup = T;
rightMetricsKey = T;
unicode = 0166;
},
{
glyphname = U;
layers = (
{
anchors = (
{
name = bottom;
position = "{545, 0}";
},
{
name = topcap;
position = "{1135, 1427}";
}
);
layerId = master01;
paths = (
{
closed = 1;
nodes = (
"756 -18 OFFCURVE",
"942 63 OFFCURVE",
"1084 396 CURVE SMOOTH",
"1448 1251 LINE",
"1611 1284 LINE",
"1626 1323 LINE",
"1246 1323 LINE",
"1228 1284 LINE",
"1371 1251 LINE",
"1023 445 LINE SMOOTH",
"897 154 OFFCURVE",
"783 63 OFFCURVE",
"598 63 CURVE SMOOTH",
"432 63 OFFCURVE",
"351 124 OFFCURVE",
"351 247 CURVE SMOOTH",
"351 308 OFFCURVE",
"371 390 OFFCURVE",
"401 462 CURVE SMOOTH",
"729 1250 LINE",
"894 1284 LINE",
"911 1323 LINE",
"421 1323 LINE",
"406 1284 LINE",
"547 1251 LINE",
"249 550 LINE SMOOTH",
"200 434 OFFCURVE",
"175 335 OFFCURVE",
"175 258 CURVE SMOOTH",
"175 79 OFFCURVE",
"304 -18 OFFCURVE",
"547 -18 CURVE SMOOTH"
);
}
);
width = 1326;
},
{
anchors = (
{
name = bottom;
position = "{583, 0}";
},
{
name = topcap;
position = "{1163, 1427}";
}
);
background = {
paths = (
{
closed = 1;
nodes = (
"794 -18 OFFCURVE",
"980 63 OFFCURVE",
"1122 396 CURVE SMOOTH",
"1486 1251 LINE",
"1649 1284 LINE",
"1664 1323 LINE",
"1284 1323 LINE",
"1266 1284 LINE",
"1409 1251 LINE",
"1061 445 LINE SMOOTH",
"935 154 OFFCURVE",
"821 63 OFFCURVE",
"636 63 CURVE SMOOTH",
"470 63 OFFCURVE",
"389 124 OFFCURVE",
"389 247 CURVE SMOOTH",
"389 308 OFFCURVE",
"409 390 OFFCURVE",
"439 462 CURVE SMOOTH",
"767 1250 LINE",
"932 1284 LINE",
"949 1323 LINE",
"459 1323 LINE",
"444 1284 LINE",
"585 1251 LINE",
"287 550 LINE SMOOTH",
"238 434 OFFCURVE",
"213 335 OFFCURVE",
"213 258 CURVE SMOOTH",
"213 79 OFFCURVE",
"342 -18 OFFCURVE",
"585 -18 CURVE SMOOTH"
);
}
);
};
layerId = "D3934E74-9B53-4E98-B19F-CD3DFEE08352";
paths = (
{
closed = 1;
nodes = (
"857 -18 OFFCURVE",
"1022 120 OFFCURVE",
"1174 486 CURVE SMOOTH",
"1483 1230 LINE",
"1638 1264 LINE",
"1663 1323 LINE",
"1255 1323 LINE",
"1230 1264 LINE",
"1374 1230 LINE",
"1085 533 LINE SMOOTH",
"949 205 OFFCURVE",
"814 76 OFFCURVE",
"610 76 CURVE SMOOTH",
"490 76 OFFCURVE",
"431 124 OFFCURVE",
"431 218 CURVE SMOOTH",
"431 265 OFFCURVE",
"445 322 OFFCURVE",
"474 391 CURVE SMOOTH",
"822 1230 LINE",
"977 1264 LINE",
"1002 1323 LINE",
"411 1323 LINE",
"386 1264 LINE",
"530 1230 LINE",
"210 459 LINE SMOOTH",
"181 390 OFFCURVE",
"167 326 OFFCURVE",
"167 269 CURVE SMOOTH",
"167 90 OFFCURVE",
"304 -18 OFFCURVE",
"562 -18 CURVE SMOOTH"
);
}
);
width = 1362;
}
);
leftKerningGroup = U;
rightKerningGroup = U;
unicode = 0055;
},
{
glyphname = Uogonek;
layers = (
{
anchors = (
{
name = _bottom;
position = "{553, 0}";
}
);
background = {
paths = (
{
closed = 1;
nodes = (
"571 -440 OFFCURVE",
"651 -405 OFFCURVE",
"729 -340 CURVE {name = hr00;}",
"720 -310 LINE",
"667 -337 OFFCURVE",
"639 -346 OFFCURVE",
"608 -346 CURVE SMOOTH",
"565 -346 OFFCURVE",
"545 -330 OFFCURVE",
"545 -296 CURVE SMOOTH",
"545 -224 OFFCURVE",
"637 -110 OFFCURVE",
"776 0 CURVE",
"711 0 LINE",
"517 -102 OFFCURVE",
"379 -244 OFFCURVE",
"379 -351 CURVE SMOOTH",
"379 -409 OFFCURVE",
"420 -440 OFFCURVE",
"494 -440 CURVE SMOOTH"
);
}
);
};
components = (
{
alignment = -1;
name = U;
}
);
layerId = master01;
paths = (
{
closed = 1;
nodes = (
"559 -440 OFFCURVE",
"639 -405 OFFCURVE",
"717 -340 CURVE {name = hr00;}",
"708 -310 LINE",
"655 -337 OFFCURVE",
"627 -346 OFFCURVE",
"596 -346 CURVE SMOOTH",
"553 -346 OFFCURVE",
"533 -330 OFFCURVE",
"533 -296 CURVE SMOOTH",
"533 -224 OFFCURVE",
"659 -84 OFFCURVE",
"835 70 CURVE",
"699 9 LINE",
"495 -102 OFFCURVE",
"367 -244 OFFCURVE",
"367 -351 CURVE SMOOTH",
"367 -409 OFFCURVE",
"408 -440 OFFCURVE",
"482 -440 CURVE SMOOTH"
);
}
);
width = 1326;
},
{
anchors = (
{
name = _bottom;
position = "{553, 0}";
}
);
background = {
paths = (
{
closed = 1;
nodes = (
"637 -440 OFFCURVE",
"733 -399 OFFCURVE",
"827 -320 CURVE {name = hr00;}",
"818 -279 LINE",
"762 -307 OFFCURVE",
"729 -317 OFFCURVE",
"693 -317 CURVE SMOOTH",
"644 -317 OFFCURVE",
"618 -300 OFFCURVE",
"618 -267 CURVE SMOOTH",
"618 -211 OFFCURVE",
"698 -104 OFFCURVE",
"929 53 CURVE",
"780 0 LINE",
"543 -112 OFFCURVE",
"408 -224 OFFCURVE",
"408 -333 CURVE SMOOTH",
"408 -403 OFFCURVE",
"456 -440 OFFCURVE",
"546 -440 CURVE SMOOTH"
);
}
);
};
components = (
{
name = U;
}
);
layerId = "D3934E74-9B53-4E98-B19F-CD3DFEE08352";
paths = (
{
closed = 1;
nodes = (
"635 -440 OFFCURVE",
"731 -399 OFFCURVE",
"825 -320 CURVE {name = hr00;}",
"816 -279 LINE",
"760 -307 OFFCURVE",
"727 -317 OFFCURVE",
"691 -317 CURVE SMOOTH",
"642 -317 OFFCURVE",
"616 -290 OFFCURVE",
"616 -257 CURVE SMOOTH",
"616 -181 OFFCURVE",
"701 -84 OFFCURVE",
"889 72 CURVE",
"781 28 LINE",
"501 -92 OFFCURVE",
"406 -214 OFFCURVE",
"406 -308 CURVE SMOOTH",
"406 -386 OFFCURVE",
"461 -440 OFFCURVE",
"554 -440 CURVE SMOOTH"
);
}
);
width = 1362;
}
);
leftKerningGroup = U;
leftMetricsKey = U;
rightKerningGroup = U;
rightMetricsKey = U;
unicode = 0172;
},
{
glyphname = V;
layers = (
{
background = {
paths = (
{
closed = 1;
nodes = (
"454 -18 LINE",
"1323 1085 LINE SMOOTH",
"1427 1217 OFFCURVE",
"1485 1251 OFFCURVE",
"1648 1275 CURVE",
"1672 1323 LINE",
"1171 1323 LINE",
"1148 1275 LINE",
"1300 1256 OFFCURVE",
"1325 1202 OFFCURVE",
"1236 1088 CURVE SMOOTH",
"560 229 LINE",
"554 229 LINE",
"679 1143 LINE SMOOTH",
"693 1243 OFFCURVE",
"739 1273 OFFCURVE",
"881 1275 CURVE",
"904 1323 LINE",
"385 1323 LINE",
"361 1275 LINE",
"484 1268 OFFCURVE",
"515 1244 OFFCURVE",
"505 1165 CURVE SMOOTH",
"353 -18 LINE"
);
}
);
};
layerId = master01;
paths = (
{
closed = 1;
nodes = (
"434 -18 LINE",
"1303 1085 LINE SMOOTH",
"1407 1217 OFFCURVE",
"1469 1260 OFFCURVE",
"1632 1284 CURVE",
"1652 1323 LINE",
"1151 1323 LINE",
"1132 1284 LINE",
"1284 1265 OFFCURVE",
"1305 1202 OFFCURVE",
"1216 1088 CURVE SMOOTH",
"540 229 LINE",
"534 229 LINE",
"659 1143 LINE SMOOTH",
"673 1243 OFFCURVE",
"723 1282 OFFCURVE",
"865 1284 CURVE",
"884 1323 LINE",
"365 1323 LINE",
"345 1284 LINE",
"468 1277 OFFCURVE",
"495 1244 OFFCURVE",
"485 1165 CURVE SMOOTH",
"333 -18 LINE"
);
}
);
width = 1291;
},
{
background = {
paths = (
{
closed = 1;
nodes = (
"487 -18 LINE",
"1363 1069 LINE SMOOTH",
"1477 1210 OFFCURVE",
"1518 1235 OFFCURVE",
"1684 1260 CURVE",
"1710 1323 LINE",
"1164 1323 LINE",
"1138 1260 LINE",
"1308 1236 OFFCURVE",
"1329 1196 OFFCURVE",
"1232 1072 CURVE SMOOTH",
"669 355 LINE",
"662 355 LINE",
"773 1145 LINE SMOOTH",
"785 1227 OFFCURVE",
"814 1248 OFFCURVE",
"979 1260 CURVE",
"1005 1323 LINE",
"324 1323 LINE",
"298 1260 LINE",
"416 1251 OFFCURVE",
"448 1232 OFFCURVE",
"439 1155 CURVE SMOOTH",
"306 -18 LINE"
);
}
);
};
layerId = "D3934E74-9B53-4E98-B19F-CD3DFEE08352";
paths = (
{
closed = 1;
nodes = (
"439 -18 LINE",
"1318 1069 LINE SMOOTH",
"1432 1210 OFFCURVE",
"1473 1235 OFFCURVE",
"1641 1264 CURVE",
"1665 1323 LINE",
"1124 1323 LINE",
"1100 1264 LINE",
"1269 1236 OFFCURVE",
"1290 1195 OFFCURVE",
"1192 1072 CURVE SMOOTH",
"620 355 LINE",
"616 355 LINE",
"727 1145 LINE SMOOTH",
"739 1229 OFFCURVE",
"773 1248 OFFCURVE",
"935 1264 CURVE",
"959 1323 LINE",
"351 1323 LINE",
"327 1264 LINE",
"448 1250 OFFCURVE",
"476 1229 OFFCURVE",
"466 1155 CURVE SMOOTH",
"301 -18 LINE"
);
}
);
width = 1295;
}
);
leftKerningGroup = V;
rightKerningGroup = V;
unicode = 0056;
},
{
glyphname = W;
layers = (
{
anchors = (
{
name = topcap;
position = "{1267, 1427}";
}
);
background = {
paths = (
{
closed = 1;
nodes = (
"447 -18 LINE",
"1051 805 LINE",
"1022 814 LINE",
"915 -18 LINE",
"1031 -18 LINE",
"1845 1085 LINE SMOOTH",
"1942 1221 OFFCURVE",
"1991 1259 OFFCURVE",
"2140 1284 CURVE",
"2159 1323 LINE",
"1687 1323 LINE",
"1670 1284 LINE",
"1820 1263 OFFCURVE",
"1839 1218 OFFCURVE",
"1753 1088 CURVE SMOOTH",
"1129 229 LINE",
"1252 1143 LINE SMOOTH",
"1266 1249 OFFCURVE",
"1317 1282 OFFCURVE",
"1458 1284 CURVE",
"1477 1323 LINE",
"1000 1323 LINE",
"980 1284 LINE",
"1062 1277 OFFCURVE",
"1077 1246 OFFCURVE",
"1068 1165 CURVE SMOOTH",
"1034 904 LINE",
"542 230 LINE",
"668 1143 LINE SMOOTH",
"682 1250 OFFCURVE",
"723 1282 OFFCURVE",
"840 1284 CURVE",
"858 1323 LINE",
"363 1323 LINE",
"345 1284 LINE",
"472 1277 OFFCURVE",
"494 1254 OFFCURVE",
"484 1165 CURVE SMOOTH",
"331 -18 LINE"
);
}
);
};
layerId = master01;
paths = (
{
closed = 1;
nodes = (
"437 -18 LINE",
"1039 805 LINE",
"1012 814 LINE",
"905 -18 LINE",
"1011 -18 LINE",
"1825 1085 LINE SMOOTH",
"1924 1219 OFFCURVE",
"1971 1259 OFFCURVE",
"2120 1284 CURVE",
"2139 1323 LINE",
"1667 1323 LINE",
"1650 1284 LINE",
"1800 1263 OFFCURVE",
"1833 1214 OFFCURVE",
"1740 1088 CURVE SMOOTH",
"1106 228 LINE",
"1232 1143 LINE SMOOTH",
"1247 1249 OFFCURVE",
"1297 1282 OFFCURVE",
"1438 1284 CURVE",
"1457 1323 LINE",
"990 1323 LINE",
"970 1284 LINE",
"1052 1277 OFFCURVE",
"1069 1246 OFFCURVE",
"1058 1165 CURVE SMOOTH",
"1024 904 LINE",
"532 230 LINE",
"658 1143 LINE SMOOTH",
"673 1250 OFFCURVE",
"713 1282 OFFCURVE",
"830 1284 CURVE",
"848 1323 LINE",
"363 1323 LINE",
"345 1284 LINE",
"472 1277 OFFCURVE",
"494 1254 OFFCURVE",
"484 1165 CURVE SMOOTH",
"331 -18 LINE"
);
}
);
width = 1778;
},
{
anchors = (
{
name = topcap;
position = "{1344, 1427}";
}
);
guideLines = (
{
position = "{1066, 1284}";
}
);
layerId = "D3934E74-9B53-4E98-B19F-CD3DFEE08352";
paths = (
{
closed = 1;
nodes = (
"438 -18 LINE",
"1137 844 LINE",
"1124 853 LINE",
"1002 -18 LINE",
"1157 -18 LINE",
"1976 1069 LINE SMOOTH",
"2085 1213 OFFCURVE",
"2131 1235 OFFCURVE",
"2299 1264 CURVE",
"2323 1323 LINE",
"1805 1323 LINE",
"1781 1264 LINE",
"1930 1236 OFFCURVE",
"1947 1199 OFFCURVE",
"1853 1072 CURVE SMOOTH",
"1316 348 LINE",
"1428 1145 LINE SMOOTH",
"1440 1229 OFFCURVE",
"1474 1248 OFFCURVE",
"1616 1264 CURVE",
"1640 1323 LINE",
"1072 1323 LINE",
"1048 1264 LINE",
"1149 1250 OFFCURVE",
"1177 1229 OFFCURVE",
"1167 1155 CURVE SMOOTH",
"1146 1005 LINE",
"615 349 LINE",
"727 1145 LINE SMOOTH",
"739 1229 OFFCURVE",
"773 1248 OFFCURVE",
"915 1264 CURVE",
"939 1323 LINE",
"351 1323 LINE",
"327 1264 LINE",
"448 1250 OFFCURVE",
"476 1229 OFFCURVE",
"466 1155 CURVE SMOOTH",
"301 -18 LINE"
);
}
);
width = 1953;
}
);
leftKerningGroup = V;
leftMetricsKey = V;
rightKerningGroup = V;
rightMetricsKey = V;
unicode = 0057;
},
{
glyphname = X;
layers = (
{
background = {
paths = (
{
closed = 1;
nodes = (
"640 643 LINE",
"183 195 LINE SMOOTH",
"74 89 OFFCURVE",
"2 56 OFFCURVE",
"-127 39 CURVE",
"-143 0 LINE",
"283 0 LINE",
"299 39 LINE",
"178 39 OFFCURVE",
"177 84 OFFCURVE",
"297 204 CURVE SMOOTH",
"658 564 LINE"
);
},
{
closed = 1;
nodes = (
"796 668 LINE",
"1184 1036 LINE SMOOTH",
"1408 1249 OFFCURVE",
"1480 1278 OFFCURVE",
"1605 1284 CURVE",
"1623 1323 LINE",
"1085 1323 LINE",
"1067 1284 LINE",
"1229 1257 OFFCURVE",
"1244 1197 OFFCURVE",
"1115 1072 CURVE SMOOTH",
"776 745 LINE"
);
},
{
closed = 1;
nodes = (
"730 197 LINE SMOOTH",
"756 89 OFFCURVE",
"730 50 OFFCURVE",
"610 39 CURVE",
"594 0 LINE",
"1099 0 LINE",
"1118 41 LINE",
"983 56 OFFCURVE",
"951 89 OFFCURVE",
"929 183 CURVE SMOOTH",
"704 1126 LINE SMOOTH",
"678 1235 OFFCURVE",
"706 1264 OFFCURVE",
"848 1284 CURVE",
"864 1323 LINE",
"350 1323 LINE",
"332 1284 LINE",
"443 1264 OFFCURVE",
"479 1235 OFFCURVE",
"506 1124 CURVE SMOOTH"
);
}
);
};
guideLines = (
{
position = "{584, 39}";
},
{
position = "{1559, 1284}";
}
);
layerId = master01;
paths = (
{
closed = 1;
nodes = (
"792 680 LINE",
"1249 1128 LINE SMOOTH",
"1358 1234 OFFCURVE",
"1430 1267 OFFCURVE",
"1559 1284 CURVE",
"1575 1323 LINE",
"1149 1323 LINE",
"1133 1284 LINE",
"1254 1284 OFFCURVE",
"1255 1239 OFFCURVE",
"1135 1119 CURVE SMOOTH",
"774 759 LINE"
);
},
{
closed = 1;
nodes = (
"636 655 LINE",
"248 287 LINE SMOOTH",
"24 74 OFFCURVE",
"-48 45 OFFCURVE",
"-173 39 CURVE",
"-191 0 LINE",
"347 0 LINE",
"365 39 LINE",
"203 66 OFFCURVE",
"190 124 OFFCURVE",
"317 251 CURVE SMOOTH",
"656 578 LINE"
);
},
{
closed = 1;
nodes = (
"702 1126 LINE SMOOTH",
"676 1234 OFFCURVE",
"702 1273 OFFCURVE",
"822 1284 CURVE",
"838 1323 LINE",
"333 1323 LINE",
"314 1282 LINE",
"449 1267 OFFCURVE",
"481 1234 OFFCURVE",
"503 1140 CURVE SMOOTH",
"728 197 LINE SMOOTH",
"752 88 OFFCURVE",
"726 59 OFFCURVE",
"584 39 CURVE",
"568 0 LINE",
"1082 0 LINE",
"1100 39 LINE",
"989 59 OFFCURVE",
"953 88 OFFCURVE",
"926 199 CURVE SMOOTH"
);
}
);
width = 1253;
},
{
guideLines = (
{
position = "{621, 39}";
},
{
position = "{1596, 1284}";
}
);
layerId = "D3934E74-9B53-4E98-B19F-CD3DFEE08352";
paths = (
{
closed = 1;
nodes = (
"781 643 LINE",
"1221 1060 LINE SMOOTH",
"1377 1208 OFFCURVE",
"1444 1239 OFFCURVE",
"1604 1264 CURVE",
"1628 1323 LINE",
"1109 1323 LINE",
"1085 1264 LINE",
"1216 1239 OFFCURVE",
"1218 1196 OFFCURVE",
"1071 1056 CURVE SMOOTH",
"750 751 LINE"
);
},
{
closed = 1;
nodes = (
"634 659 LINE",
"228 265 LINE SMOOTH",
"75 116 OFFCURVE",
"1 84 OFFCURVE",
"-179 59 CURVE",
"-203 0 LINE",
"349 0 LINE",
"373 59 LINE",
"238 84 OFFCURVE",
"229 137 OFFCURVE",
"367 267 CURVE SMOOTH",
"670 553 LINE"
);
},
{
closed = 1;
nodes = (
"768 1103 LINE SMOOTH",
"736 1225 OFFCURVE",
"761 1250 OFFCURVE",
"903 1264 CURVE",
"927 1323 LINE",
"321 1323 LINE",
"297 1264 LINE",
"441 1250 OFFCURVE",
"469 1226 OFFCURVE",
"496 1121 CURVE SMOOTH",
"729 221 LINE SMOOTH",
"760 99 OFFCURVE",
"735 73 OFFCURVE",
"573 59 CURVE",
"549 0 LINE",
"1157 0 LINE",
"1181 59 LINE",
"1057 73 OFFCURVE",
"1029 97 OFFCURVE",
"1002 202 CURVE SMOOTH"
);
}
);
width = 1316;
}
);
leftKerningGroup = X;
rightKerningGroup = X;
unicode = 0058;
},
{
glyphname = Y;
layers = (
{
anchors = (
{
name = topcap;
position = "{1019, 1427}";
}
);
guideLines = (
{
angle = 68.9625;
position = "{1556, 1284}";
}
);
layerId = master01;
paths = (
{
closed = 1;
nodes = (
"670 0 LINE",
"687 39 LINE",
"518 72 LINE",
"763 665 LINE",
"697 559 LINE",
"1232 1097 LINE SMOOTH",
"1380 1246 OFFCURVE",
"1418 1271 OFFCURVE",
"1556 1284 CURVE",
"1571 1323 LINE",
"1103 1323 LINE",
"1088 1284 LINE",
"1242 1276 OFFCURVE",
"1271 1236 OFFCURVE",
"1174 1142 CURVE SMOOTH",
"680 645 LINE",
"707 632 LINE",
"650 1100 LINE SMOOTH",
"633 1242 OFFCURVE",
"659 1277 OFFCURVE",
"779 1284 CURVE",
"797 1323 LINE",
"321 1323 LINE",
"305 1284 LINE",
"425 1278 OFFCURVE",
"442 1257 OFFCURVE",
"459 1142 CURVE SMOOTH",
"550 540 LINE",
"556 626 LINE",
"326 72 LINE",
"159 39 LINE",
"142 0 LINE"
);
}
);
width = 1191;
},
{
anchors = (
{
name = topcap;
position = "{1098, 1427}";
}
);
background = {
paths = (
{
closed = 0;
nodes = (
"778 1103 LINE SMOOTH",
"748 1225 OFFCURVE",
"771 1250 OFFCURVE",
"913 1264 CURVE",
"937 1323 LINE",
"295 1323 LINE",
"271 1264 LINE",
"415 1250 OFFCURVE",
"444 1226 OFFCURVE",
"470 1121 CURVE SMOOTH"
);
},
{
closed = 0;
nodes = (
"1296 1060 LINE SMOOTH",
"1452 1205 OFFCURVE",
"1519 1239 OFFCURVE",
"1679 1264 CURVE",
"1703 1323 LINE",
"1177 1323 LINE",
"1153 1264 LINE",
"1284 1239 OFFCURVE",
"1286 1193 OFFCURVE",
"1139 1056 CURVE SMOOTH"
);
}
);
};
guideLines = (
{
angle = 68.9625;
position = "{1635, 1284}";
}
);
layerId = "D3934E74-9B53-4E98-B19F-CD3DFEE08352";
paths = (
{
closed = 1;
nodes = (
"732 0 LINE",
"758 63 LINE",
"629 100 LINE",
"844 616 LINE",
"763 532 LINE",
"1266 1059 LINE SMOOTH",
"1395 1195 OFFCURVE",
"1467 1235 OFFCURVE",
"1655 1264 CURVE",
"1681 1323 LINE",
"1156 1323 LINE",
"1130 1264 LINE",
"1262 1250 OFFCURVE",
"1262 1203 OFFCURVE",
"1131 1062 CURVE SMOOTH",
"814 722 LINE",
"801 722 LINE",
"749 1098 LINE SMOOTH",
"731 1227 OFFCURVE",
"749 1248 OFFCURVE",
"888 1264 CURVE",
"914 1323 LINE",
"312 1323 LINE",
"286 1264 LINE",
"441 1257 OFFCURVE",
"468 1238 OFFCURVE",
"483 1125 CURVE SMOOTH",
"564 532 LINE",
"572 666 LINE",
"336 100 LINE",
"175 63 LINE",
"149 0 LINE"
);
}
);
width = 1310;
}
);
leftKerningGroup = Y;
rightKerningGroup = Y;
unicode = 0059;
},
{
glyphname = Z;
layers = (
{
anchors = (
{
name = bottom;
position = "{449, 0}";
},
{
name = topcap;
position = "{973, 1427}";
}
);
background = {
anchors = (
{
name = bottom;
position = "{980, 1323}";
},
{
name = topcap;
position = "{456, -104}";
}
);
paths = (
{
closed = 1;
nodes = (
"498 1323 LINE",
"286 904 LINE",
"344 904 LINE",
"425 1018 OFFCURVE",
"530 1137 OFFCURVE",
"650 1251 CURVE",
"1186 1251 LINE",
"118 89 LINE",
"80 0 LINE",
"932 0 LINE",
"1138 373 LINE",
"1091 373 LINE",
"1014 273 OFFCURVE",
"908 161 OFFCURVE",
"796 68 CURVE",
"333 68 LINE",
"1408 1235 LINE",
"1446 1323 LINE"
);
}
);
};
layerId = master01;
paths = (
{
closed = 1;
nodes = (
"931 0 LINE",
"1143 419 LINE",
"1085 419 LINE",
"1004 305 OFFCURVE",
"899 186 OFFCURVE",
"779 72 CURVE",
"243 72 LINE",
"1311 1234 LINE",
"1349 1323 LINE",
"497 1323 LINE",
"291 950 LINE",
"338 950 LINE",
"415 1050 OFFCURVE",
"521 1162 OFFCURVE",
"633 1255 CURVE",
"1096 1255 LINE",
"21 88 LINE",
"-17 0 LINE"
);
}
);
width = 1243;
},
{
anchors = (
{
name = bottom;
position = "{469, 0}";
},
{
name = topcap;
position = "{993, 1427}";
}
);
background = {
paths = (
{
closed = 0;
nodes = (
"951 0 LINE",
"1111 402 LINE",
"1051 402 LINE",
"983 296 OFFCURVE",
"904 199 OFFCURVE",
"800 94 CURVE"
);
},
{
closed = 1;
nodes = (
"951 0 LINE",
"1179 450 LINE",
"1119 450 LINE",
"1027 322 OFFCURVE",
"921 204 OFFCURVE",
"800 94 CURVE",
"328 94 LINE",
"1389 1209 LINE",
"1435 1323 LINE",
"498 1323 LINE",
"270 913 LINE",
"330 913 LINE",
"434 1040 OFFCURVE",
"539 1144 OFFCURVE",
"649 1229 CURVE",
"1055 1229 LINE",
"-11 110 LINE",
"-55 0 LINE"
);
}
);
};
layerId = "D3934E74-9B53-4E98-B19F-CD3DFEE08352";
paths = (
{
closed = 1;
nodes = (
"950 0 LINE",
"1178 449 LINE",
"1120 449 LINE SMOOTH",
"1029 325 OFFCURVE",
"934 215 OFFCURVE",
"799 90 CURVE SMOOTH",
"324 90 LINE",
"1388 1210 LINE",
"1436 1323 LINE",
"497 1323 LINE",
"270 913 LINE",
"330 913 LINE SMOOTH",
"434 1040 OFFCURVE",
"537 1140 OFFCURVE",
"649 1233 CURVE SMOOTH",
"1058 1233 LINE",
"-11 110 LINE",
"-55 0 LINE"
);
}
);
width = 1261;
},
{
anchors = (
{
name = bottom;
position = "{469, 0}";
},
{
name = topcap;
position = "{993, 1427}";
}
);
associatedMasterId = "D3934E74-9B53-4E98-B19F-CD3DFEE08352";
background = {
paths = (
{
closed = 0;
nodes = (
"951 0 LINE",
"1111 402 LINE",
"1051 402 LINE",
"983 296 OFFCURVE",
"904 199 OFFCURVE",
"800 94 CURVE"
);
},
{
closed = 1;
nodes = (
"951 0 LINE",
"1179 450 LINE",
"1119 450 LINE",
"1027 322 OFFCURVE",
"921 204 OFFCURVE",
"800 94 CURVE",
"328 94 LINE",
"1389 1209 LINE",
"1435 1323 LINE",
"498 1323 LINE",
"270 913 LINE",
"330 913 LINE",
"434 1040 OFFCURVE",
"539 1144 OFFCURVE",
"649 1229 CURVE",
"1055 1229 LINE",
"-11 110 LINE",
"-55 0 LINE"
);
}
);
};
layerId = "747861B9-7182-4281-8EE8-82C3AAB3D81C";
name = "Apr 22 20, 11:07";
paths = (
{
closed = 1;
nodes = (
"951 0 LINE",
"1179 450 LINE",
"1119 450 LINE",
"1027 322 OFFCURVE",
"921 204 OFFCURVE",
"800 90 CURVE",
"324 90 LINE",
"1389 1209 LINE",
"1435 1323 LINE",
"498 1323 LINE",
"270 913 LINE",
"330 913 LINE",
"434 1040 OFFCURVE",
"539 1144 OFFCURVE",
"649 1233 CURVE",
"1059 1233 LINE",
"-11 110 LINE",
"-55 0 LINE"
);
},
{
closed = 0;
nodes = (
"4234 -2506 LINE"
);
}
);
width = 1261;
}
);
leftKerningGroup = Z;
rightKerningGroup = Z;
unicode = 005A;
},
{
glyphname = AE.001;
layers = (
{
background = {
paths = (
{
closed = 1;
nodes = (
"1065 1207 LINE",
"1104 1207 LINE",
"638 81 LINE",
"480 48 LINE",
"459 0 LINE",
"1506 0 LINE",
"1662 396 LINE",
"1613 396 LINE",
"1547 287 OFFCURVE",
"1470 177 OFFCURVE",
"1377 68 CURVE",
"822 68 LINE",
"1066 663 LINE",
"1365 663 LINE",
"1362 595 OFFCURVE",
"1355 526 OFFCURVE",
"1335 457 CURVE",
"1385 457 LINE",
"1579 928 LINE",
"1530 928 LINE",
"1491 863 OFFCURVE",
"1443 798 OFFCURVE",
"1385 732 CURVE",
"1097 732 LINE",
"1310 1255 LINE",
"1699 1255 LINE",
"1748 1169 OFFCURVE",
"1778 1067 OFFCURVE",
"1798 945 CURVE",
"1844 945 LINE",
"1830 1323 LINE",
"924 1323 LINE",
"906 1284 LINE",
"1065 1247 LINE"
);
},
{
closed = 1;
nodes = (
"850 555 LINE",
"489 555 LINE",
"433 487 LINE",
"824 487 LINE"
);
},
{
closed = 1;
nodes = (
"1069 1284 LINE",
"126 239 LINE SMOOTH",
"11 111 OFFCURVE",
"-36 72 OFFCURVE",
"-196 48 CURVE",
"-219 0 LINE",
"266 0 LINE",
"288 48 LINE",
"189 62 OFFCURVE",
"146 82 OFFCURVE",
"146 120 CURVE SMOOTH",
"146 147 OFFCURVE",
"164 176 OFFCURVE",
"220 235 CURVE SMOOTH",
"1141 1255 LINE"
);
}
);
};
layerId = master01;
paths = (
{
closed = 1;
nodes = (
"1065 1207 LINE",
"1104 1207 LINE",
"634 72 LINE",
"476 39 LINE",
"459 0 LINE",
"1506 0 LINE",
"1662 396 LINE",
"1613 396 LINE",
"1547 287 OFFCURVE",
"1470 177 OFFCURVE",
"1377 68 CURVE",
"822 68 LINE",
"1066 663 LINE",
"1365 663 LINE",
"1362 595 OFFCURVE",
"1355 526 OFFCURVE",
"1335 457 CURVE",
"1385 457 LINE",
"1579 928 LINE",
"1530 928 LINE",
"1491 863 OFFCURVE",
"1443 798 OFFCURVE",
"1385 732 CURVE",
"1097 732 LINE",
"1310 1255 LINE",
"1699 1255 LINE",
"1748 1169 OFFCURVE",
"1778 1067 OFFCURVE",
"1798 945 CURVE",
"1844 945 LINE",
"1830 1323 LINE",
"924 1323 LINE",
"906 1284 LINE",
"1065 1247 LINE"
);
},
{
closed = 1;
nodes = (
"850 555 LINE",
"489 555 LINE",
"433 487 LINE",
"824 487 LINE"
);
},
{
closed = 1;
nodes = (
"1069 1284 LINE",
"126 239 LINE SMOOTH",
"11 111 OFFCURVE",
"-40 63 OFFCURVE",
"-200 39 CURVE",
"-219 0 LINE",
"266 0 LINE",
"284 39 LINE",
"185 53 OFFCURVE",
"146 82 OFFCURVE",
"146 120 CURVE SMOOTH",
"146 147 OFFCURVE",
"164 176 OFFCURVE",
"220 235 CURVE SMOOTH",
"1141 1255 LINE"
);
}
);
width = 1785;
},
{
background = {
paths = (
{
closed = 1;
nodes = (
"1051 1206 LINE",
"1088 1206 LINE",
"624 92 LINE",
"469 59 LINE",
"444 0 LINE",
"1552 0 LINE",
"1712 402 LINE",
"1652 402 LINE",
"1584 296 OFFCURVE",
"1505 199 OFFCURVE",
"1401 94 CURVE",
"920 94 LINE",
"1152 653 LINE",
"1338 653 LINE",
"1356 590 OFFCURVE",
"1361 523 OFFCURVE",
"1353 459 CURVE",
"1425 459 LINE",
"1625 940 LINE",
"1553 940 LINE",
"1519 886 OFFCURVE",
"1461 822 OFFCURVE",
"1377 746 CURVE",
"1191 746 LINE",
"1392 1229 LINE",
"1697 1229 LINE",
"1750 1155 OFFCURVE",
"1794 1064 OFFCURVE",
"1832 945 CURVE",
"1892 945 LINE",
"1877 1323 LINE",
"906 1323 LINE",
"881 1264 LINE",
"1051 1237 LINE"
);
},
{
closed = 1;
nodes = (
"889 475 LINE",
"335 475 LINE",
"295 385 LINE",
"849 385 LINE"
);
},
{
closed = 1;
nodes = (
"1029 1298 LINE",
"124 254 LINE SMOOTH",
"-5 106 OFFCURVE",
"-33 89 OFFCURVE",
"-195 59 CURVE",
"-219 0 LINE",
"318 0 LINE",
"342 59 LINE",
"229 82 OFFCURVE",
"186 105 OFFCURVE",
"186 143 CURVE SMOOTH",
"186 168 OFFCURVE",
"204 201 OFFCURVE",
"247 251 CURVE SMOOTH",
"1127 1258 LINE"
);
}
);
};
layerId = "D3934E74-9B53-4E98-B19F-CD3DFEE08352";
paths = (
{
closed = 1;
nodes = (
"1051 1214 LINE",
"1101 1214 LINE",
"634 92 LINE",
"479 59 LINE",
"454 0 LINE",
"1550 0 LINE",
"1710 402 LINE",
"1650 402 LINE",
"1582 296 OFFCURVE",
"1503 199 OFFCURVE",
"1399 90 CURVE",
"906 90 LINE",
"1141 655 LINE",
"1336 655 LINE",
"1354 590 OFFCURVE",
"1359 523 OFFCURVE",
"1351 459 CURVE",
"1423 459 LINE",
"1623 940 LINE",
"1551 940 LINE",
"1517 886 OFFCURVE",
"1459 822 OFFCURVE",
"1375 745 CURVE",
"1179 745 LINE",
"1382 1233 LINE",
"1695 1233 LINE",
"1748 1155 OFFCURVE",
"1792 1064 OFFCURVE",
"1830 945 CURVE",
"1890 945 LINE",
"1875 1323 LINE",
"876 1323 LINE",
"851 1264 LINE",
"1051 1237 LINE"
);
},
{
closed = 1;
nodes = (
"889 475 LINE",
"335 475 LINE",
"295 385 LINE",
"849 385 LINE"
);
},
{
closed = 1;
nodes = (
"1029 1298 LINE",
"124 254 LINE SMOOTH",
"-5 106 OFFCURVE",
"-33 89 OFFCURVE",
"-195 59 CURVE",
"-219 0 LINE",
"318 0 LINE",
"342 59 LINE",
"229 82 OFFCURVE",
"186 105 OFFCURVE",
"186 143 CURVE SMOOTH",
"186 168 OFFCURVE",
"204 201 OFFCURVE",
"247 251 CURVE SMOOTH",
"1125 1258 LINE"
);
}
);
width = 1819;
}
);
leftMetricsKey = A;
rightKerningGroup = E;
rightMetricsKey = E;
},
{
glyphname = C.001;
layers = (
{
anchors = (
{
name = bottom;
position = "{537, 0}";
},
{
name = topcap;
position = "{1150, 1427}";
}
);
guideLines = (
{
angle = 68;
position = "{1241, 772}";
}
);
layerId = master01;
paths = (
{
closed = 1;
nodes = (
"682 -18 OFFCURVE",
"800 25 OFFCURVE",
"936 133 CURVE",
"943 133 LINE",
"929 0 LINE",
"976 0 LINE",
"1166 504 LINE",
"1117 504 LINE",
"999 230 OFFCURVE",
"795 63 OFFCURVE",
"574 63 CURVE SMOOTH",
"400 63 OFFCURVE",
"312 168 OFFCURVE",
"312 376 CURVE SMOOTH",
"312 820 OFFCURVE",
"698 1265 OFFCURVE",
"1084 1265 CURVE SMOOTH",
"1218 1265 OFFCURVE",
"1280 1212 OFFCURVE",
"1280 1090 CURVE SMOOTH",
"1280 1045 OFFCURVE",
"1272 992 OFFCURVE",
"1254 928 CURVE",
"1304 928 LINE",
"1471 1323 LINE",
"1433 1323 LINE",
"1371 1267 LINE",
"1309 1313 OFFCURVE",
"1211 1341 OFFCURVE",
"1101 1341 CURVE SMOOTH",
"613 1341 OFFCURVE",
"123 853 OFFCURVE",
"123 366 CURVE SMOOTH",
"123 111 OFFCURVE",
"257 -18 OFFCURVE",
"527 -18 CURVE SMOOTH"
);
}
);
width = 1275;
},
{
anchors = (
{
name = bottom;
position = "{528, 0}";
},
{
name = topcap;
position = "{1141, 1427}";
}
);
background = {
paths = (
{
closed = 1;
nodes = (
"753 -18 OFFCURVE",
"895 33 OFFCURVE",
"1029 122 CURVE",
"1033 122 LINE",
"1025 0 LINE",
"1085 0 LINE",
"1293 531 LINE",
"1233 531 LINE",
"1078 241 OFFCURVE",
"845 76 OFFCURVE",
"660 76 CURVE SMOOTH",
"513 76 OFFCURVE",
"438 173 OFFCURVE",
"438 386 CURVE SMOOTH",
"438 847 OFFCURVE",
"737 1247 OFFCURVE",
"1097 1247 CURVE SMOOTH",
"1275 1247 OFFCURVE",
"1378 1149 OFFCURVE",
"1378 978 CURVE SMOOTH",
"1378 949 OFFCURVE",
"1376 925 OFFCURVE",
"1371 902 CURVE",
"1431 902 LINE",
"1603 1323 LINE",
"1543 1323 LINE",
"1428 1233 LINE",
"1325 1311 OFFCURVE",
"1232 1341 OFFCURVE",
"1093 1341 CURVE SMOOTH",
"584 1341 OFFCURVE",
"140 927 OFFCURVE",
"140 435 CURVE SMOOTH",
"140 147 OFFCURVE",
"302 -18 OFFCURVE",
"592 -18 CURVE SMOOTH"
);
}
);
};
layerId = "D3934E74-9B53-4E98-B19F-CD3DFEE08352";
paths = (
{
closed = 1;
nodes = (
"753 -18 OFFCURVE",
"895 33 OFFCURVE",
"1019 112 CURVE",
"1023 112 LINE",
"1025 0 LINE",
"1085 0 LINE",
"1293 531 LINE",
"1233 531 LINE",
"1078 241 OFFCURVE",
"845 76 OFFCURVE",
"660 76 CURVE SMOOTH",
"513 76 OFFCURVE",
"438 173 OFFCURVE",
"438 386 CURVE SMOOTH",
"438 847 OFFCURVE",
"737 1247 OFFCURVE",
"1097 1247 CURVE SMOOTH",
"1275 1247 OFFCURVE",
"1378 1149 OFFCURVE",
"1378 978 CURVE SMOOTH",
"1378 949 OFFCURVE",
"1376 925 OFFCURVE",
"1371 902 CURVE",
"1431 902 LINE",
"1603 1323 LINE",
"1543 1323 LINE",
"1438 1213 LINE",
"1345 1311 OFFCURVE",
"1232 1341 OFFCURVE",
"1093 1341 CURVE SMOOTH",
"584 1341 OFFCURVE",
"140 927 OFFCURVE",
"140 435 CURVE SMOOTH",
"140 147 OFFCURVE",
"302 -18 OFFCURVE",
"592 -18 CURVE SMOOTH"
);
}
);
width = 1374;
}
);
leftKerningGroup = C;
leftMetricsKey = O;
rightKerningGroup = C;
},
{
glyphname = a;
layers = (
{
anchors = (
{
name = bottom;
position = "{627, 0}";
},
{
name = top;
position = "{771, 1119}";
}
);
background = {
paths = (
{
closed = 1;
nodes = (
"541 -18 OFFCURVE",
"865 337 OFFCURVE",
"865 646 CURVE SMOOTH",
"865 820 OFFCURVE",
"772 928 OFFCURVE",
"609 928 CURVE SMOOTH",
"324 928 OFFCURVE",
"2 572 OFFCURVE",
"2 267 CURVE SMOOTH",
"2 91 OFFCURVE",
"93 -18 OFFCURVE",
"256 -18 CURVE SMOOTH {name = hr00;}"
);
},
{
closed = 1;
nodes = (
"181 43 OFFCURVE",
"159 86 OFFCURVE",
"159 168 CURVE SMOOTH",
"159 437 OFFCURVE",
"448 868 OFFCURVE",
"629 868 CURVE SMOOTH",
"688 868 OFFCURVE",
"712 828 OFFCURVE",
"712 751 CURVE SMOOTH",
"712 497 OFFCURVE",
"408 43 OFFCURVE",
"236 43 CURVE SMOOTH"
);
}
);
};
layerId = master01;
paths = (
{
closed = 1;
nodes = (
"335 -18 OFFCURVE",
"439 65 OFFCURVE",
"573 262 CURVE",
"584 256 LINE",
"537 183 OFFCURVE",
"525 133 OFFCURVE",
"525 82 CURVE SMOOTH",
"525 16 OFFCURVE",
"563 -18 OFFCURVE",
"627 -18 CURVE SMOOTH",
"722 -18 OFFCURVE",
"833 62 OFFCURVE",
"953 213 CURVE",
"919 237 LINE",
"822 131 OFFCURVE",
"762 84 OFFCURVE",
"728 84 CURVE SMOOTH",
"695 84 OFFCURVE",
"687 111 OFFCURVE",
"718 188 CURVE SMOOTH",
"1013 911 LINE",
"838 911 LINE",
"810 848 LINE",
"769 906 OFFCURVE",
"731 928 OFFCURVE",
"668 928 CURVE SMOOTH",
"384 928 OFFCURVE",
"30 521 OFFCURVE",
"30 210 CURVE SMOOTH",
"30 67 OFFCURVE",
"102 -18 OFFCURVE",
"219 -18 CURVE SMOOTH"
);
},
{
closed = 1;
nodes = (
"206 43 OFFCURVE",
"188 74 OFFCURVE",
"188 143 CURVE SMOOTH",
"188 392 OFFCURVE",
"514 873 OFFCURVE",
"686 873 CURVE SMOOTH",
"731 873 OFFCURVE",
"765 841 OFFCURVE",
"765 787 CURVE SMOOTH",
"765 755 OFFCURVE",
"762 719 OFFCURVE",
"728 640 CURVE SMOOTH",
"589 314 OFFCURVE",
"369 43 OFFCURVE",
"252 43 CURVE SMOOTH"
);
}
);
width = 1034;
},
{
anchors = (
{
name = bottom;
position = "{698, 0}";
},
{
name = top;
position = "{822, 1119}";
}
);
background = {
paths = (
{
closed = 1;
nodes = (
"372 -18 OFFCURVE",
"479 69 OFFCURVE",
"630 285 CURVE",
"641 282 LINE",
"587 190 OFFCURVE",
"567 138 OFFCURVE",
"567 91 CURVE SMOOTH",
"567 19 OFFCURVE",
"613 -18 OFFCURVE",
"702 -18 CURVE SMOOTH",
"817 -18 OFFCURVE",
"917 47 OFFCURVE",
"1064 218 CURVE {name = hr03;}",
"1016 247 LINE",
"884 111 OFFCURVE",
"845 79 OFFCURVE",
"811 79 CURVE SMOOTH",
"791 79 OFFCURVE",
"785 94 OFFCURVE",
"795 117 CURVE SMOOTH",
"1122 911 LINE",
"870 911 LINE",
"842 848 LINE",
"796 904 OFFCURVE",
"739 928 OFFCURVE",
"653 928 CURVE SMOOTH",
"380 928 OFFCURVE",
"37 537 OFFCURVE",
"37 226 CURVE SMOOTH",
"37 75 OFFCURVE",
"121 -18 OFFCURVE",
"257 -18 CURVE SMOOTH"
);
},
{
closed = 1;
nodes = (
"300 63 OFFCURVE",
"283 96 OFFCURVE",
"283 150 CURVE SMOOTH",
"283 402 OFFCURVE",
"554 848 OFFCURVE",
"707 848 CURVE SMOOTH",
"758 848 OFFCURVE",
"786 819 OFFCURVE",
"786 766 CURVE SMOOTH",
"786 736 OFFCURVE",
"778 708 OFFCURVE",
"749 640 CURVE SMOOTH",
"630 364 OFFCURVE",
"410 63 OFFCURVE",
"328 63 CURVE SMOOTH"
);
}
);
};
layerId = "D3934E74-9B53-4E98-B19F-CD3DFEE08352";
paths = (
{
closed = 1;
nodes = (
"372 -18 OFFCURVE",
"479 69 OFFCURVE",
"620 285 CURVE",
"631 282 LINE",
"587 190 OFFCURVE",
"567 138 OFFCURVE",
"567 91 CURVE SMOOTH",
"567 19 OFFCURVE",
"613 -18 OFFCURVE",
"702 -18 CURVE SMOOTH",
"817 -18 OFFCURVE",
"917 47 OFFCURVE",
"1064 218 CURVE {name = hr03;}",
"1016 247 LINE",
"884 111 OFFCURVE",
"845 79 OFFCURVE",
"811 79 CURVE SMOOTH",
"791 79 OFFCURVE",
"785 94 OFFCURVE",
"795 117 CURVE SMOOTH",
"1122 911 LINE",
"870 911 LINE",
"842 848 LINE",
"796 904 OFFCURVE",
"739 928 OFFCURVE",
"653 928 CURVE SMOOTH",
"380 928 OFFCURVE",
"37 537 OFFCURVE",
"37 226 CURVE SMOOTH",
"37 75 OFFCURVE",
"121 -18 OFFCURVE",
"257 -18 CURVE SMOOTH"
);
},
{
closed = 1;
nodes = (
"300 63 OFFCURVE",
"283 96 OFFCURVE",
"283 150 CURVE SMOOTH",
"283 402 OFFCURVE",
"554 848 OFFCURVE",
"707 848 CURVE SMOOTH",
"758 848 OFFCURVE",
"786 819 OFFCURVE",
"786 766 CURVE SMOOTH",
"786 736 OFFCURVE",
"778 708 OFFCURVE",
"749 640 CURVE SMOOTH",
"630 364 OFFCURVE",
"410 63 OFFCURVE",
"328 63 CURVE SMOOTH"
);
}
);
width = 1133;
}
);
leftKerningGroup = a;
rightKerningGroup = i;
rightMetricsKey = u;
unicode = 0061;
},
{
glyphname = aogonek;
layers = (
{
components = (
{
alignment = -1;
name = a;
}
);
layerId = master01;
paths = (
{
closed = 1;
nodes = (
"511 -440 OFFCURVE",
"591 -405 OFFCURVE",
"669 -340 CURVE {name = hr00;}",
"660 -310 LINE",
"607 -337 OFFCURVE",
"579 -346 OFFCURVE",
"548 -346 CURVE SMOOTH",
"505 -346 OFFCURVE",
"485 -330 OFFCURVE",
"485 -296 CURVE SMOOTH",
"485 -224 OFFCURVE",
"611 -84 OFFCURVE",
"796 77 CURVE",
"651 0 LINE",
"447 -102 OFFCURVE",
"319 -244 OFFCURVE",
"319 -351 CURVE SMOOTH",
"319 -409 OFFCURVE",
"360 -440 OFFCURVE",
"434 -440 CURVE SMOOTH"
);
}
);
width = 1034;
},
{
components = (
{
name = a;
}
);
layerId = "D3934E74-9B53-4E98-B19F-CD3DFEE08352";
paths = (
{
closed = 1;
nodes = (
"665 -440 OFFCURVE",
"761 -399 OFFCURVE",
"855 -320 CURVE {name = hr00;}",
"846 -279 LINE",
"790 -307 OFFCURVE",
"757 -317 OFFCURVE",
"721 -317 CURVE SMOOTH",
"672 -317 OFFCURVE",
"646 -290 OFFCURVE",
"646 -257 CURVE SMOOTH",
"646 -181 OFFCURVE",
"731 -84 OFFCURVE",
"921 73 CURVE",
"818 26 LINE",
"531 -92 OFFCURVE",
"436 -214 OFFCURVE",
"436 -308 CURVE SMOOTH",
"436 -386 OFFCURVE",
"491 -440 OFFCURVE",
"584 -440 CURVE SMOOTH"
);
}
);
width = 1148;
}
);
leftKerningGroup = a;
leftMetricsKey = a;
rightKerningGroup = u;
rightMetricsKey = a;
unicode = 0105;
},
{
glyphname = ae;
layers = (
{
layerId = master01;
paths = (
{
closed = 1;
nodes = (
"334 -18 OFFCURVE",
"439 65 OFFCURVE",
"573 262 CURVE",
"583 256 LINE",
"582 246 OFFCURVE",
"582 235 OFFCURVE",
"582 215 CURVE SMOOTH",
"582 65 OFFCURVE",
"661 -18 OFFCURVE",
"799 -18 CURVE SMOOTH",
"946 -18 OFFCURVE",
"1093 74 OFFCURVE",
"1235 249 CURVE",
"1197 273 LINE",
"1095 138 OFFCURVE",
"949 43 OFFCURVE",
"842 43 CURVE SMOOTH",
"776 43 OFFCURVE",
"743 79 OFFCURVE",
"743 158 CURVE SMOOTH",
"743 237 OFFCURVE",
"776 340 OFFCURVE",
"841 462 CURVE",
"1184 522 OFFCURVE",
"1425 665 OFFCURVE",
"1425 810 CURVE SMOOTH",
"1425 882 OFFCURVE",
"1362 928 OFFCURVE",
"1265 928 CURVE SMOOTH",
"1173 928 OFFCURVE",
"1068 887 OFFCURVE",
"971 812 CURVE",
"1012 911 LINE",
"838 911 LINE {name = hr02;}",
"810 848 LINE",
"767 907 OFFCURVE",
"729 928 OFFCURVE",
"666 928 CURVE SMOOTH",
"387 928 OFFCURVE",
"30 524 OFFCURVE",
"30 208 CURVE SMOOTH {name = hr01;}",
"30 68 OFFCURVE",
"102 -18 OFFCURVE",
"218 -18 CURVE SMOOTH"
);
},
{
closed = 1;
nodes = (
"209 43 OFFCURVE",
"188 74 OFFCURVE",
"188 140 CURVE SMOOTH",
"188 396 OFFCURVE",
"512 873 OFFCURVE",
"688 873 CURVE SMOOTH",
"736 873 OFFCURVE",
"765 837 OFFCURVE",
"765 777 CURVE SMOOTH",
"765 742 OFFCURVE",
"753 702 OFFCURVE",
"727 640 CURVE SMOOTH",
"597 326 OFFCURVE",
"368 43 OFFCURVE",
"248 43 CURVE SMOOTH"
);
},
{
closed = 1;
nodes = (
"934 620 LINE SMOOTH",
"1012 769 OFFCURVE",
"1138 875 OFFCURVE",
"1233 875 CURVE SMOOTH",
"1270 875 OFFCURVE",
"1288 857 OFFCURVE",
"1288 823 CURVE SMOOTH",
"1288 705 OFFCURVE",
"1093 561 OFFCURVE",
"879 520 CURVE"
);
}
);
width = 1391;
},
{
background = {
paths = (
{
closed = 1;
nodes = (
"37 75 OFFCURVE",
"121 -18 OFFCURVE",
"257 -18 CURVE SMOOTH",
"372 -18 OFFCURVE",
"479 69 OFFCURVE",
"630 285 CURVE",
"641 282 LINE",
"610 71 OFFCURVE",
"741 -18 OFFCURVE",
"910 -18 CURVE SMOOTH",
"1066 -18 OFFCURVE",
"1206 67 OFFCURVE",
"1355 245 CURVE",
"1311 279 LINE",
"1172 128 OFFCURVE",
"1072 63 OFFCURVE",
"976 63 CURVE SMOOTH",
"913 63 OFFCURVE",
"878 108 OFFCURVE",
"878 187 CURVE SMOOTH",
"878 258 OFFCURVE",
"905 350 OFFCURVE",
"951 446 CURVE",
"1349 518 OFFCURVE",
"1550 629 OFFCURVE",
"1550 775 CURVE SMOOTH",
"1550 871 OFFCURVE",
"1465 928 OFFCURVE",
"1320 928 CURVE SMOOTH",
"1240 928 OFFCURVE",
"1144 883 OFFCURVE",
"1036 800 CURVE",
"1064 766 LINE",
"1122 911 LINE",
"870 911 LINE",
"842 848 LINE",
"796 904 OFFCURVE",
"739 928 OFFCURVE",
"653 928 CURVE SMOOTH",
"380 928 OFFCURVE",
"37 537 OFFCURVE",
"37 226 CURVE SMOOTH"
);
},
{
closed = 1;
nodes = (
"283 402 OFFCURVE",
"554 848 OFFCURVE",
"707 848 CURVE SMOOTH",
"758 848 OFFCURVE",
"786 819 OFFCURVE",
"786 766 CURVE SMOOTH",
"786 736 OFFCURVE",
"778 708 OFFCURVE",
"749 640 CURVE SMOOTH",
"631 364 OFFCURVE",
"410 63 OFFCURVE",
"328 63 CURVE SMOOTH",
"300 63 OFFCURVE",
"283 96 OFFCURVE",
"283 150 CURVE SMOOTH"
);
},
{
closed = 1;
nodes = (
"1008 549 LINE SMOOTH",
"1112 720 OFFCURVE",
"1215 848 OFFCURVE",
"1300 848 CURVE SMOOTH",
"1328 848 OFFCURVE",
"1343 834 OFFCURVE",
"1343 801 CURVE SMOOTH",
"1343 689 OFFCURVE",
"1171 551 OFFCURVE",
"985 511 CURVE"
);
}
);
};
layerId = "D3934E74-9B53-4E98-B19F-CD3DFEE08352";
paths = (
{
closed = 1;
nodes = (
"372 -18 OFFCURVE",
"479 69 OFFCURVE",
"620 285 CURVE",
"631 282 LINE",
"629 265 OFFCURVE",
"628 249 OFFCURVE",
"628 234 CURVE SMOOTH",
"628 84 OFFCURVE",
"712 -18 OFFCURVE",
"880 -18 CURVE SMOOTH",
"1036 -18 OFFCURVE",
"1176 67 OFFCURVE",
"1325 245 CURVE",
"1281 279 LINE",
"1142 128 OFFCURVE",
"1042 63 OFFCURVE",
"946 63 CURVE SMOOTH",
"883 63 OFFCURVE",
"848 108 OFFCURVE",
"848 187 CURVE SMOOTH",
"848 258 OFFCURVE",
"875 350 OFFCURVE",
"921 446 CURVE",
"1319 518 OFFCURVE",
"1520 629 OFFCURVE",
"1520 775 CURVE SMOOTH",
"1520 871 OFFCURVE",
"1435 928 OFFCURVE",
"1320 928 CURVE SMOOTH",
"1238 928 OFFCURVE",
"1152 898 OFFCURVE",
"1064 841 CURVE",
"1092 911 LINE",
"870 911 LINE",
"842 848 LINE",
"796 904 OFFCURVE",
"739 928 OFFCURVE",
"653 928 CURVE SMOOTH",
"380 928 OFFCURVE",
"37 537 OFFCURVE",
"37 226 CURVE SMOOTH",
"37 75 OFFCURVE",
"121 -18 OFFCURVE",
"257 -18 CURVE SMOOTH"
);
},
{
closed = 1;
nodes = (
"300 63 OFFCURVE",
"283 96 OFFCURVE",
"283 150 CURVE SMOOTH",
"283 402 OFFCURVE",
"554 848 OFFCURVE",
"707 848 CURVE SMOOTH",
"758 848 OFFCURVE",
"786 819 OFFCURVE",
"786 766 CURVE SMOOTH",
"786 736 OFFCURVE",
"778 708 OFFCURVE",
"749 640 CURVE SMOOTH",
"631 364 OFFCURVE",
"410 63 OFFCURVE",
"328 63 CURVE SMOOTH"
);
},
{
closed = 1;
nodes = (
"978 549 LINE SMOOTH",
"1082 720 OFFCURVE",
"1185 848 OFFCURVE",
"1270 848 CURVE SMOOTH",
"1298 848 OFFCURVE",
"1313 834 OFFCURVE",
"1313 801 CURVE SMOOTH",
"1313 689 OFFCURVE",
"1141 551 OFFCURVE",
"955 511 CURVE"
);
}
);
width = 1513;
}
);
leftKerningGroup = a;
leftMetricsKey = a;
rightKerningGroup = e;
rightMetricsKey = e;
unicode = 00E6;
},
{
glyphname = b;
layers = (
{
background = {
paths = (
{
closed = 1;
nodes = (
"575 -18 OFFCURVE",
"899 337 OFFCURVE",
"899 646 CURVE SMOOTH",
"899 820 OFFCURVE",
"806 928 OFFCURVE",
"643 928 CURVE SMOOTH",
"358 928 OFFCURVE",
"36 572 OFFCURVE",
"36 267 CURVE SMOOTH",
"36 91 OFFCURVE",
"127 -18 OFFCURVE",
"290 -18 CURVE SMOOTH {name = hr00;}"
);
},
{
closed = 1;
nodes = (
"215 43 OFFCURVE",
"193 86 OFFCURVE",
"193 168 CURVE SMOOTH",
"193 437 OFFCURVE",
"482 868 OFFCURVE",
"663 868 CURVE SMOOTH",
"722 868 OFFCURVE",
"746 828 OFFCURVE",
"746 751 CURVE SMOOTH",
"746 497 OFFCURVE",
"442 43 OFFCURVE",
"270 43 CURVE SMOOTH"
);
}
);
};
layerId = master01;
paths = (
{
closed = 1;
nodes = (
"594 -18 OFFCURVE",
"900 332 OFFCURVE",
"900 663 CURVE SMOOTH",
"900 834 OFFCURVE",
"816 928 OFFCURVE",
"687 928 CURVE SMOOTH",
"599 928 OFFCURVE",
"506 880 OFFCURVE",
"427 794 CURVE",
"420 794 LINE",
"662 1409 LINE",
"332 1409 LINE {name = hr00;}",
"339 1384 LINE",
"472 1363 LINE",
"90 428 LINE SMOOTH",
"59 353 OFFCURVE",
"45 283 OFFCURVE",
"45 226 CURVE SMOOTH",
"45 74 OFFCURVE",
"131 -18 OFFCURVE",
"291 -18 CURVE SMOOTH"
);
},
{
closed = 1;
nodes = (
"223 43 OFFCURVE",
"185 81 OFFCURVE",
"185 141 CURVE SMOOTH",
"185 246 OFFCURVE",
"264 434 OFFCURVE",
"311 533 CURVE SMOOTH",
"400 720 OFFCURVE",
"549 868 OFFCURVE",
"644 868 CURVE SMOOTH",
"699 868 OFFCURVE",
"734 806 OFFCURVE",
"734 715 CURVE SMOOTH",
"734 462 OFFCURVE",
"450 43 OFFCURVE",
"276 43 CURVE SMOOTH"
);
}
);
width = 948;
},
{
background = {
anchors = (
{
name = bottom;
position = "{337, 0}";
},
{
name = top;
position = "{789, 1119}";
}
);
paths = (
{
closed = 1;
nodes = (
"701 -18 OFFCURVE",
"1003 296 OFFCURVE",
"1003 622 CURVE SMOOTH",
"1003 817 OFFCURVE",
"886 928 OFFCURVE",
"691 928 CURVE SMOOTH",
"365 928 OFFCURVE",
"63 616 OFFCURVE",
"63 287 CURVE SMOOTH",
"63 92 OFFCURVE",
"180 -18 OFFCURVE",
"376 -18 CURVE SMOOTH {name = hr00;}"
);
},
{
closed = 1;
nodes = (
"324 63 OFFCURVE",
"301 108 OFFCURVE",
"301 180 CURVE SMOOTH",
"301 430 OFFCURVE",
"557 847 OFFCURVE",
"697 847 CURVE SMOOTH",
"743 847 OFFCURVE",
"765 802 OFFCURVE",
"765 730 CURVE SMOOTH",
"765 479 OFFCURVE",
"509 63 OFFCURVE",
"369 63 CURVE SMOOTH"
);
}
);
};
layerId = "D3934E74-9B53-4E98-B19F-CD3DFEE08352";
paths = (
{
closed = 1;
nodes = (
"677 -18 OFFCURVE",
"994 303 OFFCURVE",
"994 654 CURVE SMOOTH",
"994 834 OFFCURVE",
"909 927 OFFCURVE",
"779 927 CURVE SMOOTH",
"680 927 OFFCURVE",
"577 872 OFFCURVE",
"478 755 CURVE",
"467 758 LINE",
"751 1409 LINE",
"322 1409 LINE",
"328 1370 LINE",
"471 1348 LINE",
"104 485 LINE SMOOTH",
"66 395 OFFCURVE",
"47 313 OFFCURVE",
"47 243 CURVE SMOOTH",
"47 81 OFFCURVE",
"150 -18 OFFCURVE",
"345 -18 CURVE SMOOTH {name = hr00;}"
);
},
{
closed = 1;
nodes = (
"290 63 OFFCURVE",
"262 96 OFFCURVE",
"262 161 CURVE SMOOTH",
"262 234 OFFCURVE",
"297 357 OFFCURVE",
"345 455 CURVE SMOOTH",
"462 694 OFFCURVE",
"630 847 OFFCURVE",
"695 847 CURVE SMOOTH {name = hr02;}",
"736 847 OFFCURVE",
"755 814 OFFCURVE",
"755 741 CURVE SMOOTH",
"755 473 OFFCURVE",
"483 63 OFFCURVE",
"332 63 CURVE SMOOTH"
);
}
);
width = 1037;
}
);
rightKerningGroup = o;
rightMetricsKey = o;
unicode = 0062;
userData = {
com.typemytype.robofont.guides = (
{
angle = 0;
isGlobal = 0;
magnetic = 5;
x = 0;
y = 508;
}
);
};
},
{
glyphname = c;
layers = (
{
anchors = (
{
name = bottom;
position = "{272, 0}";
},
{
name = top;
position = "{762, 1119}";
}
);
background = {
paths = (
{
closed = 1;
nodes = (
"588 -18 OFFCURVE",
"912 337 OFFCURVE",
"912 646 CURVE SMOOTH",
"912 820 OFFCURVE",
"819 928 OFFCURVE",
"656 928 CURVE SMOOTH",
"371 928 OFFCURVE",
"49 572 OFFCURVE",
"49 267 CURVE SMOOTH",
"49 91 OFFCURVE",
"140 -18 OFFCURVE",
"303 -18 CURVE SMOOTH {name = hr00;}"
);
},
{
closed = 1;
nodes = (
"228 43 OFFCURVE",
"206 86 OFFCURVE",
"206 168 CURVE SMOOTH",
"206 437 OFFCURVE",
"495 868 OFFCURVE",
"676 868 CURVE SMOOTH",
"735 868 OFFCURVE",
"759 828 OFFCURVE",
"759 751 CURVE SMOOTH",
"759 497 OFFCURVE",
"455 43 OFFCURVE",
"283 43 CURVE SMOOTH"
);
}
);
};
layerId = master01;
paths = (
{
closed = 1;
nodes = (
"416 -18 OFFCURVE",
"573 75 OFFCURVE",
"723 251 CURVE",
"685 273 LINE",
"536 120 OFFCURVE",
"410 43 OFFCURVE",
"314 43 CURVE SMOOTH",
"240 43 OFFCURVE",
"213 84 OFFCURVE",
"213 170 CURVE SMOOTH",
"213 435 OFFCURVE",
"484 875 OFFCURVE",
"690 875 CURVE SMOOTH",
"733 875 OFFCURVE",
"754 849 OFFCURVE",
"764 785 CURVE SMOOTH",
"773 729 OFFCURVE",
"798 703 OFFCURVE",
"843 703 CURVE SMOOTH {name = hr01;}",
"888 703 OFFCURVE",
"919 730 OFFCURVE",
"919 771 CURVE SMOOTH",
"919 857 OFFCURVE",
"830 928 OFFCURVE",
"711 928 CURVE SMOOTH",
"597 928 OFFCURVE",
"453 871 OFFCURVE",
"330 775 CURVE SMOOTH",
"149 634 OFFCURVE",
"43 434 OFFCURVE",
"43 246 CURVE SMOOTH",
"43 74 OFFCURVE",
"118 -18 OFFCURVE",
"265 -18 CURVE SMOOTH"
);
}
);
width = 868;
},
{
anchors = (
{
name = bottom;
position = "{302, 0}";
},
{
name = top;
position = "{772, 1119}";
}
);
background = {
paths = (
{
closed = 1;
nodes = (
"481 -18 OFFCURVE",
"621 67 OFFCURVE",
"770 245 CURVE",
"726 279 LINE",
"587 128 OFFCURVE",
"487 63 OFFCURVE",
"391 63 CURVE SMOOTH",
"328 63 OFFCURVE",
"293 108 OFFCURVE",
"293 187 CURVE SMOOTH",
"293 258 OFFCURVE",
"320 350 OFFCURVE",
"366 446 CURVE",
"764 518 OFFCURVE",
"965 629 OFFCURVE",
"965 775 CURVE SMOOTH",
"965 871 OFFCURVE",
"880 928 OFFCURVE",
"735 928 CURVE SMOOTH",
"386 928 OFFCURVE",
"55 600 OFFCURVE",
"55 255 CURVE SMOOTH",
"55 93 OFFCURVE",
"165 -18 OFFCURVE",
"325 -18 CURVE SMOOTH"
);
},
{
closed = 1;
nodes = (
"423 549 LINE SMOOTH",
"527 720 OFFCURVE",
"631 848 OFFCURVE",
"715 848 CURVE SMOOTH",
"743 848 OFFCURVE",
"758 834 OFFCURVE",
"758 801 CURVE SMOOTH",
"758 689 OFFCURVE",
"586 552 OFFCURVE",
"400 511 CURVE"
);
}
);
};
layerId = "D3934E74-9B53-4E98-B19F-CD3DFEE08352";
paths = (
{
closed = 1;
nodes = (
"468 -18 OFFCURVE",
"611 58 OFFCURVE",
"769 244 CURVE",
"725 278 LINE",
"578 125 OFFCURVE",
"490 63 OFFCURVE",
"394 63 CURVE SMOOTH",
"312 63 OFFCURVE",
"277 108 OFFCURVE",
"277 187 CURVE SMOOTH",
"277 418 OFFCURVE",
"551 848 OFFCURVE",
"689 848 CURVE SMOOTH",
"733 848 OFFCURVE",
"758 817 OFFCURVE",
"768 750 CURVE SMOOTH",
"778 683 OFFCURVE",
"811 650 OFFCURVE",
"867 650 CURVE SMOOTH",
"928 650 OFFCURVE",
"971 689 OFFCURVE",
"971 743 CURVE SMOOTH",
"971 850 OFFCURVE",
"860 928 OFFCURVE",
"705 928 CURVE SMOOTH",
"586 928 OFFCURVE",
"442 873 OFFCURVE",
"314 774 CURVE SMOOTH",
"148 645 OFFCURVE",
"39 446 OFFCURVE",
"39 268 CURVE SMOOTH",
"39 97 OFFCURVE",
"135 -18 OFFCURVE",
"318 -18 CURVE SMOOTH"
);
}
);
width = 939;
}
);
leftKerningGroup = o;
leftMetricsKey = o;
rightKerningGroup = c;
unicode = 0063;
},
{
glyphname = d;
layers = (
{
anchors = (
{
name = bottom;
position = "{394, 0}";
},
{
name = top;
position = "{1326, 1094}";
}
);
layerId = master01;
paths = (
{
closed = 1;
nodes = (
"344 -18 OFFCURVE",
"439 59 OFFCURVE",
"576 262 CURVE",
"580 256 LINE",
"548 192 OFFCURVE",
"530 147 OFFCURVE",
"530 106 CURVE SMOOTH",
"530 24 OFFCURVE",
"559 -18 OFFCURVE",
"634 -18 CURVE SMOOTH",
"731 -18 OFFCURVE",
"838 62 OFFCURVE",
"949 213 CURVE",
"915 237 LINE",
"820 131 OFFCURVE",
"769 84 OFFCURVE",
"734 84 CURVE SMOOTH",
"699 84 OFFCURVE",
"695 115 OFFCURVE",
"722 188 CURVE SMOOTH",
"1183 1409 LINE",
"855 1409 LINE",
"863 1384 LINE",
"996 1363 LINE",
"797 848 LINE {name = hr01;}",
"754 906 OFFCURVE",
"716 928 OFFCURVE",
"650 928 CURVE SMOOTH",
"363 928 OFFCURVE",
"33 526 OFFCURVE",
"33 206 CURVE SMOOTH",
"33 57 OFFCURVE",
"96 -18 OFFCURVE",
"220 -18 CURVE SMOOTH"
);
},
{
closed = 1;
nodes = (
"214 43 OFFCURVE",
"188 72 OFFCURVE",
"188 140 CURVE SMOOTH",
"188 389 OFFCURVE",
"506 873 OFFCURVE",
"679 873 CURVE SMOOTH",
"724 873 OFFCURVE",
"752 841 OFFCURVE",
"760 787 CURVE",
"758 753 OFFCURVE",
"749 719 OFFCURVE",
"717 640 CURVE SMOOTH",
"585 318 OFFCURVE",
"368 43 OFFCURVE",
"252 43 CURVE SMOOTH"
);
}
);
width = 1030;
},
{
anchors = (
{
name = bottom;
position = "{491, 0}";
},
{
name = top;
position = "{1398, 1094}";
}
);
background = {
paths = (
{
closed = 1;
nodes = (
"372 -18 OFFCURVE",
"479 69 OFFCURVE",
"620 285 CURVE",
"631 282 LINE",
"587 190 OFFCURVE",
"567 138 OFFCURVE",
"567 91 CURVE SMOOTH",
"567 19 OFFCURVE",
"613 -18 OFFCURVE",
"702 -18 CURVE SMOOTH",
"817 -18 OFFCURVE",
"917 47 OFFCURVE",
"1064 218 CURVE {name = hr03;}",
"1016 247 LINE",
"884 111 OFFCURVE",
"845 79 OFFCURVE",
"811 79 CURVE SMOOTH",
"791 79 OFFCURVE",
"785 94 OFFCURVE",
"795 117 CURVE SMOOTH",
"1122 911 LINE",
"870 911 LINE",
"842 848 LINE",
"796 904 OFFCURVE",
"739 928 OFFCURVE",
"653 928 CURVE SMOOTH",
"380 928 OFFCURVE",
"37 537 OFFCURVE",
"37 226 CURVE SMOOTH",
"37 75 OFFCURVE",
"121 -18 OFFCURVE",
"257 -18 CURVE SMOOTH"
);
},
{
closed = 1;
nodes = (
"300 63 OFFCURVE",
"283 96 OFFCURVE",
"283 150 CURVE SMOOTH",
"283 402 OFFCURVE",
"554 848 OFFCURVE",
"707 848 CURVE SMOOTH",
"758 848 OFFCURVE",
"786 819 OFFCURVE",
"786 766 CURVE SMOOTH",
"786 736 OFFCURVE",
"778 708 OFFCURVE",
"749 640 CURVE SMOOTH",
"630 364 OFFCURVE",
"410 63 OFFCURVE",
"328 63 CURVE SMOOTH"
);
}
);
};
layerId = "D3934E74-9B53-4E98-B19F-CD3DFEE08352";
paths = (
{
closed = 1;
nodes = (
"372 -18 OFFCURVE",
"479 69 OFFCURVE",
"620 285 CURVE",
"631 282 LINE",
"587 190 OFFCURVE",
"567 138 OFFCURVE",
"567 91 CURVE SMOOTH",
"567 19 OFFCURVE",
"613 -18 OFFCURVE",
"702 -18 CURVE SMOOTH",
"817 -18 OFFCURVE",
"917 47 OFFCURVE",
"1064 218 CURVE {name = hr03;}",
"1016 247 LINE",
"884 111 OFFCURVE",
"845 79 OFFCURVE",
"811 79 CURVE SMOOTH",
"791 79 OFFCURVE",
"786 94 OFFCURVE",
"795 117 CURVE SMOOTH",
"1327 1409 LINE",
"902 1409 LINE",
"908 1370 LINE",
"1051 1348 LINE",
"842 848 LINE",
"796 904 OFFCURVE",
"739 928 OFFCURVE",
"653 928 CURVE SMOOTH",
"380 928 OFFCURVE",
"37 537 OFFCURVE",
"37 226 CURVE SMOOTH",
"37 75 OFFCURVE",
"121 -18 OFFCURVE",
"257 -18 CURVE SMOOTH"
);
},
{
closed = 1;
nodes = (
"300 63 OFFCURVE",
"283 96 OFFCURVE",
"283 150 CURVE SMOOTH",
"283 402 OFFCURVE",
"554 848 OFFCURVE",
"707 848 CURVE SMOOTH",
"758 848 OFFCURVE",
"786 819 OFFCURVE",
"786 766 CURVE SMOOTH",
"786 736 OFFCURVE",
"778 708 OFFCURVE",
"749 640 CURVE SMOOTH",
"631 364 OFFCURVE",
"410 63 OFFCURVE",
"328 63 CURVE SMOOTH"
);
}
);
width = 1133;
}
);
leftKerningGroup = a;
leftMetricsKey = a;
rightKerningGroup = u;
rightMetricsKey = a;
unicode = 0064;
},
{
glyphname = eth;
layers = (
{
background = {
paths = (
{
closed = 1;
nodes = (
"229 43 OFFCURVE",
"204 83 OFFCURVE",
"204 167 CURVE SMOOTH",
"204 439 OFFCURVE",
"484 853 OFFCURVE",
"668 853 CURVE SMOOTH",
"722 853 OFFCURVE",
"749 815 OFFCURVE",
"749 737 CURVE SMOOTH",
"749 481 OFFCURVE",
"453 43 OFFCURVE",
"281 43 CURVE SMOOTH"
);
},
{
closed = 1;
nodes = (
"910 983 OFFCURVE",
"821 1269 OFFCURVE",
"486 1407 CURVE",
"462 1363 LINE",
"661 1262 OFFCURVE",
"779 1063 OFFCURVE",
"783 863 CURVE",
"776 863 LINE",
"754 907 OFFCURVE",
"713 928 OFFCURVE",
"647 928 CURVE SMOOTH {name = hr00;}",
"369 928 OFFCURVE",
"47 570 OFFCURVE",
"47 260 CURVE SMOOTH",
"47 86 OFFCURVE",
"145 -18 OFFCURVE",
"307 -18 CURVE SMOOTH",
"614 -18 OFFCURVE",
"910 331 OFFCURVE",
"910 755 CURVE SMOOTH"
);
},
{
closed = 1;
nodes = (
"444 1042 LINE",
"480 984 LINE",
"1008 1323 LINE",
"970 1379 LINE"
);
}
);
};
layerId = master01;
paths = (
{
closed = 1;
nodes = (
"614 -18 OFFCURVE",
"910 331 OFFCURVE",
"910 755 CURVE SMOOTH",
"910 890 OFFCURVE",
"879 1046 OFFCURVE",
"783 1179 CURVE",
"1008 1323 LINE",
"970 1379 LINE",
"741 1232 LINE",
"678 1301 OFFCURVE",
"595 1362 OFFCURVE",
"486 1407 CURVE",
"462 1363 LINE",
"547 1320 OFFCURVE",
"618 1259 OFFCURVE",
"670 1187 CURVE",
"444 1042 LINE",
"480 984 LINE",
"708 1130 LINE",
"755 1048 OFFCURVE",
"781 955 OFFCURVE",
"783 863 CURVE",
"776 863 LINE",
"754 907 OFFCURVE",
"713 928 OFFCURVE",
"647 928 CURVE SMOOTH",
"369 928 OFFCURVE",
"47 570 OFFCURVE",
"47 260 CURVE SMOOTH",
"47 86 OFFCURVE",
"145 -18 OFFCURVE",
"307 -18 CURVE SMOOTH"
);
},
{
closed = 1;
nodes = (
"204 439 OFFCURVE",
"484 853 OFFCURVE",
"668 853 CURVE SMOOTH",
"722 853 OFFCURVE",
"749 815 OFFCURVE",
"749 737 CURVE SMOOTH",
"749 481 OFFCURVE",
"453 43 OFFCURVE",
"281 43 CURVE SMOOTH",
"229 43 OFFCURVE",
"204 83 OFFCURVE",
"204 167 CURVE SMOOTH"
);
}
);
width = 945;
},
{
background = {
paths = (
{
closed = 1;
nodes = (
"311 63 OFFCURVE",
"286 106 OFFCURVE",
"286 180 CURVE SMOOTH",
"286 423 OFFCURVE",
"538 847 OFFCURVE",
"682 847 CURVE SMOOTH",
"726 847 OFFCURVE",
"750 806 OFFCURVE",
"750 730 CURVE SMOOTH",
"750 486 OFFCURVE",
"499 63 OFFCURVE",
"356 63 CURVE SMOOTH"
);
},
{
closed = 1;
nodes = (
"48 94 OFFCURVE",
"163 -18 OFFCURVE",
"364 -18 CURVE SMOOTH {name = hr00;}",
"728 -18 OFFCURVE",
"988 312 OFFCURVE",
"988 739 CURVE SMOOTH",
"988 1066 OFFCURVE",
"838 1286 OFFCURVE",
"537 1407 CURVE",
"509 1355 LINE",
"700 1253 OFFCURVE",
"783 1106 OFFCURVE",
"800 843 CURVE",
"788 843 LINE",
"760 897 OFFCURVE",
"710 928 OFFCURVE",
"628 928 CURVE SMOOTH",
"374 928 OFFCURVE",
"48 616 OFFCURVE",
"48 287 CURVE SMOOTH"
);
},
{
closed = 1;
nodes = (
"490 1057 LINE",
"533 989 LINE",
"1061 1328 LINE",
"1016 1394 LINE"
);
}
);
};
layerId = "D3934E74-9B53-4E98-B19F-CD3DFEE08352";
paths = (
{
closed = 1;
nodes = (
"718 -18 OFFCURVE",
"988 301 OFFCURVE",
"988 719 CURVE SMOOTH",
"988 892 OFFCURVE",
"939 1055 OFFCURVE",
"846 1190 CURVE",
"1061 1328 LINE",
"1016 1394 LINE",
"791 1250 LINE",
"725 1313 OFFCURVE",
"640 1365 OFFCURVE",
"537 1407 CURVE",
"496 1345 LINE",
"579 1301 OFFCURVE",
"641 1248 OFFCURVE",
"687 1181 CURVE",
"490 1057 LINE",
"533 989 LINE",
"726 1111 LINE",
"768 1033 OFFCURVE",
"790 951 OFFCURVE",
"800 843 CURVE",
"788 843 LINE",
"758 900 OFFCURVE",
"706 928 OFFCURVE",
"628 928 CURVE SMOOTH",
"352 928 OFFCURVE",
"48 592 OFFCURVE",
"48 287 CURVE SMOOTH",
"48 93 OFFCURVE",
"164 -18 OFFCURVE",
"364 -18 CURVE SMOOTH"
);
},
{
closed = 1;
nodes = (
"311 63 OFFCURVE",
"286 105 OFFCURVE",
"286 180 CURVE SMOOTH",
"286 423 OFFCURVE",
"538 847 OFFCURVE",
"682 847 CURVE SMOOTH",
"726 847 OFFCURVE",
"750 806 OFFCURVE",
"750 730 CURVE SMOOTH",
"750 487 OFFCURVE",
"500 63 OFFCURVE",
"356 63 CURVE SMOOTH"
);
}
);
width = 1028;
}
);
leftKerningGroup = o;
leftMetricsKey = o;
rightMetricsKey = o;
unicode = 00F0;
},
{
glyphname = dcroat;
layers = (
{
components = (
{
name = d;
}
);
layerId = master01;
paths = (
{
closed = 1;
nodes = (
"1183 1138 LINE",
"1214 1210 LINE",
"720 1210 LINE",
"691 1138 LINE"
);
}
);
width = 1036;
},
{
background = {
paths = (
{
closed = 1;
nodes = (
"1183 1138 LINE",
"1214 1210 LINE",
"720 1210 LINE",
"691 1138 LINE"
);
}
);
};
components = (
{
name = d;
}
);
layerId = "D3934E74-9B53-4E98-B19F-CD3DFEE08352";
paths = (
{
closed = 1;
nodes = (
"1345 1088 LINE",
"1392 1200 LINE",
"838 1200 LINE",
"793 1088 LINE"
);
}
);
width = 1133;
}
);
leftKerningGroup = o;
rightKerningGroup = u;
unicode = 0111;
},
{
glyphname = e;
layers = (
{
anchors = (
{
name = bottom;
position = "{264, 0}";
},
{
name = top;
position = "{751, 1119}";
}
);
background = {
paths = (
{
closed = 1;
nodes = (
"585 -18 OFFCURVE",
"909 337 OFFCURVE",
"909 646 CURVE SMOOTH",
"909 820 OFFCURVE",
"816 928 OFFCURVE",
"653 928 CURVE SMOOTH",
"368 928 OFFCURVE",
"46 572 OFFCURVE",
"46 267 CURVE SMOOTH",
"46 91 OFFCURVE",
"137 -18 OFFCURVE",
"300 -18 CURVE SMOOTH {name = hr00;}"
);
},
{
closed = 1;
nodes = (
"225 43 OFFCURVE",
"203 86 OFFCURVE",
"203 168 CURVE SMOOTH",
"203 437 OFFCURVE",
"492 868 OFFCURVE",
"673 868 CURVE SMOOTH",
"732 868 OFFCURVE",
"756 828 OFFCURVE",
"756 751 CURVE SMOOTH",
"756 497 OFFCURVE",
"452 43 OFFCURVE",
"280 43 CURVE SMOOTH"
);
}
);
};
layerId = master01;
paths = (
{
closed = 1;
nodes = (
"393 -18 OFFCURVE",
"542 72 OFFCURVE",
"682 249 CURVE",
"644 273 LINE",
"544 138 OFFCURVE",
"397 43 OFFCURVE",
"291 43 CURVE SMOOTH",
"223 43 OFFCURVE",
"191 79 OFFCURVE",
"191 158 CURVE SMOOTH",
"191 237 OFFCURVE",
"223 340 OFFCURVE",
"289 462 CURVE",
"632 522 OFFCURVE",
"873 665 OFFCURVE",
"873 810 CURVE SMOOTH",
"873 884 OFFCURVE",
"809 928 OFFCURVE",
"708 928 CURVE SMOOTH {name = hr00;}",
"404 928 OFFCURVE",
"24 531 OFFCURVE",
"24 215 CURVE SMOOTH",
"24 67 OFFCURVE",
"106 -18 OFFCURVE",
"248 -18 CURVE SMOOTH"
);
},
{
closed = 1;
nodes = (
"381 620 LINE SMOOTH",
"459 767 OFFCURVE",
"587 875 OFFCURVE",
"680 875 CURVE SMOOTH",
"718 875 OFFCURVE",
"736 857 OFFCURVE",
"736 823 CURVE SMOOTH",
"736 705 OFFCURVE",
"540 561 OFFCURVE",
"327 520 CURVE"
);
}
);
width = 838;
},
{
anchors = (
{
name = bottom;
position = "{300, 0}";
},
{
name = top;
position = "{715, 1119}";
}
);
background = {
paths = (
{
closed = 1;
nodes = (
"465 -18 OFFCURVE",
"605 67 OFFCURVE",
"748 249 CURVE",
"710 279 LINE",
"571 128 OFFCURVE",
"471 63 OFFCURVE",
"375 63 CURVE SMOOTH",
"312 63 OFFCURVE",
"277 108 OFFCURVE",
"277 187 CURVE SMOOTH",
"277 283 OFFCURVE",
"326 419 OFFCURVE",
"407 549 CURVE SMOOTH",
"513 719 OFFCURVE",
"615 848 OFFCURVE",
"699 848 CURVE SMOOTH",
"727 848 OFFCURVE",
"742 834 OFFCURVE",
"742 801 CURVE SMOOTH",
"742 687 OFFCURVE",
"563 547 OFFCURVE",
"374 509 CURVE",
"343 445 LINE",
"746 517 OFFCURVE",
"949 628 OFFCURVE",
"949 775 CURVE SMOOTH",
"949 871 OFFCURVE",
"864 928 OFFCURVE",
"719 928 CURVE SMOOTH {name = hr00;}",
"370 928 OFFCURVE",
"39 600 OFFCURVE",
"39 255 CURVE SMOOTH",
"39 93 OFFCURVE",
"149 -18 OFFCURVE",
"309 -18 CURVE SMOOTH"
);
}
);
};
layerId = "D3934E74-9B53-4E98-B19F-CD3DFEE08352";
paths = (
{
closed = 1;
nodes = (
"465 -18 OFFCURVE",
"605 67 OFFCURVE",
"754 245 CURVE",
"710 279 LINE",
"571 128 OFFCURVE",
"471 63 OFFCURVE",
"375 63 CURVE SMOOTH",
"312 63 OFFCURVE",
"277 108 OFFCURVE",
"277 187 CURVE SMOOTH",
"277 258 OFFCURVE",
"304 350 OFFCURVE",
"350 446 CURVE",
"748 518 OFFCURVE",
"949 629 OFFCURVE",
"949 775 CURVE SMOOTH",
"949 871 OFFCURVE",
"864 928 OFFCURVE",
"719 928 CURVE SMOOTH",
"370 928 OFFCURVE",
"39 600 OFFCURVE",
"39 255 CURVE SMOOTH",
"39 93 OFFCURVE",
"149 -18 OFFCURVE",
"309 -18 CURVE SMOOTH"
);
},
{
closed = 1;
nodes = (
"407 549 LINE SMOOTH",
"513 719 OFFCURVE",
"615 848 OFFCURVE",
"699 848 CURVE SMOOTH",
"727 848 OFFCURVE",
"742 834 OFFCURVE",
"742 801 CURVE SMOOTH",
"742 689 OFFCURVE",
"570 552 OFFCURVE",
"384 511 CURVE"
);
}
);
width = 942;
}
);
leftKerningGroup = o;
leftMetricsKey = o;
rightKerningGroup = e;
unicode = 0065;
},
{
glyphname = schwa;
layers = (
{
anchors = (
{
name = bottom;
position = "{206, 0}";
},
{
name = top;
position = "{692, 1119}";
}
);
layerId = master01;
paths = (
{
closed = 1;
nodes = (
"391 162 OFFCURVE",
"282 36 OFFCURVE",
"158 36 CURVE SMOOTH",
"120 36 OFFCURVE",
"103 54 OFFCURVE",
"103 88 CURVE SMOOTH",
"103 210 OFFCURVE",
"311 360 OFFCURVE",
"531 395 CURVE",
"573 452 LINE",
"217 395 OFFCURVE",
"-34 249 OFFCURVE",
"-34 102 CURVE SMOOTH",
"-34 27 OFFCURVE",
"29 -18 OFFCURVE",
"131 -18 CURVE {name = hr00;}",
"434 -18 OFFCURVE",
"814 380 OFFCURVE",
"814 696 CURVE SMOOTH",
"814 844 OFFCURVE",
"732 928 OFFCURVE",
"592 928 CURVE SMOOTH",
"445 928 OFFCURVE",
"298 839 OFFCURVE",
"156 662 CURVE",
"194 638 LINE",
"296 773 OFFCURVE",
"441 868 OFFCURVE",
"549 868 CURVE SMOOTH",
"615 868 OFFCURVE",
"648 832 OFFCURVE",
"648 753 CURVE SMOOTH",
"648 670 OFFCURVE",
"612 560 OFFCURVE",
"540 430 CURVE SMOOTH"
);
}
);
width = 838;
},
{
anchors = (
{
name = bottom;
position = "{240, 0}";
},
{
name = top;
position = "{726, 1119}";
}
);
background = {
paths = (
{
closed = 1;
nodes = (
"475 928 OFFCURVE",
"335 843 OFFCURVE",
"186 665 CURVE",
"230 631 LINE",
"369 782 OFFCURVE",
"469 847 OFFCURVE",
"565 847 CURVE SMOOTH",
"628 847 OFFCURVE",
"663 802 OFFCURVE",
"663 723 CURVE SMOOTH",
"663 652 OFFCURVE",
"636 560 OFFCURVE",
"590 464 CURVE",
"192 392 OFFCURVE",
"-9 281 OFFCURVE",
"-9 135 CURVE SMOOTH",
"-9 39 OFFCURVE",
"76 -18 OFFCURVE",
"221 -18 CURVE SMOOTH",
"570 -18 OFFCURVE",
"901 310 OFFCURVE",
"901 655 CURVE SMOOTH",
"901 817 OFFCURVE",
"791 928 OFFCURVE",
"631 928 CURVE SMOOTH"
);
},
{
closed = 1;
nodes = (
"533 361 LINE SMOOTH",
"429 190 OFFCURVE",
"325 62 OFFCURVE",
"241 62 CURVE SMOOTH",
"213 62 OFFCURVE",
"198 76 OFFCURVE",
"198 109 CURVE SMOOTH",
"198 221 OFFCURVE",
"370 358 OFFCURVE",
"556 399 CURVE"
);
}
);
};
layerId = "D3934E74-9B53-4E98-B19F-CD3DFEE08352";
paths = (
{
closed = 1;
nodes = (
"411 166 OFFCURVE",
"326 62 OFFCURVE",
"242 62 CURVE SMOOTH",
"214 62 OFFCURVE",
"199 76 OFFCURVE",
"199 109 CURVE SMOOTH",
"199 228 OFFCURVE",
"393 375 OFFCURVE",
"591 405 CURVE",
"641 473 LINE",
"210 401 OFFCURVE",
"-8 287 OFFCURVE",
"-8 135 CURVE SMOOTH",
"-8 39 OFFCURVE",
"77 -18 OFFCURVE",
"222 -18 CURVE SMOOTH",
"571 -18 OFFCURVE",
"902 310 OFFCURVE",
"902 655 CURVE SMOOTH",
"902 817 OFFCURVE",
"792 928 OFFCURVE",
"632 928 CURVE SMOOTH",
"476 928 OFFCURVE",
"336 843 OFFCURVE",
"187 665 CURVE",
"231 631 LINE",
"370 782 OFFCURVE",
"470 847 OFFCURVE",
"566 847 CURVE SMOOTH",
"629 847 OFFCURVE",
"664 802 OFFCURVE",
"664 723 CURVE SMOOTH",
"664 633 OFFCURVE",
"625 512 OFFCURVE",
"498 307 CURVE SMOOTH"
);
}
);
width = 942;
}
);
leftMetricsKey = "=|e";
rightKerningGroup = o;
rightMetricsKey = "=|e";
unicode = 0259;
},
{
glyphname = f;
layers = (
{
associatedMasterId = master01;
layerId = "802DC178-2968-4689-BA99-BD2290573E1B";
name = "Jan 8 19, 16:47";
paths = (
{
closed = 1;
nodes = (
"515 1014 LINE SMOOTH",
"598 1277 OFFCURVE",
"717 1380 OFFCURVE",
"830 1380 CURVE SMOOTH",
"882 1380 OFFCURVE",
"918 1357 OFFCURVE",
"918 1320 CURVE SMOOTH",
"918 1294 OFFCURVE",
"906 1273 OFFCURVE",
"906 1241 CURVE SMOOTH",
"906 1196 OFFCURVE",
"942 1165 OFFCURVE",
"986 1165 CURVE SMOOTH",
"1038 1165 OFFCURVE",
"1069 1198 OFFCURVE",
"1069 1248 CURVE SMOOTH",
"1069 1350 OFFCURVE",
"963 1427 OFFCURVE",
"839 1427 CURVE SMOOTH",
"647 1427 OFFCURVE",
"437 1327 OFFCURVE",
"341 1031 CURVE SMOOTH",
"87 246 LINE SMOOTH",
"-69 -235 OFFCURVE",
"-238 -380 OFFCURVE",
"-329 -380 CURVE SMOOTH",
"-420 -380 OFFCURVE",
"-371 -216 OFFCURVE",
"-487 -216 CURVE SMOOTH",
"-537 -216 OFFCURVE",
"-568 -253 OFFCURVE",
"-568 -304 CURVE SMOOTH",
"-568 -386 OFFCURVE",
"-502 -440 OFFCURVE",
"-380 -440 CURVE SMOOTH",
"-140 -440 OFFCURVE",
"112 -262 OFFCURVE",
"305 349 CURVE SMOOTH"
);
},
{
closed = 1;
nodes = (
"164 911 LINE",
"143 855 LINE",
"650 855 LINE",
"672 911 LINE"
);
}
);
width = 557;
},
{
associatedMasterId = master01;
layerId = "BAAEB8E4-1D37-4217-9235-A593962F46F4";
name = "Jan 8 19, 16:50";
paths = (
{
closed = 1;
nodes = (
"-160 -440 OFFCURVE",
"50 -199 OFFCURVE",
"285 349 CURVE SMOOTH",
"504 855 LINE",
"670 855 LINE",
"692 911 LINE {name = hr01;}",
"524 911 LINE",
"565 1014 LINE SMOOTH",
"669 1271 OFFCURVE",
"767 1380 OFFCURVE",
"880 1380 CURVE SMOOTH",
"932 1380 OFFCURVE",
"968 1357 OFFCURVE",
"968 1320 CURVE SMOOTH",
"968 1294 OFFCURVE",
"956 1273 OFFCURVE",
"956 1241 CURVE SMOOTH",
"956 1196 OFFCURVE",
"992 1165 OFFCURVE",
"1036 1165 CURVE SMOOTH",
"1088 1165 OFFCURVE",
"1119 1198 OFFCURVE",
"1119 1248 CURVE SMOOTH",
"1119 1350 OFFCURVE",
"1013 1427 OFFCURVE",
"889 1427 CURVE SMOOTH",
"706 1427 OFFCURVE",
"518 1318 OFFCURVE",
"391 1031 CURVE SMOOTH",
"337 911 LINE {name = hr02;}",
"184 911 LINE",
"163 855 LINE",
"314 855 LINE",
"67 246 LINE SMOOTH",
"-122 -222 OFFCURVE",
"-258 -380 OFFCURVE",
"-349 -380 CURVE SMOOTH",
"-440 -380 OFFCURVE",
"-391 -227 OFFCURVE",
"-507 -227 CURVE SMOOTH",
"-557 -227 OFFCURVE",
"-588 -253 OFFCURVE",
"-588 -297 CURVE SMOOTH",
"-588 -382 OFFCURVE",
"-516 -440 OFFCURVE",
"-400 -440 CURVE SMOOTH"
);
}
);
width = 557;
},
{
background = {
paths = (
{
closed = 1;
nodes = (
"513 958 LINE SMOOTH",
"608 1245 OFFCURVE",
"722 1375 OFFCURVE",
"879 1375 CURVE SMOOTH",
"943 1375 OFFCURVE",
"979 1355 OFFCURVE",
"979 1320 CURVE SMOOTH",
"979 1294 OFFCURVE",
"967 1273 OFFCURVE",
"967 1241 CURVE SMOOTH",
"967 1196 OFFCURVE",
"1003 1165 OFFCURVE",
"1047 1165 CURVE SMOOTH",
"1099 1165 OFFCURVE",
"1130 1198 OFFCURVE",
"1130 1248 CURVE SMOOTH",
"1130 1352 OFFCURVE",
"1023 1427 OFFCURVE",
"875 1427 CURVE SMOOTH",
"621 1427 OFFCURVE",
"437 1268 OFFCURVE",
"333 958 CURVE SMOOTH",
"94 246 LINE SMOOTH",
"-31 -125 OFFCURVE",
"-209 -382 OFFCURVE",
"-342 -382 CURVE SMOOTH",
"-433 -382 OFFCURVE",
"-380 -216 OFFCURVE",
"-496 -216 CURVE SMOOTH",
"-546 -216 OFFCURVE",
"-577 -253 OFFCURVE",
"-577 -304 CURVE SMOOTH",
"-577 -384 OFFCURVE",
"-510 -440 OFFCURVE",
"-389 -440 CURVE SMOOTH",
"-95 -440 OFFCURVE",
"138 -178 OFFCURVE",
"312 349 CURVE SMOOTH"
);
},
{
closed = 1;
nodes = (
"175 911 LINE",
"154 855 LINE",
"661 855 LINE",
"683 911 LINE"
);
}
);
};
layerId = master01;
paths = (
{
closed = 1;
nodes = (
"525 958 LINE SMOOTH",
"623 1242 OFFCURVE",
"734 1375 OFFCURVE",
"891 1375 CURVE SMOOTH",
"955 1375 OFFCURVE",
"991 1355 OFFCURVE",
"991 1320 CURVE SMOOTH",
"991 1294 OFFCURVE",
"979 1273 OFFCURVE",
"979 1241 CURVE SMOOTH",
"979 1196 OFFCURVE",
"1015 1165 OFFCURVE",
"1059 1165 CURVE SMOOTH",
"1111 1165 OFFCURVE",
"1142 1198 OFFCURVE",
"1142 1248 CURVE SMOOTH",
"1142 1352 OFFCURVE",
"1035 1427 OFFCURVE",
"887 1427 CURVE SMOOTH",
"633 1427 OFFCURVE",
"454 1266 OFFCURVE",
"345 958 CURVE SMOOTH",
"94 246 LINE SMOOTH",
"-36 -122 OFFCURVE",
"-209 -382 OFFCURVE",
"-342 -382 CURVE SMOOTH",
"-433 -382 OFFCURVE",
"-380 -216 OFFCURVE",
"-496 -216 CURVE SMOOTH",
"-546 -216 OFFCURVE",
"-577 -253 OFFCURVE",
"-577 -304 CURVE SMOOTH",
"-577 -384 OFFCURVE",
"-510 -440 OFFCURVE",
"-389 -440 CURVE SMOOTH",
"-95 -440 OFFCURVE",
"135 -172 OFFCURVE",
"315 349 CURVE SMOOTH"
);
},
{
closed = 1;
nodes = (
"187 911 LINE",
"166 855 LINE",
"673 855 LINE",
"695 911 LINE"
);
}
);
width = 546;
},
{
associatedMasterId = master01;
layerId = "CCA3CB14-3C2A-4D99-A472-E35F3E3F9C8D";
name = "Jan 9 19, 10:01";
paths = (
{
closed = 1;
nodes = (
"525 1014 LINE SMOOTH",
"616 1276 OFFCURVE",
"733 1380 OFFCURVE",
"850 1380 CURVE SMOOTH",
"929 1380 OFFCURVE",
"968 1357 OFFCURVE",
"968 1320 CURVE SMOOTH",
"968 1294 OFFCURVE",
"956 1273 OFFCURVE",
"956 1241 CURVE SMOOTH",
"956 1196 OFFCURVE",
"992 1165 OFFCURVE",
"1036 1165 CURVE SMOOTH",
"1088 1165 OFFCURVE",
"1119 1198 OFFCURVE",
"1119 1248 CURVE SMOOTH",
"1119 1350 OFFCURVE",
"1009 1427 OFFCURVE",
"859 1427 CURVE SMOOTH",
"663 1427 OFFCURVE",
"454 1326 OFFCURVE",
"351 1031 CURVE SMOOTH",
"87 246 LINE SMOOTH",
"-80 -231 OFFCURVE",
"-238 -380 OFFCURVE",
"-329 -380 CURVE SMOOTH",
"-420 -380 OFFCURVE",
"-371 -216 OFFCURVE",
"-487 -216 CURVE SMOOTH",
"-537 -216 OFFCURVE",
"-568 -253 OFFCURVE",
"-568 -304 CURVE SMOOTH",
"-568 -386 OFFCURVE",
"-502 -440 OFFCURVE",
"-380 -440 CURVE SMOOTH",
"-140 -440 OFFCURVE",
"96 -256 OFFCURVE",
"305 349 CURVE SMOOTH"
);
},
{
closed = 1;
nodes = (
"164 911 LINE",
"143 855 LINE",
"650 855 LINE",
"672 911 LINE"
);
}
);
width = 557;
},
{
associatedMasterId = "D3934E74-9B53-4E98-B19F-CD3DFEE08352";
layerId = "335FD8BD-4664-4E45-A52E-9C4646E9ABE7";
name = "Jan 8 19, 16:47";
paths = (
{
closed = 1;
nodes = (
"515 1014 LINE SMOOTH",
"598 1277 OFFCURVE",
"717 1380 OFFCURVE",
"830 1380 CURVE SMOOTH",
"882 1380 OFFCURVE",
"918 1357 OFFCURVE",
"918 1320 CURVE SMOOTH",
"918 1294 OFFCURVE",
"906 1273 OFFCURVE",
"906 1241 CURVE SMOOTH",
"906 1196 OFFCURVE",
"942 1165 OFFCURVE",
"986 1165 CURVE SMOOTH",
"1038 1165 OFFCURVE",
"1069 1198 OFFCURVE",
"1069 1248 CURVE SMOOTH",
"1069 1350 OFFCURVE",
"963 1427 OFFCURVE",
"839 1427 CURVE SMOOTH",
"647 1427 OFFCURVE",
"437 1327 OFFCURVE",
"341 1031 CURVE SMOOTH",
"87 246 LINE SMOOTH",
"-69 -235 OFFCURVE",
"-238 -380 OFFCURVE",
"-329 -380 CURVE SMOOTH",
"-420 -380 OFFCURVE",
"-371 -216 OFFCURVE",
"-487 -216 CURVE SMOOTH",
"-537 -216 OFFCURVE",
"-568 -253 OFFCURVE",
"-568 -304 CURVE SMOOTH",
"-568 -386 OFFCURVE",
"-502 -440 OFFCURVE",
"-380 -440 CURVE SMOOTH",
"-140 -440 OFFCURVE",
"112 -262 OFFCURVE",
"305 349 CURVE SMOOTH"
);
},
{
closed = 1;
nodes = (
"164 911 LINE",
"143 855 LINE",
"650 855 LINE",
"672 911 LINE"
);
}
);
width = 557;
},
{
associatedMasterId = "D3934E74-9B53-4E98-B19F-CD3DFEE08352";
layerId = "139B72F1-E750-4A89-A3EA-1049FF8FCD72";
name = "Jan 8 19, 16:50";
paths = (
{
closed = 1;
nodes = (
"-160 -440 OFFCURVE",
"50 -199 OFFCURVE",
"285 349 CURVE SMOOTH",
"504 855 LINE",
"670 855 LINE",
"692 911 LINE {name = hr01;}",
"524 911 LINE",
"565 1014 LINE SMOOTH",
"669 1271 OFFCURVE",
"767 1380 OFFCURVE",
"880 1380 CURVE SMOOTH",
"932 1380 OFFCURVE",
"968 1357 OFFCURVE",
"968 1320 CURVE SMOOTH",
"968 1294 OFFCURVE",
"956 1273 OFFCURVE",
"956 1241 CURVE SMOOTH",
"956 1196 OFFCURVE",
"992 1165 OFFCURVE",
"1036 1165 CURVE SMOOTH",
"1088 1165 OFFCURVE",
"1119 1198 OFFCURVE",
"1119 1248 CURVE SMOOTH",
"1119 1350 OFFCURVE",
"1013 1427 OFFCURVE",
"889 1427 CURVE SMOOTH",
"706 1427 OFFCURVE",
"518 1318 OFFCURVE",
"391 1031 CURVE SMOOTH",
"337 911 LINE {name = hr02;}",
"184 911 LINE",
"163 855 LINE",
"314 855 LINE",
"67 246 LINE SMOOTH",
"-122 -222 OFFCURVE",
"-258 -380 OFFCURVE",
"-349 -380 CURVE SMOOTH",
"-440 -380 OFFCURVE",
"-391 -227 OFFCURVE",
"-507 -227 CURVE SMOOTH",
"-557 -227 OFFCURVE",
"-588 -253 OFFCURVE",
"-588 -297 CURVE SMOOTH",
"-588 -382 OFFCURVE",
"-516 -440 OFFCURVE",
"-400 -440 CURVE SMOOTH"
);
}
);
width = 557;
},
{
layerId = "D3934E74-9B53-4E98-B19F-CD3DFEE08352";
paths = (
{
closed = 1;
nodes = (
"587 895 LINE SMOOTH",
"707 1233 OFFCURVE",
"791 1347 OFFCURVE",
"920 1347 CURVE SMOOTH",
"976 1347 OFFCURVE",
"1016 1326 OFFCURVE",
"1016 1293 CURVE SMOOTH",
"1016 1270 OFFCURVE",
"1000 1242 OFFCURVE",
"1000 1211 CURVE SMOOTH",
"1000 1166 OFFCURVE",
"1034 1127 OFFCURVE",
"1101 1127 CURVE SMOOTH",
"1174 1127 OFFCURVE",
"1209 1173 OFFCURVE",
"1209 1230 CURVE SMOOTH",
"1209 1334 OFFCURVE",
"1101 1427 OFFCURVE",
"922 1427 CURVE SMOOTH",
"685 1427 OFFCURVE",
"461 1274 OFFCURVE",
"327 898 CURVE SMOOTH",
"58 142 LINE SMOOTH",
"-84 -258 OFFCURVE",
"-164 -358 OFFCURVE",
"-257 -360 CURVE SMOOTH",
"-377 -363 OFFCURVE",
"-310 -169 OFFCURVE",
"-445 -169 CURVE SMOOTH",
"-514 -169 OFFCURVE",
"-556 -222 OFFCURVE",
"-556 -280 CURVE SMOOTH",
"-556 -375 OFFCURVE",
"-437 -440 OFFCURVE",
"-307 -440 CURVE SMOOTH",
"-63 -440 OFFCURVE",
"192 -221 OFFCURVE",
"356 242 CURVE SMOOTH"
);
},
{
closed = 1;
nodes = (
"195 911 LINE",
"167 836 LINE",
"742 836 LINE",
"771 911 LINE"
);
}
);
width = 632;
},
{
associatedMasterId = "D3934E74-9B53-4E98-B19F-CD3DFEE08352";
layerId = "CB55ACAE-54BA-4AF0-B4E6-5A087A0430E7";
name = "Jan 9 19, 10:01";
paths = (
{
closed = 1;
nodes = (
"525 1014 LINE SMOOTH",
"616 1276 OFFCURVE",
"733 1380 OFFCURVE",
"850 1380 CURVE SMOOTH",
"929 1380 OFFCURVE",
"968 1357 OFFCURVE",
"968 1320 CURVE SMOOTH",
"968 1294 OFFCURVE",
"956 1273 OFFCURVE",
"956 1241 CURVE SMOOTH",
"956 1196 OFFCURVE",
"992 1165 OFFCURVE",
"1036 1165 CURVE SMOOTH",
"1088 1165 OFFCURVE",
"1119 1198 OFFCURVE",
"1119 1248 CURVE SMOOTH",
"1119 1350 OFFCURVE",
"1009 1427 OFFCURVE",
"859 1427 CURVE SMOOTH",
"663 1427 OFFCURVE",
"454 1326 OFFCURVE",
"351 1031 CURVE SMOOTH",
"87 246 LINE SMOOTH",
"-80 -231 OFFCURVE",
"-238 -380 OFFCURVE",
"-329 -380 CURVE SMOOTH",
"-420 -380 OFFCURVE",
"-371 -216 OFFCURVE",
"-487 -216 CURVE SMOOTH",
"-537 -216 OFFCURVE",
"-568 -253 OFFCURVE",
"-568 -304 CURVE SMOOTH",
"-568 -386 OFFCURVE",
"-502 -440 OFFCURVE",
"-380 -440 CURVE SMOOTH",
"-140 -440 OFFCURVE",
"96 -256 OFFCURVE",
"305 349 CURVE SMOOTH"
);
},
{
closed = 1;
nodes = (
"164 911 LINE",
"143 855 LINE",
"650 855 LINE",
"672 911 LINE"
);
}
);
width = 557;
}
);
leftKerningGroup = f;
rightKerningGroup = f;
unicode = 0066;
},
{
glyphname = g;
layers = (
{
anchors = (
{
name = top;
position = "{587, 1119}";
}
);
background = {
paths = (
{
closed = 1;
nodes = (
"431 -18 OFFCURVE",
"755 337 OFFCURVE",
"755 646 CURVE SMOOTH",
"755 820 OFFCURVE",
"662 928 OFFCURVE",
"499 928 CURVE SMOOTH",
"214 928 OFFCURVE",
"-108 572 OFFCURVE",
"-108 267 CURVE SMOOTH",
"-108 91 OFFCURVE",
"-17 -18 OFFCURVE",
"146 -18 CURVE SMOOTH {name = hr00;}"
);
},
{
closed = 1;
nodes = (
"71 43 OFFCURVE",
"49 86 OFFCURVE",
"49 168 CURVE SMOOTH",
"49 437 OFFCURVE",
"338 868 OFFCURVE",
"519 868 CURVE SMOOTH",
"578 868 OFFCURVE",
"602 828 OFFCURVE",
"602 751 CURVE SMOOTH",
"602 497 OFFCURVE",
"298 43 OFFCURVE",
"126 43 CURVE SMOOTH"
);
}
);
};
layerId = master01;
paths = (
{
closed = 1;
nodes = (
"721 832 LINE",
"758 890 OFFCURVE",
"792 913 OFFCURVE",
"838 913 CURVE SMOOTH",
"881 913 OFFCURVE",
"892 865 OFFCURVE",
"942 865 CURVE SMOOTH",
"981 865 OFFCURVE",
"1014 895 OFFCURVE",
"1014 934 CURVE SMOOTH",
"1014 981 OFFCURVE",
"976 1020 OFFCURVE",
"917 1020 CURVE SMOOTH",
"844 1020 OFFCURVE",
"758 987 OFFCURVE",
"684 875 CURVE"
);
},
{
closed = 1;
nodes = (
"78 -389 OFFCURVE",
"-37 -312 OFFCURVE",
"-37 -184 CURVE SMOOTH",
"-37 -77 OFFCURVE",
"44 11 OFFCURVE",
"155 11 CURVE SMOOTH {name = hr04;}",
"171 11 OFFCURVE",
"184 8 OFFCURVE",
"209 0 CURVE SMOOTH",
"429 -74 LINE SMOOTH",
"503 -99 OFFCURVE",
"557 -158 OFFCURVE",
"557 -215 CURVE SMOOTH",
"557 -314 OFFCURVE",
"433 -389 OFFCURVE",
"256 -389 CURVE SMOOTH"
);
},
{
closed = 1;
nodes = (
"343 375 OFFCURVE",
"306 426 OFFCURVE",
"306 516 CURVE SMOOTH",
"306 684 OFFCURVE",
"441 864 OFFCURVE",
"564 864 CURVE SMOOTH",
"630 864 OFFCURVE",
"656 828 OFFCURVE",
"656 749 CURVE SMOOTH",
"656 561 OFFCURVE",
"534 375 OFFCURVE",
"408 375 CURVE SMOOTH"
);
},
{
closed = 1;
nodes = (
"501 -440 OFFCURVE",
"694 -321 OFFCURVE",
"694 -158 CURVE SMOOTH",
"694 -59 OFFCURVE",
"623 28 OFFCURVE",
"514 65 CURVE SMOOTH",
"245 156 LINE SMOOTH",
"187 176 OFFCURVE",
"159 204 OFFCURVE",
"159 244 CURVE SMOOTH {name = hr01;}",
"159 294 OFFCURVE",
"209 321 OFFCURVE",
"316 321 CURVE SMOOTH",
"359 321 OFFCURVE",
"414 316 OFFCURVE",
"450 316 CURVE SMOOTH",
"652 316 OFFCURVE",
"809 456 OFFCURVE",
"809 646 CURVE SMOOTH",
"809 826 OFFCURVE",
"702 928 OFFCURVE",
"544 928 CURVE SMOOTH",
"324 928 OFFCURVE",
"161 773 OFFCURVE",
"161 601 CURVE SMOOTH {name = hr02;}",
"161 510 OFFCURVE",
"200 437 OFFCURVE",
"283 378 CURVE",
"281 371 LINE",
"121 371 OFFCURVE",
"26 306 OFFCURVE",
"26 199 CURVE SMOOTH",
"26 145 OFFCURVE",
"53 91 OFFCURVE",
"101 55 CURVE",
"-64 55 OFFCURVE",
"-187 -48 OFFCURVE",
"-187 -181 CURVE SMOOTH",
"-187 -337 OFFCURVE",
"-17 -440 OFFCURVE",
"232 -440 CURVE SMOOTH"
);
}
);
width = 876;
},
{
anchors = (
{
name = top;
position = "{677, 1119}";
}
);
associatedMasterId = master01;
layerId = "B5BF7713-81A1-41A7-92F7-04D8C14707DA";
name = "Jan 9 19, 13:59";
paths = (
{
closed = 1;
nodes = (
"491 -440 OFFCURVE",
"684 -321 OFFCURVE",
"684 -158 CURVE SMOOTH",
"684 -59 OFFCURVE",
"613 27 OFFCURVE",
"504 65 CURVE SMOOTH",
"235 156 LINE SMOOTH",
"177 176 OFFCURVE",
"149 204 OFFCURVE",
"149 244 CURVE SMOOTH {name = hr01;}",
"149 294 OFFCURVE",
"199 321 OFFCURVE",
"306 321 CURVE SMOOTH",
"349 321 OFFCURVE",
"404 316 OFFCURVE",
"440 316 CURVE SMOOTH",
"638 316 OFFCURVE",
"799 464 OFFCURVE",
"799 646 CURVE SMOOTH",
"799 692 OFFCURVE",
"792 727 OFFCURVE",
"767 780 CURVE",
"778 805 OFFCURVE",
"805 821 OFFCURVE",
"828 821 CURVE SMOOTH",
"871 821 OFFCURVE",
"882 773 OFFCURVE",
"932 773 CURVE SMOOTH",
"971 773 OFFCURVE",
"1004 803 OFFCURVE",
"1004 842 CURVE SMOOTH",
"1004 889 OFFCURVE",
"966 928 OFFCURVE",
"907 928 CURVE SMOOTH",
"853 928 OFFCURVE",
"794 894 OFFCURVE",
"734 823 CURVE",
"677 894 OFFCURVE",
"604 928 OFFCURVE",
"511 928 CURVE SMOOTH",
"314 928 OFFCURVE",
"146 777 OFFCURVE",
"146 605 CURVE SMOOTH {name = hr02;}",
"146 514 OFFCURVE",
"190 437 OFFCURVE",
"273 378 CURVE",
"271 371 LINE",
"111 371 OFFCURVE",
"16 306 OFFCURVE",
"16 199 CURVE SMOOTH",
"16 145 OFFCURVE",
"43 91 OFFCURVE",
"91 55 CURVE",
"-74 55 OFFCURVE",
"-197 -48 OFFCURVE",
"-197 -181 CURVE SMOOTH",
"-197 -337 OFFCURVE",
"-27 -440 OFFCURVE",
"222 -440 CURVE SMOOTH"
);
},
{
closed = 1;
nodes = (
"68 -389 OFFCURVE",
"-47 -312 OFFCURVE",
"-47 -184 CURVE SMOOTH",
"-47 -77 OFFCURVE",
"34 11 OFFCURVE",
"145 11 CURVE SMOOTH {name = hr04;}",
"161 11 OFFCURVE",
"174 9 OFFCURVE",
"199 0 CURVE SMOOTH",
"419 -74 LINE SMOOTH",
"493 -100 OFFCURVE",
"547 -158 OFFCURVE",
"547 -215 CURVE SMOOTH",
"547 -314 OFFCURVE",
"423 -389 OFFCURVE",
"246 -389 CURVE SMOOTH"
);
},
{
closed = 1;
nodes = (
"333 375 OFFCURVE",
"296 426 OFFCURVE",
"296 516 CURVE SMOOTH",
"296 676 OFFCURVE",
"440 864 OFFCURVE",
"554 864 CURVE SMOOTH",
"620 864 OFFCURVE",
"646 828 OFFCURVE",
"646 749 CURVE SMOOTH",
"646 561 OFFCURVE",
"524 375 OFFCURVE",
"398 375 CURVE SMOOTH"
);
}
);
width = 906;
},
{
anchors = (
{
name = top;
position = "{718, 1119}";
}
);
background = {
paths = (
{
closed = 1;
nodes = (
"614 856 OFFCURVE",
"643 807 OFFCURVE",
"643 721 CURVE SMOOTH",
"643 563 OFFCURVE",
"530 389 OFFCURVE",
"462 389 CURVE SMOOTH",
"433 389 OFFCURVE",
"407 432 OFFCURVE",
"407 524 CURVE SMOOTH",
"407 682 OFFCURVE",
"500 856 OFFCURVE",
"574 856 CURVE SMOOTH"
);
}
);
};
layerId = "D3934E74-9B53-4E98-B19F-CD3DFEE08352";
paths = (
{
closed = 1;
nodes = (
"781 830 LINE",
"821 881 OFFCURVE",
"850 902 OFFCURVE",
"879 902 CURVE",
"938 902 OFFCURVE",
"933 815 OFFCURVE",
"1017 815 CURVE",
"1079 815 OFFCURVE",
"1115 859 OFFCURVE",
"1115 914 CURVE",
"1115 981 OFFCURVE",
"1062 1030 OFFCURVE",
"985 1030 CURVE",
"903 1030 OFFCURVE",
"810 974 OFFCURVE",
"735 873 CURVE"
);
},
{
closed = 1;
nodes = (
"145 -350 OFFCURVE",
"26 -277 OFFCURVE",
"26 -164 CURVE",
"26 -79 OFFCURVE",
"110 5 OFFCURVE",
"160 5 CURVE",
"176 5 OFFCURVE",
"197 -2 OFFCURVE",
"230 -15 CURVE",
"345 -61 LINE",
"453 -104 OFFCURVE",
"513 -142 OFFCURVE",
"513 -202 CURVE",
"513 -281 OFFCURVE",
"409 -350 OFFCURVE",
"280 -350 CURVE"
);
},
{
closed = 1;
nodes = (
"416 399 OFFCURVE",
"387 448 OFFCURVE",
"387 534 CURVE",
"387 692 OFFCURVE",
"500 866 OFFCURVE",
"592 866 CURVE",
"637 866 OFFCURVE",
"663 823 OFFCURVE",
"663 737 CURVE",
"663 573 OFFCURVE",
"570 399 OFFCURVE",
"469 399 CURVE"
);
},
{
closed = 1;
nodes = (
"549 -430 OFFCURVE",
"748 -309 OFFCURVE",
"748 -139 CURVE SMOOTH",
"748 -37 OFFCURVE",
"674 28 OFFCURVE",
"541 80 CURVE SMOOTH",
"368 148 LINE SMOOTH",
"266 188 OFFCURVE",
"242 221 OFFCURVE",
"242 257 CURVE SMOOTH {name = hr01;}",
"242 310 OFFCURVE",
"292 335 OFFCURVE",
"372 331 CURVE SMOOTH",
"393 330 OFFCURVE",
"420 327 OFFCURVE",
"475 327 CURVE SMOOTH {name = hr00;}",
"728 327 OFFCURVE",
"898 447 OFFCURVE",
"898 633 CURVE SMOOTH",
"898 802 OFFCURVE",
"755 938 OFFCURVE",
"547 938 CURVE SMOOTH",
"326 938 OFFCURVE",
"146 787 OFFCURVE",
"146 622 CURVE SMOOTH",
"146 534 OFFCURVE",
"197 454 OFFCURVE",
"290 396 CURVE",
"286 388 LINE",
"138 377 OFFCURVE",
"39 310 OFFCURVE",
"39 201 CURVE SMOOTH",
"39 146 OFFCURVE",
"65 96 OFFCURVE",
"114 55 CURVE",
"-66 51 OFFCURVE",
"-216 -36 OFFCURVE",
"-216 -171 CURVE SMOOTH",
"-216 -327 OFFCURVE",
"-11 -430 OFFCURVE",
"256 -430 CURVE SMOOTH"
);
}
);
width = 983;
},
{
anchors = (
{
name = top;
position = "{677, 1119}";
}
);
associatedMasterId = "D3934E74-9B53-4E98-B19F-CD3DFEE08352";
layerId = "99424A7E-43A4-470D-AA80-DBD7DD0D598D";
name = "Jan 9 19, 13:59";
paths = (
{
closed = 1;
nodes = (
"491 -440 OFFCURVE",
"684 -321 OFFCURVE",
"684 -158 CURVE SMOOTH",
"684 -59 OFFCURVE",
"613 27 OFFCURVE",
"504 65 CURVE SMOOTH",
"235 156 LINE SMOOTH",
"177 176 OFFCURVE",
"149 204 OFFCURVE",
"149 244 CURVE SMOOTH {name = hr01;}",
"149 294 OFFCURVE",
"199 321 OFFCURVE",
"306 321 CURVE SMOOTH",
"349 321 OFFCURVE",
"404 316 OFFCURVE",
"440 316 CURVE SMOOTH",
"638 316 OFFCURVE",
"799 464 OFFCURVE",
"799 646 CURVE SMOOTH",
"799 692 OFFCURVE",
"792 727 OFFCURVE",
"767 780 CURVE",
"778 805 OFFCURVE",
"805 821 OFFCURVE",
"828 821 CURVE SMOOTH",
"871 821 OFFCURVE",
"882 773 OFFCURVE",
"932 773 CURVE SMOOTH",
"971 773 OFFCURVE",
"1004 803 OFFCURVE",
"1004 842 CURVE SMOOTH",
"1004 889 OFFCURVE",
"966 928 OFFCURVE",
"907 928 CURVE SMOOTH",
"853 928 OFFCURVE",
"794 894 OFFCURVE",
"734 823 CURVE",
"677 894 OFFCURVE",
"604 928 OFFCURVE",
"511 928 CURVE SMOOTH",
"314 928 OFFCURVE",
"146 777 OFFCURVE",
"146 605 CURVE SMOOTH {name = hr02;}",
"146 514 OFFCURVE",
"190 437 OFFCURVE",
"273 378 CURVE",
"271 371 LINE",
"111 371 OFFCURVE",
"16 306 OFFCURVE",
"16 199 CURVE SMOOTH",
"16 145 OFFCURVE",
"43 91 OFFCURVE",
"91 55 CURVE",
"-74 55 OFFCURVE",
"-197 -48 OFFCURVE",
"-197 -181 CURVE SMOOTH",
"-197 -337 OFFCURVE",
"-27 -440 OFFCURVE",
"222 -440 CURVE SMOOTH"
);
},
{
closed = 1;
nodes = (
"68 -389 OFFCURVE",
"-47 -312 OFFCURVE",
"-47 -184 CURVE SMOOTH",
"-47 -77 OFFCURVE",
"34 11 OFFCURVE",
"145 11 CURVE SMOOTH {name = hr04;}",
"161 11 OFFCURVE",
"174 9 OFFCURVE",
"199 0 CURVE SMOOTH",
"419 -74 LINE SMOOTH",
"493 -100 OFFCURVE",
"547 -158 OFFCURVE",
"547 -215 CURVE SMOOTH",
"547 -314 OFFCURVE",
"423 -389 OFFCURVE",
"246 -389 CURVE SMOOTH"
);
},
{
closed = 1;
nodes = (
"333 375 OFFCURVE",
"296 426 OFFCURVE",
"296 516 CURVE SMOOTH",
"296 676 OFFCURVE",
"440 864 OFFCURVE",
"554 864 CURVE SMOOTH",
"620 864 OFFCURVE",
"646 828 OFFCURVE",
"646 749 CURVE SMOOTH",
"646 561 OFFCURVE",
"524 375 OFFCURVE",
"398 375 CURVE SMOOTH"
);
}
);
width = 906;
}
);
leftKerningGroup = g;
rightKerningGroup = g;
unicode = 0067;
},
{
glyphname = h;
layers = (
{
anchors = (
{
name = bottom;
position = "{280, 0}";
},
{
name = top;
position = "{887, 1119}";
}
);
background = {
paths = (
{
closed = 1;
nodes = (
"656 -18 OFFCURVE",
"773 61 OFFCURVE",
"895 213 CURVE",
"859 239 LINE",
"771 141 OFFCURVE",
"698 84 OFFCURVE",
"658 84 CURVE SMOOTH {name = hr01;}",
"644 84 OFFCURVE",
"637 91 OFFCURVE",
"637 108 CURVE SMOOTH",
"637 127 OFFCURVE",
"651 167 OFFCURVE",
"671 208 CURVE SMOOTH",
"873 619 LINE SMOOTH",
"902 677 OFFCURVE",
"915 727 OFFCURVE",
"915 777 CURVE SMOOTH",
"915 875 OFFCURVE",
"863 927 OFFCURVE",
"759 927 CURVE SMOOTH",
"632 927 OFFCURVE",
"520 848 OFFCURVE",
"373 653 CURVE",
"366 656 LINE",
"420 758 OFFCURVE",
"441 813 OFFCURVE",
"441 859 CURVE SMOOTH",
"441 907 OFFCURVE",
"417 928 OFFCURVE",
"359 928 CURVE SMOOTH",
"249 928 OFFCURVE",
"122 853 OFFCURVE",
"34 732 CURVE {name = hr03;}",
"69 705 LINE",
"139 792 OFFCURVE",
"211 851 OFFCURVE",
"250 851 CURVE SMOOTH",
"268 851 OFFCURVE",
"275 841 OFFCURVE",
"275 825 CURVE SMOOTH",
"275 814 OFFCURVE",
"268 796 OFFCURVE",
"255 767 CURVE SMOOTH",
"-75 0 LINE",
"92 0 LINE",
"252 333 LINE SMOOTH",
"400 641 OFFCURVE",
"594 868 OFFCURVE",
"711 868 CURVE SMOOTH {name = hr02;}",
"746 868 OFFCURVE",
"766 849 OFFCURVE",
"766 816 CURVE SMOOTH",
"766 791 OFFCURVE",
"756 758 OFFCURVE",
"744 734 CURVE SMOOTH",
"510 271 LINE SMOOTH",
"470 192 OFFCURVE",
"448 122 OFFCURVE",
"448 74 CURVE SMOOTH",
"448 14 OFFCURVE",
"483 -18 OFFCURVE",
"549 -18 CURVE SMOOTH"
);
}
);
};
layerId = master01;
paths = (
{
closed = 1;
nodes = (
"658 -18 OFFCURVE",
"775 62 OFFCURVE",
"891 213 CURVE",
"856 239 LINE",
"773 146 OFFCURVE",
"698 84 OFFCURVE",
"660 84 CURVE SMOOTH",
"644 84 OFFCURVE",
"634 93 OFFCURVE",
"634 110 CURVE SMOOTH",
"634 131 OFFCURVE",
"646 161 OFFCURVE",
"669 208 CURVE SMOOTH",
"870 619 LINE SMOOTH",
"904 689 OFFCURVE",
"916 744 OFFCURVE",
"916 791 CURVE SMOOTH",
"916 878 OFFCURVE",
"852 927 OFFCURVE",
"758 927 CURVE SMOOTH",
"629 927 OFFCURVE",
"517 848 OFFCURVE",
"373 653 CURVE",
"364 656 LINE",
"691 1409 LINE",
"362 1409 LINE",
"366 1384 LINE {name = hr02;}",
"497 1363 LINE",
"-68 0 LINE",
"93 0 LINE",
"249 333 LINE SMOOTH",
"392 637 OFFCURVE",
"597 868 OFFCURVE",
"713 868 CURVE SMOOTH",
"746 868 OFFCURVE",
"763 851 OFFCURVE",
"763 820 CURVE SMOOTH",
"763 796 OFFCURVE",
"755 767 OFFCURVE",
"739 734 CURVE SMOOTH",
"509 271 LINE SMOOTH",
"470 192 OFFCURVE",
"448 129 OFFCURVE",
"448 82 CURVE SMOOTH",
"448 16 OFFCURVE",
"476 -18 OFFCURVE",
"550 -18 CURVE SMOOTH {name = hr01;}"
);
}
);
width = 987;
},
{
anchors = (
{
name = bottom;
position = "{381, 0}";
},
{
name = top;
position = "{978, 1119}";
}
);
background = {
paths = (
{
closed = 1;
nodes = (
"752 -18 OFFCURVE",
"863 50 OFFCURVE",
"1008 218 CURVE",
"960 247 LINE",
"842 125 OFFCURVE",
"784 79 OFFCURVE",
"749 79 CURVE SMOOTH {name = hr01;}",
"735 79 OFFCURVE",
"728 86 OFFCURVE",
"728 100 CURVE SMOOTH",
"728 113 OFFCURVE",
"735 134 OFFCURVE",
"748 160 CURVE SMOOTH",
"976 618 LINE SMOOTH",
"999 663 OFFCURVE",
"1011 712 OFFCURVE",
"1011 761 CURVE SMOOTH",
"1011 868 OFFCURVE",
"951 927 OFFCURVE",
"845 927 CURVE SMOOTH",
"716 927 OFFCURVE",
"605 842 OFFCURVE",
"454 625 CURVE",
"443 628 LINE",
"492 734 OFFCURVE",
"510 789 OFFCURVE",
"510 833 CURVE SMOOTH",
"510 898 OFFCURVE",
"472 928 OFFCURVE",
"386 928 CURVE SMOOTH",
"256 928 OFFCURVE",
"124 861 OFFCURVE",
"24 743 CURVE {name = hr03;}",
"70 706 LINE",
"122 771 OFFCURVE",
"220 841 OFFCURVE",
"260 841 CURVE SMOOTH",
"271 841 OFFCURVE",
"275 837 OFFCURVE",
"275 828 CURVE SMOOTH",
"275 821 OFFCURVE",
"273 811 OFFCURVE",
"265 792 CURVE SMOOTH",
"-58 0 LINE",
"193 0 LINE",
"356 358 LINE SMOOTH",
"445 554 OFFCURVE",
"688 848 OFFCURVE",
"761 848 CURVE SMOOTH {name = hr02;}",
"778 848 OFFCURVE",
"788 836 OFFCURVE",
"788 816 CURVE SMOOTH",
"788 798 OFFCURVE",
"781 775 OFFCURVE",
"765 742 CURVE SMOOTH",
"552 304 LINE SMOOTH",
"512 222 OFFCURVE",
"491 154 OFFCURVE",
"491 99 CURVE SMOOTH",
"491 19 OFFCURVE",
"536 -18 OFFCURVE",
"633 -18 CURVE SMOOTH"
);
}
);
};
layerId = "D3934E74-9B53-4E98-B19F-CD3DFEE08352";
paths = (
{
closed = 1;
nodes = (
"757 -18 OFFCURVE",
"869 57 OFFCURVE",
"1008 218 CURVE",
"960 247 LINE",
"842 125 OFFCURVE",
"784 79 OFFCURVE",
"749 79 CURVE SMOOTH {name = hr01;}",
"735 79 OFFCURVE",
"728 86 OFFCURVE",
"728 100 CURVE SMOOTH",
"728 113 OFFCURVE",
"735 134 OFFCURVE",
"748 160 CURVE SMOOTH",
"976 618 LINE SMOOTH",
"999 663 OFFCURVE",
"1011 712 OFFCURVE",
"1011 761 CURVE SMOOTH",
"1011 868 OFFCURVE",
"951 927 OFFCURVE",
"845 927 CURVE SMOOTH",
"716 927 OFFCURVE",
"605 842 OFFCURVE",
"455 625 CURVE",
"444 628 LINE",
"780 1409 LINE",
"352 1409 LINE",
"358 1370 LINE",
"501 1348 LINE",
"-58 0 LINE",
"193 0 LINE",
"356 358 LINE SMOOTH",
"448 559 OFFCURVE",
"688 848 OFFCURVE",
"761 848 CURVE SMOOTH {name = hr02;}",
"777 848 OFFCURVE",
"788 837 OFFCURVE",
"788 816 CURVE SMOOTH",
"788 798 OFFCURVE",
"781 773 OFFCURVE",
"765 742 CURVE SMOOTH",
"552 305 LINE SMOOTH",
"511 221 OFFCURVE",
"491 153 OFFCURVE",
"491 99 CURVE SMOOTH",
"491 21 OFFCURVE",
"534 -18 OFFCURVE",
"628 -18 CURVE SMOOTH"
);
}
);
width = 1097;
}
);
leftKerningGroup = h;
rightKerningGroup = i;
rightMetricsKey = n;
unicode = 0068;
},
{
glyphname = hbar;
layers = (
{
components = (
{
name = h;
}
);
layerId = master01;
paths = (
{
closed = 1;
nodes = (
"750 1138 LINE",
"781 1210 LINE",
"288 1210 LINE",
"258 1138 LINE"
);
}
);
width = 987;
},
{
background = {
paths = (
{
closed = 1;
nodes = (
"770 1138 LINE",
"801 1210 LINE",
"308 1210 LINE",
"278 1138 LINE"
);
}
);
};
components = (
{
name = h;
}
);
layerId = "D3934E74-9B53-4E98-B19F-CD3DFEE08352";
paths = (
{
closed = 1;
nodes = (
"840 1086 LINE",
"887 1198 LINE",
"284 1198 LINE",
"238 1086 LINE"
);
}
);
width = 1097;
}
);
leftKerningGroup = h;
leftMetricsKey = h;
rightKerningGroup = n;
rightMetricsKey = h;
unicode = 0127;
},
{
glyphname = i;
layers = (
{
anchors = (
{
name = bottom;
position = "{141, 0}";
}
);
background = {
paths = (
{
closed = 1;
nodes = (
"224 -18 OFFCURVE",
"353 65 OFFCURVE",
"460 201 CURVE",
"425 222 LINE",
"313 111 OFFCURVE",
"277 84 OFFCURVE",
"245 84 CURVE SMOOTH",
"224 84 OFFCURVE",
"211 98 OFFCURVE",
"211 117 CURVE SMOOTH",
"211 124 OFFCURVE",
"212 131 OFFCURVE",
"216 140 CURVE SMOOTH",
"462 730 LINE SMOOTH",
"479 771 OFFCURVE",
"489 812 OFFCURVE",
"489 844 CURVE SMOOTH",
"489 898 OFFCURVE",
"442 928 OFFCURVE",
"378 928 CURVE SMOOTH",
"286 928 OFFCURVE",
"175 870 OFFCURVE",
"97 775 CURVE",
"136 744 LINE",
"188 810 OFFCURVE",
"247 851 OFFCURVE",
"288 851 CURVE SMOOTH",
"303 851 OFFCURVE",
"310 846 OFFCURVE",
"310 835 CURVE SMOOTH",
"310 828 OFFCURVE",
"307 818 OFFCURVE",
"301 803 CURVE SMOOTH",
"52 190 LINE SMOOTH",
"34 146 OFFCURVE",
"26 108 OFFCURVE",
"26 79 CURVE SMOOTH",
"26 14 OFFCURVE",
"71 -18 OFFCURVE",
"138 -18 CURVE SMOOTH"
);
},
{
closed = 1;
nodes = (
"561 1126 OFFCURVE",
"625 1185 OFFCURVE",
"625 1246 CURVE SMOOTH",
"625 1300 OFFCURVE",
"573 1341 OFFCURVE",
"514 1341 CURVE SMOOTH {name = hr00;}",
"449 1341 OFFCURVE",
"389 1287 OFFCURVE",
"389 1224 CURVE SMOOTH",
"389 1165 OFFCURVE",
"430 1126 OFFCURVE",
"496 1126 CURVE SMOOTH"
);
}
);
};
layerId = master01;
paths = (
{
closed = 1;
nodes = (
"204 -18 OFFCURVE",
"333 65 OFFCURVE",
"440 201 CURVE",
"405 222 LINE",
"293 111 OFFCURVE",
"257 84 OFFCURVE",
"225 84 CURVE SMOOTH",
"204 84 OFFCURVE",
"191 98 OFFCURVE",
"191 117 CURVE SMOOTH",
"191 124 OFFCURVE",
"192 131 OFFCURVE",
"196 140 CURVE SMOOTH",
"472 730 LINE SMOOTH",
"491 771 OFFCURVE",
"499 812 OFFCURVE",
"499 844 CURVE SMOOTH",
"499 898 OFFCURVE",
"452 928 OFFCURVE",
"388 928 CURVE SMOOTH",
"296 928 OFFCURVE",
"185 870 OFFCURVE",
"107 775 CURVE",
"146 744 LINE",
"198 810 OFFCURVE",
"257 851 OFFCURVE",
"298 851 CURVE SMOOTH",
"313 851 OFFCURVE",
"320 846 OFFCURVE",
"320 835 CURVE SMOOTH",
"320 828 OFFCURVE",
"318 818 OFFCURVE",
"311 803 CURVE SMOOTH",
"32 190 LINE SMOOTH",
"12 146 OFFCURVE",
"6 108 OFFCURVE",
"6 79 CURVE SMOOTH",
"6 14 OFFCURVE",
"51 -18 OFFCURVE",
"118 -18 CURVE SMOOTH"
);
},
{
closed = 1;
nodes = (
"561 1126 OFFCURVE",
"625 1185 OFFCURVE",
"625 1246 CURVE SMOOTH",
"625 1300 OFFCURVE",
"573 1341 OFFCURVE",
"514 1341 CURVE SMOOTH {name = hr00;}",
"449 1341 OFFCURVE",
"389 1287 OFFCURVE",
"389 1224 CURVE SMOOTH",
"389 1165 OFFCURVE",
"430 1126 OFFCURVE",
"496 1126 CURVE SMOOTH"
);
}
);
width = 541;
},
{
anchors = (
{
name = bottom;
position = "{146, 0}";
}
);
background = {
paths = (
{
closed = 1;
nodes = (
"316 -18 OFFCURVE",
"428 52 OFFCURVE",
"562 208 CURVE",
"514 237 LINE",
"400 119 OFFCURVE",
"349 79 OFFCURVE",
"312 79 CURVE SMOOTH",
"296 79 OFFCURVE",
"287 87 OFFCURVE",
"287 101 CURVE SMOOTH",
"287 106 OFFCURVE",
"288 112 OFFCURVE",
"294 127 CURVE SMOOTH",
"519 679 LINE SMOOTH",
"538 726 OFFCURVE",
"551 777 OFFCURVE",
"551 808 CURVE SMOOTH",
"551 883 OFFCURVE",
"492 928 OFFCURVE",
"390 928 CURVE SMOOTH",
"278 928 OFFCURVE",
"175 874 OFFCURVE",
"80 769 CURVE",
"126 733 LINE",
"179 796 OFFCURVE",
"245 841 OFFCURVE",
"285 841 CURVE SMOOTH",
"299 841 OFFCURVE",
"306 835 OFFCURVE",
"306 823 CURVE SMOOTH",
"306 816 OFFCURVE",
"304 807 OFFCURVE",
"298 791 CURVE SMOOTH",
"70 231 LINE SMOOTH",
"51 184 OFFCURVE",
"38 133 OFFCURVE",
"38 102 CURVE SMOOTH",
"38 28 OFFCURVE",
"95 -18 OFFCURVE",
"192 -18 CURVE SMOOTH"
);
},
{
closed = 1;
nodes = (
"638 1091 OFFCURVE",
"715 1163 OFFCURVE",
"715 1237 CURVE SMOOTH",
"715 1300 OFFCURVE",
"654 1352 OFFCURVE",
"580 1352 CURVE SMOOTH {name = hr00;}",
"500 1352 OFFCURVE",
"429 1285 OFFCURVE",
"429 1210 CURVE SMOOTH",
"429 1138 OFFCURVE",
"480 1091 OFFCURVE",
"559 1091 CURVE SMOOTH"
);
}
);
};
layerId = "D3934E74-9B53-4E98-B19F-CD3DFEE08352";
paths = (
{
closed = 1;
nodes = (
"296 -18 OFFCURVE",
"408 52 OFFCURVE",
"542 208 CURVE",
"494 237 LINE",
"380 119 OFFCURVE",
"329 79 OFFCURVE",
"292 79 CURVE SMOOTH",
"276 79 OFFCURVE",
"267 87 OFFCURVE",
"267 101 CURVE SMOOTH",
"267 106 OFFCURVE",
"267 112 OFFCURVE",
"274 127 CURVE SMOOTH",
"539 679 LINE SMOOTH",
"561 726 OFFCURVE",
"571 777 OFFCURVE",
"571 808 CURVE SMOOTH",
"571 883 OFFCURVE",
"512 928 OFFCURVE",
"410 928 CURVE SMOOTH",
"298 928 OFFCURVE",
"195 874 OFFCURVE",
"100 769 CURVE",
"146 733 LINE",
"199 796 OFFCURVE",
"265 841 OFFCURVE",
"305 841 CURVE SMOOTH",
"319 841 OFFCURVE",
"326 835 OFFCURVE",
"326 823 CURVE SMOOTH",
"326 816 OFFCURVE",
"326 807 OFFCURVE",
"318 791 CURVE SMOOTH",
"50 231 LINE SMOOTH",
"28 184 OFFCURVE",
"18 133 OFFCURVE",
"18 102 CURVE SMOOTH",
"18 28 OFFCURVE",
"75 -18 OFFCURVE",
"172 -18 CURVE SMOOTH"
);
},
{
closed = 1;
nodes = (
"638 1091 OFFCURVE",
"715 1163 OFFCURVE",
"715 1237 CURVE SMOOTH",
"715 1300 OFFCURVE",
"654 1352 OFFCURVE",
"580 1352 CURVE SMOOTH {name = hr00;}",
"500 1352 OFFCURVE",
"429 1285 OFFCURVE",
"429 1210 CURVE SMOOTH",
"429 1138 OFFCURVE",
"480 1091 OFFCURVE",
"559 1091 CURVE SMOOTH"
);
}
);
width = 635;
}
);
leftKerningGroup = i;
leftMetricsKey = n;
rightKerningGroup = i;
rightMetricsKey = n;
unicode = 0069;
},
{
glyphname = dotlessi;
layers = (
{
anchors = (
{
name = bottom;
position = "{151, 0}";
},
{
name = top;
position = "{499, 1119}";
}
);
layerId = master01;
paths = (
{
closed = 1;
nodes = (
"234 -18 OFFCURVE",
"363 65 OFFCURVE",
"470 201 CURVE",
"435 222 LINE",
"323 111 OFFCURVE",
"287 84 OFFCURVE",
"255 84 CURVE SMOOTH",
"234 84 OFFCURVE",
"221 98 OFFCURVE",
"221 117 CURVE SMOOTH",
"221 124 OFFCURVE",
"222 131 OFFCURVE",
"226 140 CURVE SMOOTH",
"472 730 LINE SMOOTH",
"489 771 OFFCURVE",
"499 812 OFFCURVE",
"499 844 CURVE SMOOTH",
"499 898 OFFCURVE",
"452 928 OFFCURVE",
"388 928 CURVE SMOOTH {name = hr00;}",
"296 928 OFFCURVE",
"185 870 OFFCURVE",
"107 775 CURVE",
"146 744 LINE",
"198 810 OFFCURVE",
"257 851 OFFCURVE",
"298 851 CURVE SMOOTH",
"322 851 OFFCURVE",
"325 838 OFFCURVE",
"311 803 CURVE SMOOTH",
"62 190 LINE SMOOTH",
"44 146 OFFCURVE",
"36 108 OFFCURVE",
"36 79 CURVE SMOOTH",
"36 14 OFFCURVE",
"81 -18 OFFCURVE",
"148 -18 CURVE SMOOTH"
);
}
);
width = 571;
},
{
anchors = (
{
name = bottom;
position = "{154, 0}";
},
{
name = top;
position = "{512, 1119}";
}
);
background = {
paths = (
{
closed = 1;
nodes = (
"237 -18 OFFCURVE",
"366 65 OFFCURVE",
"473 201 CURVE",
"438 222 LINE",
"326 111 OFFCURVE",
"290 84 OFFCURVE",
"258 84 CURVE SMOOTH",
"237 84 OFFCURVE",
"224 98 OFFCURVE",
"224 117 CURVE SMOOTH",
"224 124 OFFCURVE",
"225 131 OFFCURVE",
"229 140 CURVE SMOOTH",
"475 730 LINE SMOOTH",
"492 771 OFFCURVE",
"502 812 OFFCURVE",
"502 844 CURVE SMOOTH",
"502 898 OFFCURVE",
"455 928 OFFCURVE",
"391 928 CURVE SMOOTH {name = hr00;}",
"299 928 OFFCURVE",
"188 870 OFFCURVE",
"110 775 CURVE",
"149 744 LINE",
"201 810 OFFCURVE",
"260 851 OFFCURVE",
"301 851 CURVE SMOOTH",
"325 851 OFFCURVE",
"328 838 OFFCURVE",
"314 803 CURVE SMOOTH",
"65 190 LINE SMOOTH",
"47 146 OFFCURVE",
"39 108 OFFCURVE",
"39 79 CURVE SMOOTH",
"39 14 OFFCURVE",
"84 -18 OFFCURVE",
"151 -18 CURVE SMOOTH"
);
}
);
};
layerId = "D3934E74-9B53-4E98-B19F-CD3DFEE08352";
paths = (
{
closed = 1;
nodes = (
"336 -18 OFFCURVE",
"448 52 OFFCURVE",
"582 208 CURVE",
"534 237 LINE",
"420 119 OFFCURVE",
"369 79 OFFCURVE",
"332 79 CURVE SMOOTH",
"316 79 OFFCURVE",
"307 87 OFFCURVE",
"307 101 CURVE SMOOTH",
"307 106 OFFCURVE",
"308 112 OFFCURVE",
"314 127 CURVE SMOOTH",
"539 679 LINE SMOOTH",
"558 726 OFFCURVE",
"571 777 OFFCURVE",
"571 808 CURVE SMOOTH",
"571 883 OFFCURVE",
"512 928 OFFCURVE",
"410 928 CURVE SMOOTH",
"298 928 OFFCURVE",
"195 874 OFFCURVE",
"100 769 CURVE",
"146 733 LINE",
"199 796 OFFCURVE",
"265 841 OFFCURVE",
"305 841 CURVE SMOOTH",
"332 841 OFFCURVE",
"329 820 OFFCURVE",
"318 791 CURVE SMOOTH",
"90 231 LINE SMOOTH",
"71 184 OFFCURVE",
"58 133 OFFCURVE",
"58 102 CURVE SMOOTH",
"58 28 OFFCURVE",
"115 -18 OFFCURVE",
"212 -18 CURVE SMOOTH"
);
}
);
width = 675;
}
);
leftKerningGroup = i;
leftMetricsKey = i;
rightKerningGroup = i;
rightMetricsKey = i;
unicode = 0131;
},
{
glyphname = iogonek;
layers = (
{
anchors = (
{
name = _bottom;
position = "{211, 0}";
}
);
background = {
paths = (
{
closed = 1;
nodes = (
"29 -440 OFFCURVE",
"109 -405 OFFCURVE",
"187 -340 CURVE {name = hr00;}",
"178 -310 LINE",
"125 -337 OFFCURVE",
"97 -346 OFFCURVE",
"66 -346 CURVE SMOOTH",
"23 -346 OFFCURVE",
"3 -330 OFFCURVE",
"3 -296 CURVE SMOOTH",
"3 -224 OFFCURVE",
"95 -110 OFFCURVE",
"234 0 CURVE",
"169 0 LINE",
"-25 -102 OFFCURVE",
"-163 -244 OFFCURVE",
"-163 -351 CURVE SMOOTH",
"-163 -409 OFFCURVE",
"-122 -440 OFFCURVE",
"-48 -440 CURVE SMOOTH"
);
}
);
};
components = (
{
alignment = -1;
name = i;
}
);
layerId = master01;
paths = (
{
closed = 1;
nodes = (
"68 -440 OFFCURVE",
"148 -405 OFFCURVE",
"226 -340 CURVE {name = hr00;}",
"217 -310 LINE",
"164 -337 OFFCURVE",
"136 -346 OFFCURVE",
"105 -346 CURVE SMOOTH",
"62 -346 OFFCURVE",
"42 -330 OFFCURVE",
"42 -296 CURVE SMOOTH",
"42 -224 OFFCURVE",
"168 -84 OFFCURVE",
"353 77 CURVE",
"208 0 LINE",
"4 -102 OFFCURVE",
"-124 -244 OFFCURVE",
"-124 -351 CURVE SMOOTH",
"-124 -409 OFFCURVE",
"-83 -440 OFFCURVE",
"-9 -440 CURVE SMOOTH"
);
}
);
width = 572;
},
{
anchors = (
{
name = _bottom;
position = "{156, 0}";
}
);
background = {
paths = (
{
closed = 1;
nodes = (
"189 -440 OFFCURVE",
"285 -399 OFFCURVE",
"379 -320 CURVE {name = hr00;}",
"370 -279 LINE",
"314 -307 OFFCURVE",
"281 -317 OFFCURVE",
"245 -317 CURVE SMOOTH",
"196 -317 OFFCURVE",
"170 -300 OFFCURVE",
"170 -267 CURVE SMOOTH",
"170 -202 OFFCURVE",
"264 -88 OFFCURVE",
"467 91 CURVE",
"290 0 LINE",
"71 -105 OFFCURVE",
"-40 -216 OFFCURVE",
"-40 -333 CURVE SMOOTH",
"-40 -403 OFFCURVE",
"8 -440 OFFCURVE",
"98 -440 CURVE SMOOTH"
);
}
);
};
components = (
{
name = i;
}
);
layerId = "D3934E74-9B53-4E98-B19F-CD3DFEE08352";
paths = (
{
closed = 1;
nodes = (
"189 -440 OFFCURVE",
"285 -399 OFFCURVE",
"379 -320 CURVE {name = hr00;}",
"370 -279 LINE",
"314 -307 OFFCURVE",
"281 -317 OFFCURVE",
"245 -317 CURVE SMOOTH",
"196 -317 OFFCURVE",
"170 -290 OFFCURVE",
"170 -257 CURVE SMOOTH",
"170 -181 OFFCURVE",
"255 -84 OFFCURVE",
"449 76 CURVE",
"342 26 LINE",
"55 -92 OFFCURVE",
"-40 -214 OFFCURVE",
"-40 -308 CURVE SMOOTH",
"-40 -386 OFFCURVE",
"15 -440 OFFCURVE",
"108 -440 CURVE SMOOTH"
);
}
);
width = 692;
}
);
leftKerningGroup = i;
leftMetricsKey = i;
rightKerningGroup = i;
rightMetricsKey = i;
unicode = 012F;
},
{
glyphname = j;
layers = (
{
background = {
paths = (
{
closed = 1;
nodes = (
"-99 -440 OFFCURVE",
"36 -333 OFFCURVE",
"123 -140 CURVE SMOOTH",
"342 349 LINE SMOOTH",
"463 620 OFFCURVE",
"518 784 OFFCURVE",
"518 846 CURVE SMOOTH",
"518 897 OFFCURVE",
"482 928 OFFCURVE",
"410 928 CURVE SMOOTH",
"317 928 OFFCURVE",
"214 873 OFFCURVE",
"132 775 CURVE {name = hr02;}",
"168 744 LINE",
"219 810 OFFCURVE",
"269 846 OFFCURVE",
"310 846 CURVE SMOOTH",
"327 846 OFFCURVE",
"335 841 OFFCURVE",
"335 823 CURVE SMOOTH",
"335 787 OFFCURVE",
"312 719 OFFCURVE",
"199 434 CURVE SMOOTH {name = hr01;}",
"8 -48 LINE SMOOTH",
"-93 -303 OFFCURVE",
"-151 -380 OFFCURVE",
"-219 -380 CURVE SMOOTH",
"-329 -380 OFFCURVE",
"-271 -227 OFFCURVE",
"-391 -227 CURVE SMOOTH",
"-445 -227 OFFCURVE",
"-470 -256 OFFCURVE",
"-470 -308 CURVE SMOOTH",
"-470 -389 OFFCURVE",
"-386 -440 OFFCURVE",
"-269 -440 CURVE SMOOTH"
);
}
);
};
layerId = master01;
paths = (
{
closed = 1;
nodes = (
"-78 -440 OFFCURVE",
"83 -302 OFFCURVE",
"198 -17 CURVE SMOOTH",
"462 635 LINE SMOOTH",
"514 764 OFFCURVE",
"518 802 OFFCURVE",
"518 846 CURVE SMOOTH",
"518 899 OFFCURVE",
"480 928 OFFCURVE",
"410 928 CURVE SMOOTH",
"315 928 OFFCURVE",
"213 871 OFFCURVE",
"132 775 CURVE {name = hr02;}",
"168 744 LINE",
"219 810 OFFCURVE",
"269 846 OFFCURVE",
"310 846 CURVE SMOOTH",
"328 846 OFFCURVE",
"335 840 OFFCURVE",
"335 823 CURVE SMOOTH",
"335 786 OFFCURVE",
"309 711 OFFCURVE",
"199 434 CURVE SMOOTH {name = hr01;}",
"8 -48 LINE SMOOTH",
"-89 -294 OFFCURVE",
"-148 -380 OFFCURVE",
"-225 -380 CURVE SMOOTH",
"-329 -380 OFFCURVE",
"-271 -227 OFFCURVE",
"-391 -227 CURVE SMOOTH",
"-445 -227 OFFCURVE",
"-470 -256 OFFCURVE",
"-470 -303 CURVE SMOOTH",
"-470 -389 OFFCURVE",
"-386 -440 OFFCURVE",
"-269 -440 CURVE SMOOTH"
);
},
{
closed = 1;
nodes = (
"596 1126 OFFCURVE",
"654 1181 OFFCURVE",
"654 1241 CURVE SMOOTH",
"654 1296 OFFCURVE",
"607 1341 OFFCURVE",
"546 1341 CURVE SMOOTH",
"478 1341 OFFCURVE",
"424 1287 OFFCURVE",
"424 1224 CURVE SMOOTH",
"424 1169 OFFCURVE",
"464 1126 OFFCURVE",
"527 1126 CURVE SMOOTH"
);
}
);
width = 580;
},
{
background = {
paths = (
{
closed = 0;
nodes = (
"-210 -378 LINE SMOOTH",
"-281 -378 OFFCURVE",
"-322 -353 OFFCURVE",
"-333 -279 CURVE SMOOTH",
"-343 -214 OFFCURVE",
"-375 -180 OFFCURVE",
"-431 -180 CURVE SMOOTH",
"-492 -180 OFFCURVE",
"-535 -219 OFFCURVE",
"-535 -273 CURVE SMOOTH",
"-535 -376 OFFCURVE",
"-379 -458 OFFCURVE",
"-197 -458 CURVE SMOOTH"
);
}
);
};
layerId = "D3934E74-9B53-4E98-B19F-CD3DFEE08352";
paths = (
{
closed = 1;
nodes = (
"-27 -440 OFFCURVE",
"180 -293 OFFCURVE",
"351 127 CURVE SMOOTH",
"576 679 LINE SMOOTH",
"595 726 OFFCURVE",
"608 777 OFFCURVE",
"608 808 CURVE SMOOTH",
"608 883 OFFCURVE",
"549 928 OFFCURVE",
"447 928 CURVE SMOOTH",
"335 928 OFFCURVE",
"232 874 OFFCURVE",
"137 769 CURVE",
"183 733 LINE",
"236 796 OFFCURVE",
"302 841 OFFCURVE",
"342 841 CURVE SMOOTH",
"356 841 OFFCURVE",
"363 835 OFFCURVE",
"363 823 CURVE SMOOTH",
"363 816 OFFCURVE",
"362 807 OFFCURVE",
"355 791 CURVE SMOOTH",
"109 187 LINE SMOOTH",
"-68 -249 OFFCURVE",
"-148 -358 OFFCURVE",
"-241 -360 CURVE SMOOTH",
"-361 -363 OFFCURVE",
"-294 -180 OFFCURVE",
"-432 -180 CURVE SMOOTH",
"-498 -180 OFFCURVE",
"-535 -222 OFFCURVE",
"-535 -274 CURVE SMOOTH",
"-535 -375 OFFCURVE",
"-400 -440 OFFCURVE",
"-264 -440 CURVE SMOOTH"
);
},
{
closed = 1;
nodes = (
"695 1091 OFFCURVE",
"772 1163 OFFCURVE",
"772 1237 CURVE SMOOTH",
"772 1300 OFFCURVE",
"711 1352 OFFCURVE",
"637 1352 CURVE SMOOTH {name = hr00;}",
"557 1352 OFFCURVE",
"486 1285 OFFCURVE",
"486 1210 CURVE SMOOTH",
"486 1138 OFFCURVE",
"537 1091 OFFCURVE",
"616 1091 CURVE SMOOTH"
);
}
);
width = 653;
}
);
leftKerningGroup = j;
rightKerningGroup = j;
unicode = 006A;
},
{
glyphname = dotlessj;
layers = (
{
anchors = (
{
name = top;
position = "{517, 1119}";
}
);
background = {
paths = (
{
closed = 1;
nodes = (
"-99 -440 OFFCURVE",
"36 -333 OFFCURVE",
"123 -140 CURVE SMOOTH",
"342 349 LINE SMOOTH",
"463 620 OFFCURVE",
"518 784 OFFCURVE",
"518 846 CURVE SMOOTH",
"518 897 OFFCURVE",
"482 928 OFFCURVE",
"410 928 CURVE SMOOTH",
"317 928 OFFCURVE",
"214 873 OFFCURVE",
"132 775 CURVE {name = hr02;}",
"168 744 LINE",
"219 810 OFFCURVE",
"269 846 OFFCURVE",
"310 846 CURVE SMOOTH",
"327 846 OFFCURVE",
"335 841 OFFCURVE",
"335 823 CURVE SMOOTH",
"335 787 OFFCURVE",
"312 719 OFFCURVE",
"199 434 CURVE SMOOTH {name = hr01;}",
"8 -48 LINE SMOOTH",
"-93 -303 OFFCURVE",
"-151 -380 OFFCURVE",
"-219 -380 CURVE SMOOTH",
"-329 -380 OFFCURVE",
"-271 -227 OFFCURVE",
"-391 -227 CURVE SMOOTH",
"-445 -227 OFFCURVE",
"-470 -256 OFFCURVE",
"-470 -308 CURVE SMOOTH",
"-470 -389 OFFCURVE",
"-386 -440 OFFCURVE",
"-269 -440 CURVE SMOOTH"
);
}
);
};
layerId = master01;
paths = (
{
closed = 1;
nodes = (
"-78 -440 OFFCURVE",
"83 -302 OFFCURVE",
"198 -17 CURVE SMOOTH",
"462 635 LINE SMOOTH",
"514 764 OFFCURVE",
"518 802 OFFCURVE",
"518 846 CURVE SMOOTH",
"518 899 OFFCURVE",
"480 928 OFFCURVE",
"410 928 CURVE SMOOTH",
"315 928 OFFCURVE",
"213 871 OFFCURVE",
"132 775 CURVE {name = hr02;}",
"168 744 LINE",
"219 810 OFFCURVE",
"269 846 OFFCURVE",
"310 846 CURVE SMOOTH",
"328 846 OFFCURVE",
"335 840 OFFCURVE",
"335 823 CURVE SMOOTH",
"335 783 OFFCURVE",
"328 759 OFFCURVE",
"199 434 CURVE SMOOTH {name = hr01;}",
"8 -48 LINE SMOOTH",
"-89 -294 OFFCURVE",
"-148 -380 OFFCURVE",
"-225 -380 CURVE SMOOTH",
"-329 -380 OFFCURVE",
"-271 -227 OFFCURVE",
"-391 -227 CURVE SMOOTH",
"-445 -227 OFFCURVE",
"-470 -256 OFFCURVE",
"-470 -303 CURVE SMOOTH",
"-470 -389 OFFCURVE",
"-386 -440 OFFCURVE",
"-269 -440 CURVE SMOOTH"
);
}
);
width = 580;
},
{
anchors = (
{
name = top;
position = "{537, 1119}";
}
);
background = {
paths = (
{
closed = 1;
nodes = (
"-99 -440 OFFCURVE",
"36 -333 OFFCURVE",
"123 -140 CURVE SMOOTH",
"342 349 LINE SMOOTH",
"463 620 OFFCURVE",
"518 784 OFFCURVE",
"518 846 CURVE SMOOTH",
"518 897 OFFCURVE",
"482 928 OFFCURVE",
"410 928 CURVE SMOOTH",
"317 928 OFFCURVE",
"214 873 OFFCURVE",
"132 775 CURVE {name = hr02;}",
"168 744 LINE",
"219 810 OFFCURVE",
"269 846 OFFCURVE",
"310 846 CURVE SMOOTH",
"327 846 OFFCURVE",
"335 841 OFFCURVE",
"335 823 CURVE SMOOTH",
"335 787 OFFCURVE",
"312 719 OFFCURVE",
"199 434 CURVE SMOOTH {name = hr01;}",
"8 -48 LINE SMOOTH",
"-93 -303 OFFCURVE",
"-151 -380 OFFCURVE",
"-219 -380 CURVE SMOOTH",
"-329 -380 OFFCURVE",
"-271 -227 OFFCURVE",
"-391 -227 CURVE SMOOTH",
"-445 -227 OFFCURVE",
"-470 -256 OFFCURVE",
"-470 -308 CURVE SMOOTH",
"-470 -389 OFFCURVE",
"-386 -440 OFFCURVE",
"-269 -440 CURVE SMOOTH"
);
}
);
};
layerId = "D3934E74-9B53-4E98-B19F-CD3DFEE08352";
paths = (
{
closed = 1;
nodes = (
"-27 -440 OFFCURVE",
"180 -293 OFFCURVE",
"351 127 CURVE SMOOTH",
"576 679 LINE SMOOTH",
"595 726 OFFCURVE",
"608 777 OFFCURVE",
"608 808 CURVE SMOOTH",
"608 883 OFFCURVE",
"549 928 OFFCURVE",
"447 928 CURVE SMOOTH",
"335 928 OFFCURVE",
"232 874 OFFCURVE",
"137 769 CURVE",
"183 733 LINE",
"236 796 OFFCURVE",
"302 841 OFFCURVE",
"342 841 CURVE SMOOTH",
"356 841 OFFCURVE",
"363 835 OFFCURVE",
"363 823 CURVE SMOOTH",
"363 816 OFFCURVE",
"362 807 OFFCURVE",
"355 791 CURVE SMOOTH",
"109 187 LINE SMOOTH",
"-68 -249 OFFCURVE",
"-148 -358 OFFCURVE",
"-241 -360 CURVE SMOOTH",
"-361 -363 OFFCURVE",
"-294 -180 OFFCURVE",
"-432 -180 CURVE SMOOTH",
"-498 -180 OFFCURVE",
"-535 -222 OFFCURVE",
"-535 -274 CURVE SMOOTH",
"-535 -375 OFFCURVE",
"-401 -440 OFFCURVE",
"-264 -440 CURVE SMOOTH"
);
}
);
width = 653;
}
);
leftKerningGroup = j;
leftMetricsKey = j;
rightKerningGroup = j;
rightMetricsKey = j;
unicode = 0237;
},
{
glyphname = k;
layers = (
{
anchors = (
{
name = bottom;
position = "{280, 0}";
}
);
layerId = master01;
paths = (
{
closed = 1;
nodes = (
"672 -18 OFFCURVE",
"766 41 OFFCURVE",
"811 118 CURVE",
"776 138 LINE",
"735 84 OFFCURVE",
"696 57 OFFCURVE",
"660 57 CURVE SMOOTH",
"624 57 OFFCURVE",
"600 91 OFFCURVE",
"553 190 CURVE SMOOTH",
"436 437 LINE",
"682 504 OFFCURVE",
"888 669 OFFCURVE",
"888 799 CURVE SMOOTH",
"888 882 OFFCURVE",
"832 928 OFFCURVE",
"726 928 CURVE SMOOTH",
"620 928 OFFCURVE",
"504 875 OFFCURVE",
"432 794 CURVE",
"425 794 LINE",
"690 1409 LINE",
"362 1409 LINE",
"366 1384 LINE",
"495 1363 LINE",
"-78 0 LINE",
"94 0 LINE",
"257 404 LINE",
"271 404 LINE",
"389 154 LINE SMOOTH {name = hr01;}",
"445 35 OFFCURVE",
"505 -18 OFFCURVE",
"588 -18 CURVE SMOOTH"
);
},
{
closed = 1;
nodes = (
"345 613 OFFCURVE",
"407 705 OFFCURVE",
"491 778 CURVE SMOOTH",
"547 827 OFFCURVE",
"599 853 OFFCURVE",
"651 853 CURVE SMOOTH",
"694 853 OFFCURVE",
"716 830 OFFCURVE",
"716 784 CURVE SMOOTH",
"716 631 OFFCURVE",
"515 475 OFFCURVE",
"287 461 CURVE"
);
}
);
width = 901;
},
{
anchors = (
{
name = bottom;
position = "{421, 0}";
}
);
background = {
paths = (
{
closed = 1;
nodes = (
"459 654 OFFCURVE",
"657 847 OFFCURVE",
"746 847 CURVE SMOOTH {name = hr02;}",
"780 847 OFFCURVE",
"798 825 OFFCURVE",
"798 782 CURVE SMOOTH",
"798 645 OFFCURVE",
"618 480 OFFCURVE",
"353 441 CURVE",
"319 376 LINE",
"726 436 OFFCURVE",
"1008 611 OFFCURVE",
"1008 796 CURVE SMOOTH",
"1008 881 OFFCURVE",
"948 927 OFFCURVE",
"845 927 CURVE SMOOTH",
"730 927 OFFCURVE",
"608 869 OFFCURVE",
"511 755 CURVE",
"500 758 LINE",
"780 1409 LINE",
"352 1409 LINE",
"358 1370 LINE",
"501 1348 LINE",
"-58 0 LINE",
"193 0 LINE",
"378 455 LINE SMOOTH"
);
},
{
closed = 1;
nodes = (
"352 404 LINE",
"468 138 LINE SMOOTH {name = hr01;}",
"512 37 OFFCURVE",
"597 -18 OFFCURVE",
"697 -18 CURVE SMOOTH",
"796 -18 OFFCURVE",
"883 36 OFFCURVE",
"964 148 CURVE",
"918 177 LINE",
"869 112 OFFCURVE",
"828 79 OFFCURVE",
"798 79 CURVE SMOOTH {name = hr01;}",
"768 79 OFFCURVE",
"748 99 OFFCURVE",
"706 196 CURVE SMOOTH",
"594 455 LINE"
);
}
);
};
layerId = "D3934E74-9B53-4E98-B19F-CD3DFEE08352";
paths = (
{
closed = 1;
nodes = (
"796 -18 OFFCURVE",
"883 36 OFFCURVE",
"964 148 CURVE",
"918 177 LINE",
"869 112 OFFCURVE",
"828 79 OFFCURVE",
"798 79 CURVE SMOOTH {name = hr01;}",
"768 79 OFFCURVE",
"748 99 OFFCURVE",
"706 196 CURVE SMOOTH",
"600 441 LINE",
"850 525 OFFCURVE",
"1008 658 OFFCURVE",
"1008 796 CURVE SMOOTH",
"1008 881 OFFCURVE",
"948 927 OFFCURVE",
"845 927 CURVE SMOOTH",
"730 927 OFFCURVE",
"608 869 OFFCURVE",
"511 755 CURVE",
"500 758 LINE",
"780 1409 LINE",
"352 1409 LINE",
"358 1370 LINE",
"501 1348 LINE",
"-58 0 LINE",
"193 0 LINE",
"348 380 LINE",
"361 383 LINE",
"468 138 LINE SMOOTH {name = hr01;}",
"512 37 OFFCURVE",
"597 -18 OFFCURVE",
"697 -18 CURVE SMOOTH"
);
},
{
closed = 1;
nodes = (
"418 554 OFFCURVE",
"499 668 OFFCURVE",
"579 746 CURVE SMOOTH",
"641 807 OFFCURVE",
"703 847 OFFCURVE",
"746 847 CURVE SMOOTH {name = hr02;}",
"780 847 OFFCURVE",
"798 825 OFFCURVE",
"798 782 CURVE SMOOTH",
"798 649 OFFCURVE",
"627 489 OFFCURVE",
"374 444 CURVE"
);
}
);
width = 1062;
}
);
leftKerningGroup = h;
leftMetricsKey = h;
rightKerningGroup = k;
unicode = 006B;
},
{
glyphname = kgreenlandic;
layers = (
{
layerId = master01;
paths = (
{
closed = 1;
nodes = (
"715 -18 OFFCURVE",
"810 41 OFFCURVE",
"854 118 CURVE",
"820 138 LINE",
"778 84 OFFCURVE",
"739 57 OFFCURVE",
"703 57 CURVE SMOOTH",
"667 57 OFFCURVE",
"644 91 OFFCURVE",
"597 190 CURVE SMOOTH",
"479 437 LINE",
"726 504 OFFCURVE",
"932 669 OFFCURVE",
"932 799 CURVE SMOOTH",
"932 882 OFFCURVE",
"875 928 OFFCURVE",
"770 928 CURVE SMOOTH",
"663 928 OFFCURVE",
"547 875 OFFCURVE",
"477 794 CURVE",
"469 794 LINE",
"522 911 LINE",
"194 911 LINE",
"197 885 LINE",
"326 864 LINE",
"-34 0 LINE",
"138 0 LINE",
"301 404 LINE",
"314 404 LINE",
"434 154 LINE SMOOTH {name = hr01;}",
"491 36 OFFCURVE",
"548 -18 OFFCURVE",
"631 -18 CURVE SMOOTH"
);
},
{
closed = 1;
nodes = (
"389 613 OFFCURVE",
"450 705 OFFCURVE",
"534 778 CURVE SMOOTH",
"591 827 OFFCURVE",
"643 853 OFFCURVE",
"694 853 CURVE SMOOTH",
"737 853 OFFCURVE",
"760 830 OFFCURVE",
"760 784 CURVE SMOOTH",
"760 631 OFFCURVE",
"559 475 OFFCURVE",
"330 461 CURVE"
);
}
);
width = 944;
},
{
layerId = "D3934E74-9B53-4E98-B19F-CD3DFEE08352";
paths = (
{
closed = 1;
nodes = (
"830 -18 OFFCURVE",
"917 36 OFFCURVE",
"998 148 CURVE",
"952 177 LINE",
"903 112 OFFCURVE",
"862 79 OFFCURVE",
"832 79 CURVE SMOOTH {name = hr01;}",
"802 79 OFFCURVE",
"782 99 OFFCURVE",
"740 196 CURVE SMOOTH",
"634 441 LINE",
"884 525 OFFCURVE",
"1042 658 OFFCURVE",
"1042 796 CURVE SMOOTH",
"1042 881 OFFCURVE",
"982 927 OFFCURVE",
"879 927 CURVE SMOOTH",
"764 927 OFFCURVE",
"642 869 OFFCURVE",
"545 755 CURVE",
"534 758 LINE",
"607 911 LINE",
"179 911 LINE",
"185 872 LINE",
"328 850 LINE",
"-24 0 LINE",
"227 0 LINE",
"382 380 LINE",
"395 383 LINE",
"502 138 LINE SMOOTH {name = hr01;}",
"546 37 OFFCURVE",
"631 -18 OFFCURVE",
"731 -18 CURVE SMOOTH"
);
},
{
closed = 1;
nodes = (
"452 554 OFFCURVE",
"533 668 OFFCURVE",
"613 746 CURVE SMOOTH",
"675 807 OFFCURVE",
"737 847 OFFCURVE",
"780 847 CURVE SMOOTH {name = hr02;}",
"814 847 OFFCURVE",
"832 825 OFFCURVE",
"832 782 CURVE SMOOTH",
"832 649 OFFCURVE",
"661 489 OFFCURVE",
"408 444 CURVE"
);
}
);
width = 1096;
}
);
rightKerningGroup = k;
rightMetricsKey = k;
unicode = 0138;
},
{
glyphname = l;
layers = (
{
anchors = (
{
name = bottom;
position = "{79, 0}";
},
{
name = top;
position = "{796, 1094}";
},
{
name = topcap;
position = "{654, 1473}";
}
);
background = {
paths = (
{
closed = 1;
nodes = (
"194 -18 OFFCURVE",
"323 65 OFFCURVE",
"430 201 CURVE",
"395 222 LINE",
"283 111 OFFCURVE",
"247 84 OFFCURVE",
"215 84 CURVE SMOOTH",
"194 84 OFFCURVE",
"181 98 OFFCURVE",
"181 117 CURVE SMOOTH",
"181 124 OFFCURVE",
"182 131 OFFCURVE",
"186 140 CURVE SMOOTH",
"432 730 LINE SMOOTH",
"449 771 OFFCURVE",
"459 812 OFFCURVE",
"459 844 CURVE SMOOTH",
"459 898 OFFCURVE",
"412 928 OFFCURVE",
"348 928 CURVE SMOOTH",
"256 928 OFFCURVE",
"145 870 OFFCURVE",
"67 775 CURVE",
"106 744 LINE",
"158 810 OFFCURVE",
"217 851 OFFCURVE",
"258 851 CURVE SMOOTH",
"273 851 OFFCURVE",
"280 846 OFFCURVE",
"280 835 CURVE SMOOTH",
"280 828 OFFCURVE",
"277 818 OFFCURVE",
"271 803 CURVE SMOOTH",
"22 190 LINE SMOOTH",
"4 146 OFFCURVE",
"-4 108 OFFCURVE",
"-4 79 CURVE SMOOTH",
"-4 14 OFFCURVE",
"41 -18 OFFCURVE",
"108 -18 CURVE SMOOTH"
);
},
{
closed = 1;
nodes = (
"531 1126 OFFCURVE",
"595 1185 OFFCURVE",
"595 1246 CURVE SMOOTH",
"595 1300 OFFCURVE",
"543 1341 OFFCURVE",
"484 1341 CURVE SMOOTH {name = hr00;}",
"419 1341 OFFCURVE",
"359 1287 OFFCURVE",
"359 1224 CURVE SMOOTH",
"359 1165 OFFCURVE",
"400 1126 OFFCURVE",
"466 1126 CURVE SMOOTH"
);
}
);
};
layerId = master01;
paths = (
{
closed = 1;
nodes = (
"187 -18 OFFCURVE",
"318 61 OFFCURVE",
"433 201 CURVE",
"395 222 LINE",
"284 104 OFFCURVE",
"241 84 OFFCURVE",
"214 84 CURVE SMOOTH",
"197 84 OFFCURVE",
"178 97 OFFCURVE",
"178 115 CURVE SMOOTH",
"178 154 OFFCURVE",
"208 222 OFFCURVE",
"338 524 CURVE SMOOTH",
"718 1409 LINE",
"377 1409 LINE {name = hr00;}",
"381 1384 LINE",
"512 1363 LINE",
"277 801 LINE SMOOTH",
"37 227 OFFCURVE",
"6 151 OFFCURVE",
"6 90 CURVE SMOOTH",
"6 24 OFFCURVE",
"39 -18 OFFCURVE",
"94 -18 CURVE SMOOTH"
);
}
);
width = 559;
},
{
anchors = (
{
name = bottom;
position = "{111, 0}";
},
{
name = top;
position = "{798, 1094}";
},
{
name = topcap;
position = "{651, 1473}";
}
);
background = {
paths = (
{
closed = 1;
nodes = (
"274 -18 OFFCURVE",
"386 52 OFFCURVE",
"520 208 CURVE",
"472 237 LINE",
"358 119 OFFCURVE",
"307 79 OFFCURVE",
"270 79 CURVE SMOOTH",
"254 79 OFFCURVE",
"245 87 OFFCURVE",
"245 101 CURVE SMOOTH",
"245 106 OFFCURVE",
"246 112 OFFCURVE",
"252 127 CURVE SMOOTH",
"477 679 LINE SMOOTH",
"496 726 OFFCURVE",
"509 777 OFFCURVE",
"509 808 CURVE SMOOTH",
"509 883 OFFCURVE",
"450 928 OFFCURVE",
"348 928 CURVE SMOOTH",
"236 928 OFFCURVE",
"133 874 OFFCURVE",
"38 769 CURVE",
"84 733 LINE",
"137 796 OFFCURVE",
"203 841 OFFCURVE",
"243 841 CURVE SMOOTH",
"257 841 OFFCURVE",
"264 835 OFFCURVE",
"264 823 CURVE SMOOTH",
"264 816 OFFCURVE",
"262 807 OFFCURVE",
"256 791 CURVE SMOOTH",
"28 231 LINE SMOOTH",
"9 184 OFFCURVE",
"-4 133 OFFCURVE",
"-4 102 CURVE SMOOTH",
"-4 28 OFFCURVE",
"53 -18 OFFCURVE",
"150 -18 CURVE SMOOTH"
);
}
);
};
layerId = "D3934E74-9B53-4E98-B19F-CD3DFEE08352";
paths = (
{
closed = 1;
nodes = (
"264 -18 OFFCURVE",
"387 53 OFFCURVE",
"521 208 CURVE",
"473 237 LINE",
"365 126 OFFCURVE",
"305 79 OFFCURVE",
"269 79 CURVE SMOOTH {name = hr01;}",
"254 79 OFFCURVE",
"248 85 OFFCURVE",
"248 102 CURVE SMOOTH",
"248 126 OFFCURVE",
"295 244 OFFCURVE",
"420 535 CURVE SMOOTH",
"796 1409 LINE",
"352 1409 LINE",
"358 1370 LINE",
"501 1348 LINE",
"231 698 LINE SMOOTH",
"35 223 OFFCURVE",
"2 137 OFFCURVE",
"2 80 CURVE SMOOTH",
"2 17 OFFCURVE",
"44 -18 OFFCURVE",
"132 -18 CURVE SMOOTH"
);
}
);
width = 604;
}
);
leftKerningGroup = h;
rightKerningGroup = u;
unicode = 006C;
},
{
glyphname = lslash;
layers = (
{
components = (
{
name = l;
transform = "{1, 0, 0, 1, 62, 0}";
}
);
layerId = master01;
paths = (
{
closed = 1;
nodes = (
"709 792 LINE",
"712 877 LINE",
"32 554 LINE",
"32 471 LINE"
);
}
);
width = 621;
},
{
background = {
paths = (
{
closed = 1;
nodes = (
"794 792 LINE",
"797 877 LINE",
"117 554 LINE",
"117 471 LINE"
);
}
);
};
components = (
{
name = l;
transform = "{1, 0, 0, 1, 105, 0}";
}
);
layerId = "D3934E74-9B53-4E98-B19F-CD3DFEE08352";
paths = (
{
closed = 1;
nodes = (
"874 778 LINE",
"877 903 LINE",
"37 568 LINE",
"37 445 LINE"
);
}
);
width = 829;
}
);
leftKerningGroup = h;
rightKerningGroup = u;
unicode = 0142;
},
{
glyphname = m;
layers = (
{
layerId = master01;
paths = (
{
closed = 1;
nodes = (
"1163 -18 OFFCURVE",
"1284 63 OFFCURVE",
"1400 213 CURVE",
"1364 239 LINE",
"1282 145 OFFCURVE",
"1205 84 OFFCURVE",
"1167 84 CURVE SMOOTH",
"1130 84 OFFCURVE",
"1131 109 OFFCURVE",
"1176 208 CURVE SMOOTH {name = hr01;}",
"1361 619 LINE SMOOTH",
"1390 683 OFFCURVE",
"1402 727 OFFCURVE",
"1402 775 CURVE SMOOTH",
"1402 873 OFFCURVE",
"1350 927 OFFCURVE",
"1253 927 CURVE SMOOTH",
"1129 927 OFFCURVE",
"1017 842 OFFCURVE",
"893 653 CURVE",
"887 656 LINE",
"918 708 OFFCURVE",
"932 756 OFFCURVE",
"932 801 CURVE SMOOTH",
"932 884 OFFCURVE",
"883 927 OFFCURVE",
"792 927 CURVE SMOOTH",
"668 927 OFFCURVE",
"563 848 OFFCURVE",
"428 653 CURVE",
"419 656 LINE",
"474 755 OFFCURVE",
"496 814 OFFCURVE",
"496 859 CURVE SMOOTH",
"496 907 OFFCURVE",
"470 928 OFFCURVE",
"414 928 CURVE SMOOTH",
"304 928 OFFCURVE",
"177 853 OFFCURVE",
"89 732 CURVE {name = hr04;}",
"124 705 LINE",
"188 791 OFFCURVE",
"262 851 OFFCURVE",
"304 851 CURVE SMOOTH",
"336 851 OFFCURVE",
"338 823 OFFCURVE",
"310 767 CURVE SMOOTH",
"-20 0 LINE",
"147 0 LINE",
"303 333 LINE SMOOTH",
"449 645 OFFCURVE",
"629 868 OFFCURVE",
"740 868 CURVE SMOOTH",
"775 868 OFFCURVE",
"796 848 OFFCURVE",
"796 816 CURVE SMOOTH",
"796 796 OFFCURVE",
"787 765 OFFCURVE",
"773 734 CURVE SMOOTH",
"436 0 LINE",
"622 0 LINE",
"780 355 LINE SMOOTH",
"907 640 OFFCURVE",
"1095 868 OFFCURVE",
"1203 868 CURVE SMOOTH {name = hr02;}",
"1259 868 OFFCURVE",
"1269 817 OFFCURVE",
"1230 734 CURVE SMOOTH",
"1015 271 LINE SMOOTH",
"973 181 OFFCURVE",
"954 117 OFFCURVE",
"954 72 CURVE SMOOTH",
"954 14 OFFCURVE",
"990 -18 OFFCURVE",
"1056 -18 CURVE SMOOTH"
);
}
);
width = 1496;
},
{
background = {
paths = (
{
closed = 0;
nodes = (
"422 358 LINE SMOOTH",
"509 554 OFFCURVE",
"754 848 OFFCURVE",
"827 848 CURVE SMOOTH {name = hr02;}",
"859 848 OFFCURVE",
"865 809 OFFCURVE",
"831 742 CURVE SMOOTH",
"609 304 LINE SMOOTH",
"567 221 OFFCURVE",
"547 153 OFFCURVE",
"547 99 CURVE SMOOTH",
"547 19 OFFCURVE",
"592 -18 OFFCURVE",
"689 -18 CURVE SMOOTH",
"818 -18 OFFCURVE",
"929 50 OFFCURVE",
"1074 218 CURVE",
"1026 247 LINE",
"908 125 OFFCURVE",
"850 79 OFFCURVE",
"815 79 CURVE SMOOTH {name = hr01;}",
"787 79 OFFCURVE",
"787 107 OFFCURVE",
"814 160 CURVE SMOOTH",
"1047 618 LINE SMOOTH",
"1070 663 OFFCURVE",
"1082 712 OFFCURVE",
"1082 761 CURVE SMOOTH",
"1082 868 OFFCURVE",
"1022 927 OFFCURVE",
"911 927 CURVE SMOOTH",
"782 927 OFFCURVE",
"671 842 OFFCURVE",
"521 625 CURVE"
);
}
);
};
layerId = "D3934E74-9B53-4E98-B19F-CD3DFEE08352";
paths = (
{
closed = 1;
nodes = (
"1335 -18 OFFCURVE",
"1446 50 OFFCURVE",
"1591 218 CURVE",
"1543 247 LINE",
"1425 125 OFFCURVE",
"1367 79 OFFCURVE",
"1332 79 CURVE SMOOTH {name = hr01;}",
"1304 79 OFFCURVE",
"1304 107 OFFCURVE",
"1331 160 CURVE SMOOTH",
"1559 618 LINE SMOOTH",
"1582 663 OFFCURVE",
"1594 712 OFFCURVE",
"1594 761 CURVE SMOOTH",
"1594 868 OFFCURVE",
"1534 927 OFFCURVE",
"1428 927 CURVE SMOOTH",
"1289 927 OFFCURVE",
"1178 842 OFFCURVE",
"1028 625 CURVE",
"1017 628 LINE",
"1042 683 OFFCURVE",
"1054 733 OFFCURVE",
"1054 779 CURVE SMOOTH",
"1054 872 OFFCURVE",
"1006 927 OFFCURVE",
"913 927 CURVE SMOOTH",
"783 927 OFFCURVE",
"671 842 OFFCURVE",
"521 625 CURVE",
"510 628 LINE",
"555 719 OFFCURVE",
"576 783 OFFCURVE",
"576 830 CURVE SMOOTH",
"576 898 OFFCURVE",
"538 928 OFFCURVE",
"452 928 CURVE SMOOTH",
"322 928 OFFCURVE",
"190 861 OFFCURVE",
"90 743 CURVE {name = hr03;}",
"136 706 LINE",
"188 771 OFFCURVE",
"286 841 OFFCURVE",
"326 841 CURVE SMOOTH",
"344 841 OFFCURVE",
"345 830 OFFCURVE",
"331 792 CURVE SMOOTH",
"8 0 LINE",
"259 0 LINE",
"422 358 LINE SMOOTH",
"511 554 OFFCURVE",
"754 848 OFFCURVE",
"836 848 CURVE SMOOTH {name = hr02;}",
"848 848 OFFCURVE",
"854 839 OFFCURVE",
"854 821 CURVE SMOOTH",
"854 800 OFFCURVE",
"846 776 OFFCURVE",
"831 742 CURVE SMOOTH",
"501 0 LINE",
"769 0 LINE",
"929 358 LINE SMOOTH",
"1016 554 OFFCURVE",
"1261 848 OFFCURVE",
"1344 848 CURVE SMOOTH {name = hr02;}",
"1376 848 OFFCURVE",
"1381 810 OFFCURVE",
"1348 742 CURVE SMOOTH",
"1135 305 LINE SMOOTH",
"1094 221 OFFCURVE",
"1074 153 OFFCURVE",
"1074 99 CURVE SMOOTH",
"1074 19 OFFCURVE",
"1119 -18 OFFCURVE",
"1212 -18 CURVE SMOOTH"
);
}
);
width = 1680;
}
);
leftKerningGroup = i;
leftMetricsKey = n;
rightKerningGroup = i;
rightMetricsKey = n;
unicode = 006D;
},
{
glyphname = n;
layers = (
{
anchors = (
{
name = bottom;
position = "{301, 0}";
},
{
name = top;
position = "{796, 1119}";
}
);
background = {
paths = (
{
closed = 1;
nodes = (
"682 -18 OFFCURVE",
"1006 337 OFFCURVE",
"1006 646 CURVE SMOOTH",
"1006 820 OFFCURVE",
"913 928 OFFCURVE",
"750 928 CURVE SMOOTH",
"465 928 OFFCURVE",
"143 572 OFFCURVE",
"143 267 CURVE SMOOTH",
"143 91 OFFCURVE",
"234 -18 OFFCURVE",
"397 -18 CURVE SMOOTH {name = hr00;}"
);
},
{
closed = 1;
nodes = (
"322 43 OFFCURVE",
"300 86 OFFCURVE",
"300 168 CURVE SMOOTH",
"300 437 OFFCURVE",
"589 868 OFFCURVE",
"770 868 CURVE SMOOTH",
"829 868 OFFCURVE",
"853 828 OFFCURVE",
"853 751 CURVE SMOOTH",
"853 497 OFFCURVE",
"549 43 OFFCURVE",
"377 43 CURVE SMOOTH"
);
}
);
};
layerId = master01;
paths = (
{
closed = 1;
nodes = (
"711 -18 OFFCURVE",
"828 61 OFFCURVE",
"950 213 CURVE",
"914 239 LINE",
"826 141 OFFCURVE",
"753 84 OFFCURVE",
"713 84 CURVE SMOOTH {name = hr01;}",
"699 84 OFFCURVE",
"692 91 OFFCURVE",
"692 108 CURVE SMOOTH",
"692 127 OFFCURVE",
"706 167 OFFCURVE",
"726 208 CURVE SMOOTH",
"928 619 LINE SMOOTH",
"957 677 OFFCURVE",
"970 727 OFFCURVE",
"970 777 CURVE SMOOTH",
"970 875 OFFCURVE",
"918 927 OFFCURVE",
"814 927 CURVE SMOOTH",
"687 927 OFFCURVE",
"575 848 OFFCURVE",
"428 653 CURVE",
"421 656 LINE",
"475 758 OFFCURVE",
"496 813 OFFCURVE",
"496 859 CURVE SMOOTH",
"496 907 OFFCURVE",
"472 928 OFFCURVE",
"414 928 CURVE SMOOTH",
"304 928 OFFCURVE",
"177 853 OFFCURVE",
"89 732 CURVE {name = hr03;}",
"124 705 LINE",
"194 792 OFFCURVE",
"266 851 OFFCURVE",
"305 851 CURVE SMOOTH",
"323 851 OFFCURVE",
"330 841 OFFCURVE",
"330 825 CURVE SMOOTH",
"330 814 OFFCURVE",
"323 796 OFFCURVE",
"310 767 CURVE SMOOTH",
"-20 0 LINE",
"147 0 LINE",
"307 333 LINE SMOOTH",
"455 641 OFFCURVE",
"649 868 OFFCURVE",
"766 868 CURVE SMOOTH {name = hr02;}",
"801 868 OFFCURVE",
"821 849 OFFCURVE",
"821 816 CURVE SMOOTH",
"821 791 OFFCURVE",
"811 758 OFFCURVE",
"799 734 CURVE SMOOTH",
"565 271 LINE SMOOTH",
"525 192 OFFCURVE",
"503 122 OFFCURVE",
"503 74 CURVE SMOOTH",
"503 14 OFFCURVE",
"538 -18 OFFCURVE",
"604 -18 CURVE SMOOTH"
);
}
);
width = 1046;
},
{
anchors = (
{
name = bottom;
position = "{423, 0}";
},
{
name = top;
position = "{775, 1119}";
}
);
background = {
paths = (
{
closed = 1;
nodes = (
"799 -18 OFFCURVE",
"910 50 OFFCURVE",
"1055 218 CURVE",
"1007 247 LINE",
"889 125 OFFCURVE",
"831 79 OFFCURVE",
"796 79 CURVE SMOOTH {name = hr01;}",
"782 79 OFFCURVE",
"775 86 OFFCURVE",
"775 100 CURVE SMOOTH",
"775 113 OFFCURVE",
"782 134 OFFCURVE",
"795 160 CURVE SMOOTH",
"1023 618 LINE SMOOTH",
"1046 663 OFFCURVE",
"1058 712 OFFCURVE",
"1058 761 CURVE SMOOTH",
"1058 868 OFFCURVE",
"998 927 OFFCURVE",
"892 927 CURVE SMOOTH",
"763 927 OFFCURVE",
"652 842 OFFCURVE",
"501 625 CURVE",
"490 628 LINE",
"539 734 OFFCURVE",
"557 789 OFFCURVE",
"557 833 CURVE SMOOTH",
"557 898 OFFCURVE",
"519 928 OFFCURVE",
"433 928 CURVE SMOOTH",
"303 928 OFFCURVE",
"171 861 OFFCURVE",
"71 743 CURVE {name = hr03;}",
"117 706 LINE",
"169 771 OFFCURVE",
"267 841 OFFCURVE",
"307 841 CURVE SMOOTH",
"318 841 OFFCURVE",
"322 837 OFFCURVE",
"322 828 CURVE SMOOTH",
"322 821 OFFCURVE",
"319 811 OFFCURVE",
"312 792 CURVE SMOOTH",
"-11 0 LINE",
"240 0 LINE",
"403 358 LINE SMOOTH",
"492 554 OFFCURVE",
"735 848 OFFCURVE",
"808 848 CURVE SMOOTH {name = hr02;}",
"825 848 OFFCURVE",
"835 836 OFFCURVE",
"835 816 CURVE SMOOTH",
"835 798 OFFCURVE",
"828 775 OFFCURVE",
"812 742 CURVE SMOOTH",
"599 304 LINE SMOOTH",
"559 222 OFFCURVE",
"538 154 OFFCURVE",
"538 99 CURVE SMOOTH",
"538 19 OFFCURVE",
"583 -18 OFFCURVE",
"680 -18 CURVE SMOOTH"
);
}
);
};
layerId = "D3934E74-9B53-4E98-B19F-CD3DFEE08352";
paths = (
{
closed = 1;
nodes = (
"819 -18 OFFCURVE",
"920 50 OFFCURVE",
"1055 218 CURVE",
"1007 247 LINE",
"899 125 OFFCURVE",
"851 79 OFFCURVE",
"816 79 CURVE SMOOTH {name = hr01;}",
"802 79 OFFCURVE",
"795 86 OFFCURVE",
"795 100 CURVE SMOOTH",
"795 113 OFFCURVE",
"802 134 OFFCURVE",
"815 160 CURVE SMOOTH",
"1043 618 LINE SMOOTH",
"1066 663 OFFCURVE",
"1078 712 OFFCURVE",
"1078 761 CURVE SMOOTH",
"1078 868 OFFCURVE",
"1018 927 OFFCURVE",
"902 927 CURVE SMOOTH",
"763 927 OFFCURVE",
"652 842 OFFCURVE",
"501 625 CURVE",
"490 628 LINE",
"539 734 OFFCURVE",
"557 789 OFFCURVE",
"557 833 CURVE SMOOTH",
"557 898 OFFCURVE",
"519 928 OFFCURVE",
"436 928 CURVE SMOOTH",
"299 928 OFFCURVE",
"174 845 OFFCURVE",
"81 723 CURVE {name = hr03;}",
"127 686 LINE",
"169 751 OFFCURVE",
"277 841 OFFCURVE",
"309 841 CURVE SMOOTH",
"318 841 OFFCURVE",
"322 837 OFFCURVE",
"322 828 CURVE SMOOTH",
"322 821 OFFCURVE",
"319 811 OFFCURVE",
"312 792 CURVE SMOOTH",
"-11 0 LINE",
"240 0 LINE",
"403 358 LINE SMOOTH",
"492 554 OFFCURVE",
"735 848 OFFCURVE",
"828 848 CURVE SMOOTH {name = hr02;}",
"845 848 OFFCURVE",
"855 836 OFFCURVE",
"855 816 CURVE SMOOTH",
"855 798 OFFCURVE",
"848 775 OFFCURVE",
"832 742 CURVE SMOOTH",
"619 304 LINE SMOOTH",
"579 222 OFFCURVE",
"558 154 OFFCURVE",
"558 99 CURVE SMOOTH",
"558 19 OFFCURVE",
"603 -18 OFFCURVE",
"700 -18 CURVE SMOOTH"
);
}
);
width = 1144;
}
);
leftKerningGroup = i;
rightKerningGroup = i;
unicode = 006E;
},
{
glyphname = eng;
layers = (
{
background = {
paths = (
{
closed = 1;
nodes = (
"354 -440 OFFCURVE",
"489 -333 OFFCURVE",
"576 -140 CURVE SMOOTH",
"795 349 LINE SMOOTH",
"916 620 OFFCURVE",
"971 784 OFFCURVE",
"971 846 CURVE SMOOTH",
"971 897 OFFCURVE",
"935 928 OFFCURVE",
"863 928 CURVE SMOOTH",
"770 928 OFFCURVE",
"667 873 OFFCURVE",
"585 775 CURVE {name = hr02;}",
"621 744 LINE",
"672 810 OFFCURVE",
"722 846 OFFCURVE",
"763 846 CURVE SMOOTH",
"780 846 OFFCURVE",
"788 841 OFFCURVE",
"788 823 CURVE SMOOTH",
"788 787 OFFCURVE",
"765 719 OFFCURVE",
"652 434 CURVE SMOOTH {name = hr01;}",
"461 -48 LINE SMOOTH",
"360 -303 OFFCURVE",
"302 -380 OFFCURVE",
"234 -380 CURVE SMOOTH",
"124 -380 OFFCURVE",
"182 -227 OFFCURVE",
"62 -227 CURVE SMOOTH",
"8 -227 OFFCURVE",
"-17 -256 OFFCURVE",
"-17 -308 CURVE SMOOTH",
"-17 -389 OFFCURVE",
"67 -440 OFFCURVE",
"184 -440 CURVE SMOOTH"
);
}
);
};
layerId = master01;
paths = (
{
closed = 1;
nodes = (
"355 -440 OFFCURVE",
"488 -333 OFFCURVE",
"577 -140 CURVE SMOOTH",
"928 619 LINE SMOOTH",
"956 679 OFFCURVE",
"970 727 OFFCURVE",
"970 778 CURVE SMOOTH",
"970 875 OFFCURVE",
"918 927 OFFCURVE",
"814 927 CURVE SMOOTH",
"687 927 OFFCURVE",
"575 848 OFFCURVE",
"428 653 CURVE",
"421 656 LINE",
"475 758 OFFCURVE",
"496 813 OFFCURVE",
"496 859 CURVE SMOOTH",
"496 907 OFFCURVE",
"472 928 OFFCURVE",
"414 928 CURVE SMOOTH {name = hr02;}",
"304 928 OFFCURVE",
"177 853 OFFCURVE",
"89 732 CURVE",
"124 705 LINE",
"194 792 OFFCURVE",
"266 851 OFFCURVE",
"305 851 CURVE SMOOTH",
"323 851 OFFCURVE",
"330 839 OFFCURVE",
"330 827 CURVE SMOOTH",
"330 813 OFFCURVE",
"323 796 OFFCURVE",
"310 767 CURVE SMOOTH",
"-20 0 LINE",
"147 0 LINE",
"307 333 LINE SMOOTH",
"455 641 OFFCURVE",
"649 868 OFFCURVE",
"766 868 CURVE SMOOTH {name = hr03;}",
"801 868 OFFCURVE",
"821 849 OFFCURVE",
"821 816 CURVE SMOOTH",
"821 791 OFFCURVE",
"809 758 OFFCURVE",
"799 734 CURVE SMOOTH",
"462 -48 LINE SMOOTH",
"354 -299 OFFCURVE",
"305 -380 OFFCURVE",
"231 -380 CURVE SMOOTH",
"129 -380 OFFCURVE",
"181 -227 OFFCURVE",
"63 -227 CURVE SMOOTH {name = hr01;}",
"10 -227 OFFCURVE",
"-16 -258 OFFCURVE",
"-16 -305 CURVE SMOOTH",
"-16 -391 OFFCURVE",
"68 -440 OFFCURVE",
"185 -440 CURVE SMOOTH"
);
}
);
width = 1006;
},
{
layerId = "D3934E74-9B53-4E98-B19F-CD3DFEE08352";
paths = (
{
closed = 1;
nodes = (
"473 -440 OFFCURVE",
"651 -289 OFFCURVE",
"831 127 CURVE SMOOTH",
"1043 618 LINE SMOOTH",
"1063 663 OFFCURVE",
"1078 712 OFFCURVE",
"1078 764 CURVE SMOOTH",
"1078 868 OFFCURVE",
"1018 927 OFFCURVE",
"902 927 CURVE SMOOTH",
"763 927 OFFCURVE",
"652 842 OFFCURVE",
"501 625 CURVE",
"490 628 LINE",
"539 734 OFFCURVE",
"557 789 OFFCURVE",
"557 833 CURVE SMOOTH",
"557 898 OFFCURVE",
"519 928 OFFCURVE",
"436 928 CURVE SMOOTH",
"299 928 OFFCURVE",
"174 845 OFFCURVE",
"81 723 CURVE {name = hr03;}",
"127 686 LINE",
"169 751 OFFCURVE",
"277 841 OFFCURVE",
"309 841 CURVE SMOOTH",
"318 841 OFFCURVE",
"322 837 OFFCURVE",
"322 828 CURVE SMOOTH",
"322 821 OFFCURVE",
"320 811 OFFCURVE",
"312 792 CURVE SMOOTH",
"-11 0 LINE",
"240 0 LINE",
"403 358 LINE SMOOTH",
"492 554 OFFCURVE",
"735 848 OFFCURVE",
"827 848 CURVE SMOOTH {name = hr02;}",
"845 848 OFFCURVE",
"855 836 OFFCURVE",
"855 817 CURVE SMOOTH",
"855 798 OFFCURVE",
"845 775 OFFCURVE",
"832 742 CURVE SMOOTH",
"612 187 LINE SMOOTH",
"438 -251 OFFCURVE",
"352 -358 OFFCURVE",
"259 -360 CURVE SMOOTH",
"139 -363 OFFCURVE",
"206 -180 OFFCURVE",
"68 -180 CURVE SMOOTH",
"2 -180 OFFCURVE",
"-35 -222 OFFCURVE",
"-35 -274 CURVE SMOOTH",
"-35 -375 OFFCURVE",
"99 -440 OFFCURVE",
"236 -440 CURVE SMOOTH"
);
}
);
width = 1111;
}
);
leftKerningGroup = i;
leftMetricsKey = n;
unicode = 014B;
},
{
glyphname = o;
layers = (
{
anchors = (
{
name = bottom;
position = "{307, 0}";
},
{
name = top;
position = "{778, 1119}";
}
);
background = {
paths = (
{
closed = 1;
nodes = (
"677 -18 OFFCURVE",
"794 61 OFFCURVE",
"916 213 CURVE",
"880 239 LINE",
"792 141 OFFCURVE",
"719 84 OFFCURVE",
"679 84 CURVE SMOOTH {name = hr01;}",
"665 84 OFFCURVE",
"658 91 OFFCURVE",
"658 108 CURVE SMOOTH",
"658 127 OFFCURVE",
"672 167 OFFCURVE",
"692 208 CURVE SMOOTH",
"894 619 LINE SMOOTH",
"923 677 OFFCURVE",
"936 727 OFFCURVE",
"936 777 CURVE SMOOTH",
"936 875 OFFCURVE",
"884 927 OFFCURVE",
"780 927 CURVE SMOOTH",
"653 927 OFFCURVE",
"541 848 OFFCURVE",
"394 653 CURVE",
"387 656 LINE",
"441 758 OFFCURVE",
"462 813 OFFCURVE",
"462 859 CURVE SMOOTH",
"462 907 OFFCURVE",
"438 928 OFFCURVE",
"380 928 CURVE SMOOTH",
"270 928 OFFCURVE",
"143 853 OFFCURVE",
"55 732 CURVE {name = hr03;}",
"90 705 LINE",
"160 792 OFFCURVE",
"232 851 OFFCURVE",
"271 851 CURVE SMOOTH",
"289 851 OFFCURVE",
"296 841 OFFCURVE",
"296 825 CURVE SMOOTH",
"296 814 OFFCURVE",
"289 796 OFFCURVE",
"276 767 CURVE SMOOTH",
"-54 0 LINE",
"113 0 LINE",
"273 333 LINE SMOOTH",
"421 641 OFFCURVE",
"615 868 OFFCURVE",
"732 868 CURVE SMOOTH {name = hr02;}",
"767 868 OFFCURVE",
"787 849 OFFCURVE",
"787 816 CURVE SMOOTH",
"787 791 OFFCURVE",
"777 758 OFFCURVE",
"765 734 CURVE SMOOTH",
"531 271 LINE SMOOTH",
"491 192 OFFCURVE",
"469 122 OFFCURVE",
"469 74 CURVE SMOOTH",
"469 14 OFFCURVE",
"504 -18 OFFCURVE",
"570 -18 CURVE SMOOTH"
);
}
);
};
layerId = master01;
paths = (
{
closed = 1;
nodes = (
"588 -18 OFFCURVE",
"912 337 OFFCURVE",
"912 646 CURVE SMOOTH",
"912 820 OFFCURVE",
"819 928 OFFCURVE",
"656 928 CURVE SMOOTH",
"371 928 OFFCURVE",
"49 572 OFFCURVE",
"49 267 CURVE SMOOTH",
"49 91 OFFCURVE",
"140 -18 OFFCURVE",
"303 -18 CURVE SMOOTH {name = hr00;}"
);
},
{
closed = 1;
nodes = (
"228 43 OFFCURVE",
"206 86 OFFCURVE",
"206 168 CURVE SMOOTH",
"206 437 OFFCURVE",
"495 868 OFFCURVE",
"676 868 CURVE SMOOTH",
"735 868 OFFCURVE",
"759 828 OFFCURVE",
"759 751 CURVE SMOOTH",
"759 497 OFFCURVE",
"455 43 OFFCURVE",
"283 43 CURVE SMOOTH"
);
}
);
width = 960;
},
{
anchors = (
{
name = bottom;
position = "{356, 0}";
},
{
name = top;
position = "{777, 1119}";
}
);
background = {
paths = (
{
closed = 1;
nodes = (
"354 928 OFFCURVE",
"52 614 OFFCURVE",
"52 288 CURVE SMOOTH",
"52 93 OFFCURVE",
"169 -18 OFFCURVE",
"364 -18 CURVE SMOOTH",
"690 -18 OFFCURVE",
"992 294 OFFCURVE",
"992 623 CURVE SMOOTH",
"992 818 OFFCURVE",
"875 928 OFFCURVE",
"679 928 CURVE SMOOTH {name = hr00;}"
);
},
{
closed = 1;
nodes = (
"731 847 OFFCURVE",
"754 802 OFFCURVE",
"754 730 CURVE SMOOTH",
"754 480 OFFCURVE",
"494 62 OFFCURVE",
"361 62 CURVE SMOOTH",
"312 62 OFFCURVE",
"291 105 OFFCURVE",
"291 185 CURVE SMOOTH",
"291 432 OFFCURVE",
"546 847 OFFCURVE",
"686 847 CURVE SMOOTH"
);
}
);
};
layerId = "D3934E74-9B53-4E98-B19F-CD3DFEE08352";
paths = (
{
closed = 1;
nodes = (
"690 -18 OFFCURVE",
"992 296 OFFCURVE",
"992 622 CURVE SMOOTH",
"992 817 OFFCURVE",
"875 928 OFFCURVE",
"680 928 CURVE SMOOTH",
"354 928 OFFCURVE",
"52 616 OFFCURVE",
"52 287 CURVE SMOOTH",
"52 92 OFFCURVE",
"169 -18 OFFCURVE",
"365 -18 CURVE SMOOTH {name = hr00;}"
);
},
{
closed = 1;
nodes = (
"313 63 OFFCURVE",
"290 108 OFFCURVE",
"290 180 CURVE SMOOTH",
"290 430 OFFCURVE",
"546 847 OFFCURVE",
"686 847 CURVE SMOOTH",
"732 847 OFFCURVE",
"754 802 OFFCURVE",
"754 730 CURVE SMOOTH",
"754 479 OFFCURVE",
"498 63 OFFCURVE",
"358 63 CURVE SMOOTH"
);
}
);
width = 1044;
}
);
leftKerningGroup = o;
rightKerningGroup = o;
unicode = 006F;
},
{
glyphname = oslash;
layers = (
{
components = (
{
name = o;
}
);
layerId = master01;
paths = (
{
closed = 1;
nodes = (
"62 -206 LINE",
"1013 1131 LINE",
"918 1131 LINE",
"-28 -206 LINE"
);
}
);
width = 960;
},
{
background = {
paths = (
{
closed = 1;
nodes = (
"22 -206 LINE",
"973 1131 LINE",
"878 1131 LINE",
"-68 -206 LINE"
);
}
);
};
components = (
{
name = o;
}
);
layerId = "D3934E74-9B53-4E98-B19F-CD3DFEE08352";
paths = (
{
closed = 1;
nodes = (
"85 -206 LINE",
"1036 1131 LINE",
"961 1131 LINE",
"15 -206 LINE"
);
}
);
width = 1044;
}
);
leftKerningGroup = o;
leftMetricsKey = o;
rightKerningGroup = o;
rightMetricsKey = o;
unicode = 00F8;
},
